<svg width="542" height="621" viewBox="0 0 542 621" fill="none" xmlns="http://www.w3.org/2000/svg">
<path fill-rule="evenodd" clip-rule="evenodd" d="M361.991 586.999C362.475 587.645 362.958 588.289 363.509 588.869L364.482 596L356.982 593L344.982 588.5L339.982 588.869L342.982 591.5L348.482 596.5L353.482 601L357.482 611.5L354.482 615L343.982 611.5L327.982 604.5L317.482 598L322.982 603.5L324.982 614L322.982 620.5H317.482L306.482 614.5L291.982 604.5L280.482 599L269.982 595L265.982 589L254.482 546L253.273 543.432C249.4 531.528 245.857 519.497 242.315 507.468C239.69 498.556 237.066 489.644 234.308 480.786C232.1 473.696 229.709 466.636 227.319 459.576C225.519 454.257 223.719 448.939 221.996 443.61C221.566 442.277 220.964 440.287 220.261 437.962C217.854 430.005 214.256 418.11 212.245 415.102C209.711 414.074 205.21 415.799 202.758 416.842C197.413 419.115 191.492 428.403 189.444 433.725C189.256 434.211 189.088 434.723 188.918 435.24C188.289 437.153 187.634 439.142 185.896 440.219C184.806 440.276 184.208 440.115 183.408 439.331C181.059 437.03 179.831 433.069 178.718 429.48C178.307 428.157 177.913 426.884 177.483 425.764C177.457 430.504 177.682 435.256 177.908 440.008C178.082 443.659 178.255 447.311 178.315 450.958C178.352 453.283 178.297 455.654 178.241 458.037C178.134 462.634 178.026 467.274 178.581 471.71C178.705 472.694 179.15 473.7 179.6 474.72C179.985 475.588 180.373 476.467 180.57 477.35C180.829 478.507 181.08 479.662 181.332 480.816C182.088 484.289 182.842 487.749 183.762 491.198C184.261 493.066 184.778 494.939 185.296 496.817C187.392 504.408 189.512 512.084 190.516 519.86C191.037 523.9 190.651 529.552 190.28 534.994C190.093 537.729 189.91 540.411 189.847 542.809L189.482 545L188.982 570.5L189.982 581.5L190.982 589L194.482 596V604H185.982L163.482 603L147.482 605L132.982 610.5L123.482 611L122.982 604L130.482 596.5L123.982 598.5L109.982 603.5L103.482 602L108.982 593L113.982 588.217L127.14 585H116.982L108.482 587L100.482 587.5L97.3076 585.5C97.6133 584.45 98.1611 583.489 98.8449 582.396C103.14 575.527 111.753 573.337 119.126 571.705C121.805 571.224 124.471 570.664 127.138 570.103L127.14 570.103C129.672 569.571 132.204 569.039 134.748 568.574C136.371 568.278 138 568.006 139.628 567.734L139.634 567.733C144.019 567.002 148.405 566.271 152.684 565.057C151.979 562.682 151.646 560.124 151.313 557.564L151.313 557.563C151.051 555.544 150.788 553.522 150.342 551.587C149.955 549.892 149.71 548.133 149.467 546.387L149.467 546.383C149.368 545.673 149.269 544.965 149.162 544.265C148.461 540.323 148.166 536.332 147.871 532.337C147.568 528.243 147.264 524.144 146.525 520.087C145.593 514.978 144.42 509.913 143.247 504.849L143.247 504.849L143.246 504.845C142.595 502.034 141.944 499.223 141.334 496.405C140.66 493.287 140.067 490.152 139.475 487.017L139.474 487.012C138.871 483.823 138.269 480.635 137.58 477.466C137.298 476.167 136.835 474.935 136.371 473.704L136.371 473.703C135.867 472.363 135.363 471.025 135.095 469.602C134.01 463.85 133.567 457.933 133.125 452.023L133.125 452.021C132.819 447.921 132.512 443.826 131.992 439.791C131.342 434.747 130.487 429.726 129.632 424.705L129.631 424.702C128.95 420.703 128.269 416.705 127.692 412.694C126.512 404.113 125.659 395.499 125.133 386.853C122.118 385.378 118.773 383.904 115.341 382.392L115.34 382.392C107.984 379.151 100.227 375.734 94.4591 371.741C92.5396 370.412 90.8298 368.786 89.1194 367.159C87.7605 365.867 86.4012 364.574 84.9359 363.429L84.6007 363.172C81.6918 368.257 77.0497 372.796 72.0661 375.871C68.1695 378.276 63.5757 378.933 59.1292 377.82C55.4902 376.909 51.6315 374.177 49.717 370.91L49.5833 370.914H49.583C47.9154 370.967 46.1547 371.022 44.4988 370.813C35.2204 369.646 34.0678 364.351 33.1528 360.147C32.7626 358.355 32.4156 356.761 31.5005 355.77C30.9958 355.223 30.2548 354.925 29.4748 354.611C28.5066 354.221 27.4783 353.808 26.7677 352.864C22.7544 347.539 18.9652 339.104 20.1149 332.347C20.7704 328.494 23.8289 323.513 27.0651 321.264C29.74 319.405 31.6158 319.937 33.9188 320.59C34.7418 320.823 35.6194 321.072 36.6075 321.232C37.3793 320.512 37.8822 319.422 38.3488 318.41L38.3498 318.408C38.4724 318.142 38.5926 317.882 38.7145 317.635C33.59 310.302 27.9819 303.321 21.9685 296.67C20.725 295.295 19.4149 293.99 18.106 292.687L18.1044 292.685C15.975 290.564 13.8482 288.446 12.0132 286.03C8.56976 281.495 0.612061 266.612 0.108582 261.068C-0.229736 257.344 0.276306 253.631 0.90448 249.965C3.02289 237.595 7.60449 230.205 13.7373 220.312C13.9584 219.955 14.1815 219.595 14.4066 219.232L14.6955 218.765C14.8853 218.458 15.0765 218.149 15.2691 217.836C20.4966 209.356 25.7446 201.355 32.1467 193.695C33.0308 192.704 33.9238 191.717 34.8181 190.728L34.8203 190.725L34.8214 190.724C37.6407 187.606 40.4729 184.474 43.0797 181.202C44.44 179.494 45.7096 177.717 46.979 175.939L46.9798 175.938L46.9816 175.936C47.8559 174.712 48.7301 173.488 49.6339 172.287C50.2275 171.498 50.8394 170.714 51.4528 169.928L51.4533 169.927C52.8902 168.087 54.3351 166.236 55.5728 164.284C56.7258 162.465 57.5814 160.318 58.4131 158.232L58.4133 158.232C58.7457 157.398 59.0744 156.573 59.4166 155.783C60.9884 152.218 62.6483 148.694 64.3964 145.212C69.6935 134.516 76.0185 124.791 82.6974 114.925C85.1271 111.017 87.6445 107.167 90.2497 103.373C92.8545 99.5799 95.5445 95.8477 98.3197 92.1767C101.095 88.5057 103.951 84.8996 106.89 81.3585C109.829 77.817 112.847 74.3443 115.945 70.9406C111.137 60.0926 112.317 31.1962 114.434 19.2485C115.41 13.7458 117.278 8.24204 119.199 2.99999C119.617 1.85837 120.401 0.4466 121.647 0.0807829C122.268 -0.101279 122.842 0.0586688 123.433 0.223337L123.433 0.223401C123.513 0.245583 123.593 0.267849 123.673 0.289376C125.348 1.62049 125.6 3.34707 125.826 5.37668C125.961 6.59964 126.045 7.83366 126.129 9.06836C126.25 10.8574 126.372 12.6478 126.651 14.4081C128.562 26.4303 134.249 41.9253 138.956 53.3266C142.122 51.7704 145.07 49.9376 148.022 48.1032L148.022 48.1029L148.023 48.1025C150.181 46.761 152.341 45.4187 154.588 44.1831C155.955 43.4208 157.344 42.7006 158.756 42.0227C160.167 41.3447 161.598 40.7102 163.048 40.1192C164.497 39.5281 165.964 38.9815 167.447 38.4793C168.93 37.9776 170.427 37.5211 171.938 37.11C173.449 36.6988 174.971 36.334 176.504 36.0155C178.036 35.697 179.578 35.4252 181.128 35.2002C182.677 34.9752 184.232 34.7974 185.792 34.6666C187.352 34.5364 188.915 34.4534 190.481 34.4178C191.998 34.3911 193.508 34.5187 195.019 34.6464C196.627 34.7822 198.236 34.9182 199.855 34.8683C210.711 34.5339 220.542 34.6127 231.017 38.1567C238.561 40.7093 245.2 44.6287 251.897 48.5825C254.982 50.4034 258.079 52.2317 261.282 53.9372C262.696 51.8434 264.042 49.7067 265.32 47.5273C266.598 45.3479 267.806 43.1304 268.944 40.8749C270.082 38.6189 271.147 36.3292 272.139 34.0059C273.131 31.6828 274.049 29.3306 274.893 26.9492C275.917 24.0353 276.62 20.9648 277.179 17.9307C277.289 17.3335 277.376 16.6479 277.466 15.9358L277.466 15.935C277.667 14.3476 277.885 12.6232 278.419 11.4237C278.935 10.2686 279.741 9.38038 280.853 8.78233L280.997 8.77762C281.898 8.7476 282.128 8.73994 282.864 9.48554C287.452 14.1316 284.577 42.2858 283.574 49.5456C282.734 55.6304 281.422 61.5246 279.676 67.4121C294.462 81.338 306.468 99.1877 317.459 116.168C325.211 128.143 331.76 138.483 337.918 151.442C341.098 158.134 343.848 165.02 346.597 171.904L346.598 171.906C348.751 177.296 350.903 182.685 353.261 187.979C357.29 190.336 361.148 192.925 365.016 195.52L365.022 195.525C365.989 196.173 366.956 196.822 367.927 197.468C376.522 203.449 384.783 209.828 393.05 216.212L393.051 216.213C398.188 220.179 403.326 224.147 408.549 228.023C409.741 228.907 410.945 229.824 412.162 230.75C416.66 234.173 421.331 237.729 426.184 240.283C431.977 244.052 438.36 247.058 444.67 249.851C463.411 258.144 480.178 262.973 500.892 262.473C505.546 262.36 510.164 261.721 514.784 261.082L514.785 261.082C518.315 260.594 521.846 260.105 525.395 259.852C525.801 259.823 526.314 259.772 526.897 259.715L526.901 259.714C529.8 259.429 534.413 258.974 535.998 260.156C537.152 261.017 537.681 263.548 537.957 264.867L537.962 264.89C538.569 267.793 538.931 270.809 539.289 273.796L539.289 273.796C539.427 274.95 539.565 276.099 539.716 277.235L539.847 278.216C540.748 284.978 541.649 291.741 541.539 298.581C541.188 320.365 531.658 343.248 519.593 361.07C518.517 362.68 517.339 364.21 516.057 365.661C514.776 367.111 513.402 368.469 511.937 369.734C506.611 374.246 490.748 383.278 484.322 385.924C482.468 386.678 480.579 387.335 478.656 387.894C476.734 388.452 474.787 388.91 472.817 389.267C462.848 391.093 454.585 388.045 446.454 382.376C439.986 377.865 434.082 371.991 429.944 365.245C429.34 364.26 428.775 363.235 428.209 362.207C427.145 360.278 426.076 358.338 424.732 356.637C422.606 353.946 420.036 351.612 417.488 349.327C408.935 341.656 401.042 337.976 389.32 340.068C384.945 340.849 379.977 342.273 377.254 346.041C374.884 349.321 374.23 353.498 373.718 357.409C373.543 358.744 373.318 360.086 373.092 361.43L373.091 361.431C372.699 363.768 372.304 366.113 372.173 368.447C372.039 370.837 372.331 373.246 372.624 375.658L372.624 375.659C372.877 377.749 373.131 379.843 373.108 381.929C373.029 389.179 369.19 400.808 365.151 406.835C363.029 410.001 360.326 412.885 357.696 415.691L357.696 415.692L357.688 415.7L357.675 415.714L357.652 415.739C357.238 416.18 356.826 416.619 356.419 417.058C349.011 425.03 339.593 430.74 328.833 432.771C319.036 434.621 309.773 434.11 301.405 428.307C298.725 426.449 295.787 424.224 292.744 421.92C286.437 417.144 279.68 412.027 273.834 409.124C276.527 423.135 279.125 437.163 281.628 451.209C282.138 454.084 282.608 456.971 283.079 459.859L283.081 459.868L283.081 459.872L283.082 459.873C283.789 464.209 284.496 468.546 285.334 472.846C285.976 476.137 286.681 479.413 287.385 482.69L287.385 482.69L287.386 482.694L287.386 482.695C288.292 486.909 289.199 491.124 289.972 495.37C290.823 500.045 291.571 504.738 292.319 509.431L292.32 509.433L292.321 509.439L292.321 509.441L292.321 509.443C293.075 514.171 293.829 518.898 294.687 523.606C295.2 526.419 295.824 529.239 296.448 532.062L296.448 532.063L296.449 532.065C297.348 536.133 298.249 540.207 298.822 544.272C299.454 546.785 300.024 549.291 300.515 551.836C301.548 557.197 302.543 562.565 303.5 567.94C312.693 568.338 321.743 569.621 330.813 570.907C333.242 571.252 335.672 571.596 338.107 571.924C346.392 574.755 354.078 578.641 360.317 584.964C360.937 585.592 361.465 586.297 361.991 586.999Z" fill="black"/>
<path d="M44.5872 306.235C43.5313 307.658 42.1289 308.588 40.8775 309.813C41.0817 310.252 41.4734 310.745 41.7341 311.14L42.4785 311.134C43.5226 310.581 44.1433 309.971 44.6977 308.909C45.3203 307.719 44.9889 307.43 44.5872 306.235Z" fill="#4A744A"/>
<path d="M344.999 588.293C341.996 587.047 339.022 586.039 335.845 585.335C337.312 586.573 338.768 587.812 340.308 588.959C341.921 588.872 343.529 589.059 344.999 588.293Z" fill="#4D535B"/>
<path d="M101.07 121.758C100.289 121.986 99.4148 122.205 98.7425 122.677C97.8275 123.321 97.1124 124.359 97.082 125.5C97.0385 127.135 98.0473 127.951 99.174 128.908C100.574 128.778 101.591 128.624 102.547 127.447C103.267 126.559 103.505 125.549 103.272 124.433C102.982 123.05 102.172 122.468 101.07 121.758Z" fill="#FEFEFE"/>
<path d="M105.749 102.336C102.401 102.959 99.1878 103.616 96.0685 105.031C94.5438 107.109 92.9038 109.169 91.5455 111.357C96.0343 108.911 100.076 108.141 105.13 107.566C105.156 107.472 105.184 107.379 105.209 107.284L105.331 106.813C105.748 105.227 105.848 103.975 105.749 102.336Z" fill="#A3FE6F"/>
<path d="M341.724 321.661C336.707 323.753 331.904 328.61 327.677 332.051C328.56 332.77 329.381 333.583 330.217 334.358L332.024 336.951C335.667 332.063 338.99 327.127 341.724 321.661Z" fill="#4A744A"/>
<path d="M185.048 414.219L179.462 413.512C180.974 419.201 182.741 424.665 184.803 430.185C186.747 427.363 188.794 424.571 190.559 421.635C188.526 419.247 186.657 416.918 185.048 414.219Z" fill="#FECB2F"/>
<path d="M117.26 77.9218C110.799 84.2225 104.009 92.7338 99.4436 100.518C101.827 99.9724 104.219 99.4735 106.622 99.0214C110.004 91.403 114.561 87.03 118.432 80.135C117.923 80.6053 117.386 80.9583 116.805 81.3325L116.273 80.9118C116.271 79.7075 116.826 79.3495 117.555 78.4207L117.26 77.9218Z" fill="#A3FE6F"/>
<path d="M64.57 362.055C61.6058 365.168 59.1277 367.524 55.2249 369.447C58.0817 371.75 60.9242 373.123 64.7109 372.728C67.7961 372.406 69.7857 371.097 72.0869 369.126C69.7596 366.672 66.9842 364.467 64.57 362.055Z" fill="#7FBE68"/>
<path d="M270.315 49.8713C267.837 54.1518 265.038 58.3224 261.804 62.0749C259.254 65.0332 256.012 67.9121 253.993 71.2532C253.466 72.1249 253.196 73.1772 253.42 74.191C253.581 74.9194 253.882 75.628 254.142 76.3253L254.339 76.8633C254.746 76.7851 255.02 76.7466 255.425 76.6008C260.241 74.8716 263.766 65.7914 265.899 61.7343C267.323 59.0254 269.181 56.3016 270.208 53.4258C270.672 52.1254 270.91 51.1407 270.315 49.8713Z" fill="#7FBE68"/>
<path d="M121.17 14.7856C120.493 17.2902 120.022 19.7837 119.599 22.3423C122.874 34.9254 126.553 46.0085 132.082 57.7852C132.851 57.2752 133.469 56.7714 134.13 56.1386C133.969 52.7819 130.341 46.7611 129.124 43.1253C126.038 33.9073 123.031 24.328 121.17 14.7856Z" fill="#7FBE68"/>
<path d="M105.129 107.566C112.091 107.178 119.784 106.806 126.536 108.712C128.381 109.233 133.155 111.399 134.69 110.68C134.73 110.441 134.821 110.206 134.808 109.965C134.728 108.49 132.265 106.179 131.212 105.297C125.657 100.639 112.62 101.728 105.748 102.336C105.848 103.975 105.747 105.227 105.33 106.813L105.209 107.285C105.184 107.379 105.155 107.473 105.129 107.566Z" fill="#7FBE68"/>
<path d="M186.749 597.828C186.543 595.073 186.321 592.319 186.085 589.566C185.904 590.716 186.052 591.219 184.967 591.895C177.533 596.519 150.867 594.515 141.467 594.763C140.401 595.781 139.019 596.246 137.806 597.053C134.914 598.988 132.777 601.607 130.59 604.268C138.365 600.893 150.02 597.295 158.51 597.189C167.968 597.065 177.247 598.492 186.749 597.828Z" fill="#4A744A"/>
<path d="M121.743 114.602C120.535 114.537 119.229 114.44 118.042 114.725C115.701 115.286 113.682 117.26 112.561 119.323C111.354 121.542 110.846 124.199 111.709 126.626C112.507 128.871 114.393 129.604 116.375 130.578C117.446 130.691 118.598 130.865 119.66 130.617C122.231 130.017 124.711 128.182 126.026 125.899C127.141 123.963 127.557 121.654 126.861 119.497C126.011 116.859 124.117 115.728 121.743 114.602Z" fill="#FEFEFE"/>
<path d="M342.713 267.246C336.783 272.903 330.266 279.571 325.807 286.445C328.959 285.25 331.49 282.672 334.84 281.546C342.888 278.842 347.103 283.248 354.103 282.588C356.429 282.369 357.953 281.439 359.446 279.694C359.697 278.25 356.979 277.325 356.612 275.561C356.348 276.587 356.204 277.227 355.391 277.979C354.471 278.263 354.041 278.386 353.152 277.917C349.778 276.136 345.586 270.11 342.713 267.246Z" fill="#4A744A"/>
<path d="M86.343 122.38C86.3753 121.642 86.6174 120.347 86.2989 119.705L86.0568 120.61L85.7949 120.222C81.4606 126.587 77.1506 132.951 73.4048 139.687C63.5706 157.375 56.4236 176.59 48.8235 195.306C49.7305 195.274 50.4704 195.201 51.2402 194.695C52.3098 193.992 52.933 193.114 53.4843 191.982C54.8854 189.102 55.724 185.838 56.7973 182.82C58.5136 177.956 60.5416 173.226 62.8815 168.63C67.3275 159.968 72.2086 151.484 76.857 142.927C80.3687 136.462 84.6086 129.569 86.343 122.38Z" fill="#A3FE6F"/>
<path d="M119.598 22.3422C117.435 37.0715 117.962 52.2322 120.204 66.9157C124.061 63.7713 127.942 60.5573 132.081 57.7852C126.552 46.0084 122.873 34.9254 119.598 22.3422Z" fill="url(#paint0_linear_12_662)"/>
<path d="M325.772 337.968C325.795 338.117 325.809 338.267 325.84 338.415C326.788 343.011 330.606 347.723 327.685 352.562L326.212 350.033L325.605 349.947C326.507 352.118 327.646 354.09 328.286 356.372C329.957 362.326 329.84 371.306 327.499 377.075C326.713 379.012 324.855 382.225 322.835 383.088C322.192 383.361 321.522 383.421 320.833 383.422L320.62 383.523C321.283 384.342 321.945 385.223 322.69 385.968C324.213 387.492 326.405 387.505 328.427 387.51C331.2 387.516 333.727 386.825 335.669 384.745C338.486 381.727 340.553 374.084 340.284 369.978C339.98 365.344 336.555 357.783 333.194 354.697C332.372 354.901 331.513 355.155 330.672 355.255C329.689 355.372 329.301 355.176 328.589 354.548C327.954 352.725 328.916 350.803 329.673 349.172C329.005 345.614 328.306 340.717 325.772 337.968Z" fill="#7FBE68"/>
<path d="M290.932 88.2888C290.293 88.9768 290.291 89.0637 290.154 90.0006C291.426 93.9863 294.799 98.0521 297.149 101.549C302.708 109.82 308.736 117.857 313.886 126.387C324.563 144.068 331.341 163.832 341.739 181.672L345.479 183.417C343.875 179.117 342.183 174.851 340.404 170.62C338.625 166.389 336.76 162.196 334.81 158.041C332.859 153.887 330.825 149.773 328.706 145.701C326.587 141.63 324.386 137.603 322.103 133.621C319.819 129.639 317.456 125.705 315.012 121.82C312.568 117.934 310.045 114.1 307.445 110.318C304.844 106.536 302.167 102.808 299.413 99.1348C296.66 95.4618 293.833 91.8464 290.932 88.2888Z" fill="#A3FE6F"/>
<path d="M279.636 30.4511C276.919 37.1609 273.668 43.4683 270.315 49.8714C270.911 51.1408 270.673 52.1255 270.209 53.4259C269.181 56.3017 267.324 59.0255 265.9 61.7344C263.767 65.7915 260.242 74.8717 255.426 76.6009C255.02 76.7467 254.747 76.7852 254.34 76.8634C254.397 76.9955 254.453 77.1283 254.512 77.2598L254.812 77.915C254.959 78.2389 255.099 78.5659 255.254 78.886C257.107 82.7068 260.582 84.7729 264.432 86.1434C267.134 81.5732 269.914 76.9837 272.058 72.1207C277.731 59.2557 279.307 44.4089 279.636 30.4511Z" fill="url(#paint1_linear_12_662)"/>
<path d="M290.791 207.42C289.957 207.025 289.675 206.695 288.759 207.063C287.628 207.516 286.477 208.6 285.51 209.345C288.284 214.388 296.877 222.558 301.11 227.387C310.255 237.819 323.865 255.55 330.144 267.746C325.336 274.737 319.797 281.008 314.845 287.847C311.896 291.919 309.466 296.417 306.96 300.772C305.603 303.13 303.79 305.676 303.103 308.304C305.973 305.745 310.488 297.627 313.097 294.088C321.102 283.232 329.5 272.738 339.147 263.29C333.807 257.273 328.356 251.358 322.795 245.545C316.433 238.951 292.697 215.725 289.827 210.02C289.87 208.751 290.133 208.471 290.791 207.42Z" fill="#4A744A"/>
<path d="M210.673 409.555C209.711 406.674 208.831 402.617 207.12 400.145C207.014 399.992 206.565 399.397 206.453 399.332C205.152 398.572 184.926 398.883 182.332 398.798C180.495 398.738 178.645 398.422 176.832 398.122C176.766 406.24 176.72 406.083 179.464 413.512L185.049 414.219C186.659 416.918 188.528 419.248 190.561 421.635C191.298 420.589 192.009 419.526 192.78 418.503C197.353 412.437 203.472 410.545 210.673 409.555Z" fill="#957F22"/>
<path d="M47.5652 184.475C41.1644 191.868 34.5793 199.1 28.9209 207.092C25.475 211.959 22.5406 217.124 19.4386 222.21C13.4984 231.949 8.82219 239.128 6.86055 250.677C6.37448 253.536 5.86606 256.629 6.0138 259.539C6.06409 260.53 6.23109 261.532 6.38193 262.512C7.43973 262.24 9.98614 257.756 10.5995 256.576C12.671 252.587 13.9647 248.198 15.8344 244.11C20.6038 233.684 30.4902 216.096 38.5212 207.785C41.1143 199.851 44.129 192.081 47.5652 184.475Z" fill="#A3FE6F"/>
<path d="M47.5893 313.466C45.1156 316.512 43.5338 320.131 41.867 323.65C45.141 329.89 47.4106 336.654 50.7609 342.858C53.6766 348.257 57.7203 353.052 61.088 358.18C61.9465 357.472 62.7088 356.773 63.4631 355.954C64.3284 355.014 65.4706 354.283 66.8277 354.398C67.1411 354.424 67.3771 354.541 67.6564 354.657C68.2846 355.813 68.0885 357.025 67.7036 358.272C67.1498 360.068 66.0114 360.943 64.5699 362.055C66.9841 364.467 69.7596 366.672 72.0869 369.126C75.7556 366.087 78.4305 363.9 79.8564 359.211C77.2014 357.52 74.6749 355.846 72.4748 353.57C69.8384 350.844 67.9345 347.462 65.7866 344.351C62.4003 339.446 58.7372 334.654 55.709 329.519C52.6579 324.345 50.2276 318.854 47.5893 313.466Z" fill="#4A744A"/>
<path d="M41.8679 323.65C40.3222 327.024 39.4866 333.185 37.1115 335.614C36.1078 335.9 35.6416 335.954 34.6328 335.669C33.706 334.861 33.3863 334.134 33.3137 332.932C33.1777 330.664 34.5273 328.67 33.6582 326.531C32.7916 326.018 32.2943 325.757 31.2601 325.937C29.458 326.251 27.9111 327.933 27.0252 329.426C25.2455 332.427 25.0928 336.04 26.0761 339.327C27.1904 343.054 29.3991 346.623 31.2061 350.062C33.5527 348.382 42.9127 341.523 44.806 341.156C45.0997 341.099 45.7651 341.225 46.0631 341.27C46.6863 341.364 47.0911 341.627 47.6001 341.975C47.908 342.831 47.9614 343.013 47.5355 343.904C45.8638 347.407 40.6382 350.245 37.4846 352.257L37.5548 352.609C38.5803 357.915 38.0117 360.994 42.6662 364.742C47.6299 365.664 51.7171 365.7 56.0495 362.702C57.9472 361.389 59.365 359.671 61.0889 358.18C57.7212 353.052 53.6775 348.257 50.7617 342.858C47.4114 336.654 45.1418 329.89 41.8679 323.65Z" fill="#7FBE68"/>
<path d="M257.747 58.358C252.844 55.9786 248.506 52.9372 243.835 50.1842C241.987 49.0906 240.094 48.0797 238.157 47.1515C236.221 46.2237 234.247 45.382 232.236 44.6262C230.226 43.871 228.186 43.2046 226.117 42.6272C224.049 42.0501 221.958 41.5645 219.847 41.1703C213.251 39.9884 206.993 40.2248 200.369 40.172C177.935 39.9927 166.641 42.1289 147.853 55.1503L147.751 55.7788L148.181 56.1219L147.5 56.2721C154.466 56.4489 169.52 48.8956 177.231 46.8195C178.565 46.4603 180.103 46.5068 181.475 46.59C188.506 47.0187 195.55 48.2298 202.588 48.8074C211.815 49.565 221.935 49.1431 230.897 51.4158C239.583 53.6184 247.15 57.1419 254.938 61.4832C255.929 60.4998 256.827 59.4084 257.747 58.358Z" fill="#A3FE6F"/>
<path d="M507.552 366.843C481.677 368.444 457.727 365.391 435.342 351.38C431.273 348.833 427.977 345.242 424.02 342.561L423.769 342.394C430.716 356.004 435.841 368.595 448.798 377.813C451.947 380.054 455.285 382.123 458.974 383.344C467.989 386.327 478.183 383.635 486.392 379.459C492.575 376.314 502.114 371.036 507.552 366.843Z" fill="#957F22"/>
<path d="M532.939 263.811C528.696 264.581 524.386 264.939 520.109 265.475C514.746 266.147 509.383 267.064 503.982 267.367C491.4 268.072 476.735 266.495 464.658 262.929C458.182 261.017 452.104 258.07 445.746 255.841C451.279 261.27 463.153 268.415 470.079 272.398C490.636 283.204 513.34 291.308 536.737 292.264C535.791 282.865 534.851 273.058 532.939 263.811Z" fill="#957F22"/>
<path d="M38.5211 207.785C30.4901 216.096 20.6037 233.684 15.8343 244.11C13.9645 248.198 12.6709 252.587 10.5993 256.576C9.98602 257.756 7.43961 262.24 6.38181 262.512C7.17826 265.291 8.89717 268.04 10.2231 270.628C12.0432 274.18 13.7212 277.95 16.0168 281.222C18.8966 285.327 22.5691 288.654 25.9895 292.283C30.7316 297.314 36.768 304.303 40.8806 309.813C42.1321 308.588 43.5344 307.658 44.5903 306.235C36.2931 287.33 33.0353 255.389 34.2247 234.877C34.7623 225.599 36.1876 216.78 38.5211 207.785Z" fill="#7FBE68"/>
<path d="M171.667 397.715C158.826 397.335 142.951 393.441 130.719 389.332C131.857 405.049 134.48 420.167 136.818 435.702C137.413 439.652 137.505 443.673 138.143 447.608L138.418 446.512C140.363 446.395 143.096 449.439 144.88 450.355C153.134 454.593 164.775 455.327 173.136 450.944C172.72 433.154 171.458 415.53 171.667 397.715Z" fill="#4A744A"/>
<path d="M445.747 255.841C437.519 251.554 429.109 248.15 421.28 243.069C396.245 226.821 374.928 206.189 348.879 191.03C348.446 194.242 348.718 196.359 350.703 199.011C358.445 209.354 373.316 216.764 383.589 225.039C396.599 235.518 408.688 246.952 421.614 257.508C429.049 263.581 437.202 268.91 445.235 274.154C465.789 287.575 476.991 293.927 501.025 299.81C507.132 301.304 513.262 302.921 519.512 303.696C522.309 304.053 525.117 304.229 527.937 304.226C530.757 304.223 533.565 304.04 536.361 303.676C536.705 301.108 536.731 298.529 536.798 295.941L536.738 292.265C513.341 291.308 490.637 283.204 470.08 272.398C463.154 268.415 451.28 261.27 445.747 255.841Z" fill="#FEFE39"/>
<path d="M536.738 292.265C513.341 291.308 490.637 283.204 470.08 272.398C475.302 279.452 501.93 286.819 510.778 289.639C517.438 291.761 524.16 294.568 531.079 295.643C532.426 295.853 533.751 295.888 535.112 295.912L536.798 295.941L536.738 292.265Z" fill="#FECB2F"/>
<path d="M264.763 390.601C255.274 393.415 244.935 395.907 235.102 397.216C231.108 397.748 227.032 397.872 223.016 398.226C219.615 398.526 216.208 399.172 212.8 398.79C212.659 398.773 212.517 398.765 212.375 398.754C218.117 415.225 223.614 431.778 228.866 448.412C232.314 448.958 235.918 450.57 239.305 451.564C245.256 453.308 252.057 454.171 258.272 454.26C266.563 454.379 269.777 451.557 275.403 446.132C273.524 434.761 271.217 423.449 269.055 412.127C267.692 404.995 266.654 397.603 264.763 390.601Z" fill="#4A744A"/>
<path d="M173.136 450.944C164.775 455.327 153.135 454.593 144.88 450.355C143.096 449.439 140.364 446.395 138.418 446.512L138.143 447.607C138.81 454.789 139.127 462.256 140.319 469.359C140.727 471.789 141.919 474.052 142.413 476.511C143.638 482.599 144.599 488.733 145.909 494.806C147.638 502.816 149.721 510.766 151.228 518.821C152.787 527.145 152.646 535.558 153.904 543.886C154.583 548.384 159.058 564.082 156.242 567.666C150.727 574.683 115.001 573.647 104.418 583.587C110.244 582.119 127.146 579.224 132.366 582.65C133.374 583.312 133.49 583.972 133.673 585.061C133.344 586.277 132.758 586.913 131.692 587.532C129.991 588.519 127.853 588.957 125.959 589.443C117.188 591.692 116.312 592.219 109.955 598.777C113.361 597.505 116.561 595.756 119.963 594.521C123.735 593.156 136.172 589.607 139.619 591.303C140.347 591.661 140.925 592.207 141.197 592.982C141.394 593.547 141.423 594.174 141.467 594.763C150.867 594.515 177.534 596.519 184.967 591.895C186.052 591.219 185.904 590.716 186.085 589.566C185.359 583.576 184.511 577.551 184.304 571.515C184.142 566.757 184.691 562.027 184.783 557.274C184.914 550.534 184.744 543.786 184.864 537.046C184.953 532.003 186.204 526.846 185.768 521.825C184.85 511.264 181.107 500.561 178.482 490.323C177.593 486.854 176.751 479.778 174.95 477.104C172.019 472.754 173.173 456.749 173.136 450.944Z" fill="#7FBE68"/>
<path d="M379.08 293.281C369.881 301.522 360.416 310.186 350.03 316.904C345.238 326.968 340.576 334.202 334.183 343.196C334.436 344.524 334.912 349.476 335.733 350.193C335.788 350.242 336.849 350.93 336.849 350.93C340.049 353.04 344.428 362.636 345.211 366.516C346.456 372.691 344.322 381.491 340.796 386.724C338.672 389.876 336.044 392.255 332.234 393.04C328.41 393.83 323.259 393.654 320.012 391.324C319.333 390.836 318.752 390.255 318.17 389.659C314.527 391.243 310.861 392.905 306.862 391.407C303.772 390.248 301.332 387.667 298.954 385.476C297.662 385.92 296.397 386.374 295.059 386.655C291.273 385.653 288.211 384.234 285.183 381.676C280.03 383.983 275.003 386.63 269.812 388.832C270.869 393.292 271.756 397.785 272.474 402.312L273.13 402.557C277.286 404.127 280.738 406.668 284.359 409.189C289.353 412.665 294.158 416.403 299.101 419.951C307.851 426.231 312.528 429.058 323.614 427.979C324.791 427.876 325.96 427.725 327.124 427.525C328.287 427.326 329.44 427.078 330.583 426.783C331.726 426.487 332.854 426.145 333.969 425.756C335.083 425.367 336.18 424.932 337.258 424.452C347.878 419.672 360.03 407.734 364.108 396.689C365.658 392.491 367.26 388.087 367.654 383.608C368.069 378.879 366.946 374.238 366.916 369.529C366.893 365.968 367.709 362.308 368.256 358.802C369.555 350.468 370.528 341.944 379.147 337.887C379.703 337.627 380.265 337.38 380.833 337.147C381.401 336.914 381.975 336.696 382.554 336.492C383.133 336.288 383.716 336.098 384.305 335.923C384.893 335.748 385.486 335.588 386.082 335.442C386.679 335.297 387.279 335.166 387.882 335.051C388.485 334.935 389.09 334.834 389.698 334.749C390.306 334.664 390.916 334.593 391.528 334.538C392.139 334.483 392.751 334.443 393.365 334.418C393.978 334.394 394.592 334.385 395.206 334.391C395.82 334.397 396.433 334.418 397.046 334.455C397.659 334.491 398.271 334.543 398.881 334.611C399.492 334.678 400.1 334.76 400.706 334.857C401.312 334.955 401.916 335.067 402.516 335.195C403.117 335.322 403.714 335.464 404.307 335.621C404.901 335.779 405.49 335.951 406.075 336.138C406.66 336.324 407.24 336.525 407.815 336.741C411.968 338.268 415.151 340.844 418.4 343.762C418.032 342.45 417.539 341.2 417.85 339.834C418.541 338.802 419.161 338.502 420.245 338.005C418.861 336.631 417.409 335.181 417.032 333.207C415.019 329.804 412.314 326.719 409.86 323.629C401.693 313.345 392.731 302.53 382.533 294.176C381.052 294.049 380.381 294.143 379.08 293.281Z" fill="#957F22"/>
<path d="M382.531 294.176C381.374 294.469 380.611 294.654 379.713 295.505C379.359 296.459 379.398 296.602 379.61 297.607C385.079 304.234 391.986 309.801 397.645 316.321C401.23 320.45 410.535 333.596 414.364 335.842C415.287 335.826 415.691 335.815 416.336 335.018C416.743 334.515 416.896 333.817 417.03 333.207C415.018 329.804 412.312 326.719 409.858 323.629C401.692 313.345 392.73 302.531 382.531 294.176Z" fill="black"/>
<path d="M275.402 446.132C269.775 451.557 266.561 454.379 258.27 454.26C252.056 454.171 245.254 453.308 239.304 451.564C235.916 450.57 232.312 448.958 228.864 448.412C240.72 484.654 251.891 521.106 262.376 557.768C263.769 562.545 265.133 567.365 266.277 572.207C267.139 575.855 267.76 579.612 268.874 583.191C269.769 586.063 270.806 588.692 273.312 590.54C276.836 593.138 281.177 593.466 285.196 594.838C287.3 595.557 289.353 596.625 291.367 597.561C301.167 602.128 309.804 608.562 319.356 613.643C318.565 610.008 316.562 604.548 314.346 601.57C312.273 598.784 307.062 596.234 306.65 592.61C307.032 591.676 307.066 591.121 308.138 590.808C314.287 589.017 343.226 605.404 350.457 609.158C346.763 600.682 338.652 593.677 331.243 588.47C329.592 587.31 325.961 585.468 324.926 583.848C324.375 582.987 324.612 582.486 324.832 581.582C325.317 580.989 325.622 580.69 326.35 580.388C327.898 579.747 329.919 580.063 331.55 580.188C341.004 580.918 345.126 582.997 353.974 586.218C342.576 577.309 334.169 576.016 320.083 574.589C316.062 574.181 311.986 573.482 307.955 573.303C306.124 573.222 302.381 573.813 300.835 572.951C300.471 572.748 300.358 572.536 300.12 572.187C298.553 569.89 297.664 562.137 297.036 559.138C294.666 547.806 292.098 536.473 290.018 525.085C288.069 514.417 286.57 503.672 284.566 493.011C283.212 485.809 281.303 478.765 279.88 471.599C278.205 463.161 276.933 454.602 275.402 446.132Z" fill="#7FBE68"/>
<path d="M142.754 345.896C138.023 347.563 117.613 339.729 112.718 337.694C94.0821 329.946 70.512 317.849 59.304 300.492C53.5047 291.511 49.4412 280.509 45.652 270.58C44.5526 267.697 43.4979 264.786 42.6698 261.813C41.8212 258.763 41.2333 255.489 39.9942 252.576C39.9495 252.47 39.9011 252.365 39.8546 252.26C39.7906 257.387 40.4915 262.615 41.052 267.706C43.3303 288.397 49.5759 308.919 60.3531 326.848C62.8958 331.078 65.8376 335.053 68.6882 339.076C71.2961 342.757 73.6469 347.328 76.8743 350.469C79.3028 352.831 82.7313 354.514 85.4037 356.716C89.5375 360.124 93.5203 364.389 97.9613 367.334C103.838 371.23 110.858 374.21 117.279 377.077C122.856 379.568 128.353 382.452 134.126 384.461C152.379 390.81 172.394 392.671 191.566 392.911C195.244 392.956 198.862 393.271 202.548 393.122C207.148 392.935 211.749 393.113 216.331 392.926C232.086 392.281 251.573 389.474 266.326 384.07C271.427 382.201 276.326 379.666 281.184 377.249C275.883 368.158 273.559 358.812 276.313 348.454C277.353 344.546 278.636 340.712 279.447 336.746C277.666 334.015 277.289 331.636 278.021 328.431C278.545 326.135 279.518 323.972 280.535 321.86C276.127 323.969 271.753 325.973 267.094 327.486C253.927 331.76 240.349 334.355 226.902 337.495C212.67 340.817 192.641 347.552 178.289 346.41C175.883 350.041 167.005 364.274 163.684 365.539C161.564 364.478 155.518 356.779 153.219 354.533C149.988 351.374 146.159 348.867 142.754 345.896Z" fill="#4A744A"/>
<path d="M348.88 191.03C339.365 185.671 330.003 182.365 319.626 179.182C329.651 189.073 340.169 198.82 349.259 209.601C351.999 212.849 354.246 216.425 356.82 219.79L373.781 241.947C377.95 247.325 385.243 255.182 387.956 261.053C389.322 264.009 389.594 268.571 389.596 271.829C389.602 279.573 384.124 287.762 379.081 293.281C380.382 294.143 381.053 294.049 382.534 294.175C392.732 302.53 401.694 313.345 409.861 323.629C412.315 326.719 415.021 329.803 417.033 333.207C417.41 335.181 418.862 336.631 420.246 338.005C421.791 339.225 422.709 340.767 423.769 342.394L424.021 342.561C427.977 345.242 431.273 348.833 435.343 351.38C457.728 365.391 481.678 368.444 507.552 366.843C507.861 366.606 508.167 366.364 508.47 366.12C513.224 362.297 516.448 357.14 519.551 351.978C528.609 336.905 534.398 321.195 536.362 303.676C533.566 304.04 530.758 304.223 527.938 304.226C525.118 304.229 522.31 304.053 519.513 303.696C513.263 302.921 507.133 301.304 501.025 299.81C476.992 293.927 465.79 287.575 445.236 274.154C437.203 268.91 429.05 263.58 421.614 257.508C408.689 246.952 396.6 235.518 383.59 225.039C373.316 216.764 358.446 209.354 350.704 199.011C348.718 196.359 348.447 194.242 348.88 191.03Z" fill="#FECB2F"/>
<path d="M254.938 61.4829C247.15 57.1416 239.583 53.6181 230.897 51.4155C221.935 49.1428 211.816 49.5647 202.588 48.8071C195.55 48.2295 188.506 47.0184 181.475 46.5897C180.103 46.5065 178.565 46.46 177.231 46.8192C169.521 48.8952 154.466 56.4486 147.5 56.2718L148.181 56.1216L147.751 55.7785L147.853 55.15C138.754 58.7666 123.122 70.0588 117.258 77.9217L117.554 78.4205C116.824 79.3494 116.269 79.7074 116.271 80.9116L116.804 81.3323C117.385 80.9582 117.922 80.6051 118.431 80.1348C114.56 87.0299 110.003 91.4028 106.621 99.0213C115.032 98.3456 127.68 97.1885 134.616 103.057C136.351 104.525 137.94 106.859 138.083 109.191C138.176 110.721 137.323 112.084 137.153 113.57C136.972 115.168 137.694 116.856 137.366 118.432C136.433 122.927 130.088 129.954 126.959 133.232C121.866 138.568 115.322 143.519 107.633 143.682C101.868 143.805 95.8132 141.173 91.7328 137.122C87.691 133.11 86.3147 127.886 86.3414 122.38C84.607 129.568 80.3671 136.462 76.8554 142.927C72.207 151.484 67.3259 159.968 62.8799 168.629C60.54 173.226 58.512 177.956 56.7957 182.82C55.7224 185.838 54.8838 189.102 53.4827 191.982C52.9314 193.114 52.3082 193.992 51.2386 194.695C50.4689 195.201 49.7289 195.274 48.8219 195.306C41.6911 213.029 37.4258 233.069 39.853 252.26C39.8996 252.365 39.948 252.469 39.9927 252.576C41.2317 255.489 41.8196 258.763 42.6682 261.813C43.4963 264.786 44.551 267.697 45.6504 270.58C49.4396 280.509 53.5032 291.511 59.3024 300.492C70.5105 317.849 94.0806 329.946 112.716 337.694C117.611 339.729 138.022 347.563 142.753 345.896C146.158 348.867 149.987 351.374 153.218 354.533C155.517 356.779 161.562 364.478 163.683 365.539C167.003 364.274 175.882 350.041 178.288 346.41C192.64 347.552 212.669 340.817 226.9 337.495C240.348 334.355 253.926 331.76 267.092 327.485C271.752 325.973 276.125 323.969 280.533 321.86C288.099 312.477 292.674 313.153 302.593 308.543L303.101 308.304C303.788 305.675 305.602 303.13 306.959 300.772C309.464 296.416 311.894 291.919 314.843 287.847C319.796 281.008 325.334 274.737 330.142 267.746C323.863 255.549 310.254 237.819 301.108 227.387C296.875 222.558 288.282 214.388 285.509 209.345C286.475 208.6 287.627 207.515 288.758 207.063C289.673 206.695 289.956 207.025 290.79 207.42C291.808 207.177 292.265 206.919 293.25 207.401C294.933 208.223 331.395 246.665 335.345 251.072C337.889 253.911 339.962 257.136 342.507 259.945C344.297 261.921 346.298 263.697 348.074 265.686C349.903 267.736 351.562 270.014 353.488 271.966C354.188 272.676 355.18 273.199 355.814 273.927C356.213 274.386 356.409 275.005 356.611 275.561C356.978 277.325 359.696 278.25 359.445 279.694C357.952 281.439 356.428 282.369 354.102 282.588C347.102 283.247 342.887 278.842 334.839 281.546C331.489 282.672 328.958 285.25 325.806 286.445C320.567 291.918 316.038 298.826 311.748 305.082C309.842 307.863 307.817 311.743 305.324 313.965C303.891 315.241 300.25 315.443 298.371 316.001C291.914 317.918 283.745 322.949 283.71 330.514C283.696 333.531 284.631 336.398 284.266 339.44C283.771 343.569 281.901 347.447 281.071 351.51C279.377 359.809 282.006 370.641 288.207 376.621C290.255 378.597 292.457 379.734 295.055 380.82C297.16 379.954 299.068 379.336 301.276 380.261C305.35 381.969 307.106 387.946 312.664 385.787C315.63 384.634 317.213 382.717 320.618 383.523L320.83 383.422C321.519 383.421 322.19 383.361 322.832 383.088C324.852 382.225 326.71 379.012 327.496 377.075C329.837 371.306 329.954 362.326 328.284 356.372C327.644 354.09 326.505 352.118 325.603 349.947L326.209 350.033L327.683 352.562C330.603 347.723 326.785 343.011 325.837 338.415C325.807 338.267 325.792 338.117 325.769 337.968C324.567 336.021 322.776 336.514 321.169 335.327C320.458 334.802 320.162 333.699 320.248 332.842C320.903 326.284 346.791 312.646 352.384 308.583C359.652 303.304 366.733 297.303 373.411 291.294C378.424 286.784 384.225 278.977 384.447 272.045C384.54 269.128 384.061 264.836 382.815 262.199C380.625 257.561 373.525 250.127 370.096 245.661C361.964 235.068 354.738 223.934 346.044 213.753C340.122 206.819 333.631 199.93 327.131 193.532C323.763 190.217 320.186 187.102 316.903 183.702C315.023 181.755 310.875 178.047 310.927 175.244C311.368 174.595 311.54 174.288 312.291 173.964C317.392 171.763 336.125 179.328 341.739 181.672C331.342 163.832 324.563 144.068 313.887 126.387C308.737 117.858 302.709 109.82 297.15 101.549C294.8 98.0522 291.427 93.9864 290.155 90.0006C290.292 89.0637 290.294 88.9769 290.933 88.2888C288.627 84.1721 281.086 76.7788 277.642 73.1815C275.356 77.5656 273.057 81.8671 270.504 86.1048C269.881 87.1292 269.267 88.2311 268.478 89.1376C267.349 90.4337 265.596 91.2068 263.889 91.2924C258.956 91.5412 254.552 86.8692 251.187 83.7738C250.222 80.1106 247.871 77.2678 247.805 73.2249C247.727 68.4381 251.878 64.6664 254.938 61.4829Z" fill="url(#paint2_linear_12_662)"/>
<path d="M325.604 349.947C324.429 349.68 323.734 349.518 322.55 349.942C321.908 350.659 321.636 351.002 321.642 351.998C321.657 353.958 322.405 356.074 322.9 357.955C323.989 362.091 324.599 366.487 323.812 370.735C322.856 375.896 317.512 379.989 320.832 383.422C321.521 383.421 322.191 383.361 322.834 383.088C324.854 382.225 326.712 379.012 327.498 377.075C329.839 371.306 329.956 362.326 328.285 356.372C327.645 354.09 326.506 352.118 325.604 349.947Z" fill="black"/>
<path d="M304.484 317.51C303.797 317.44 302.729 317.328 302.063 317.522C301.109 317.801 300.749 318.508 300.272 319.296C300.023 322.912 305.619 323.317 307.723 325.348C309.039 326.619 309.784 328.895 310.511 330.558C309.793 331.414 308.792 332.856 307.828 333.424C305.353 334.882 298.364 329.417 294.464 330.456C293.546 331.119 293.383 331.466 293.024 332.488C293.151 333.672 293.399 334.018 294.135 334.89C299.708 336.874 304.624 340.38 310.752 337.874C312.819 337.029 314.503 335.6 315.357 333.505C316.342 331.089 315.903 328.492 314.879 326.163C312.728 321.27 309.248 319.259 304.484 317.51Z" fill="black"/>
<path d="M181.3 288.679C176.041 288.532 170.902 289.927 165.688 290.403C157.947 291.109 150.023 291.046 142.249 291.266C138.834 291.171 114.078 289.078 113.67 289.189C113.111 289.34 112.471 289.88 112.07 290.276C109.239 293.077 99.9526 307.773 100.512 311.15C100.717 312.389 102.203 313.295 103.176 313.975C117.421 323.932 129.229 335.193 142.755 345.896C146.16 348.867 149.989 351.374 153.22 354.533C155.519 356.779 161.564 364.478 163.685 365.54C167.005 364.274 175.884 350.041 178.29 346.41C183.913 337.932 190.531 329.813 196.524 321.553C200.016 316.741 203.965 311.499 206.399 306.07L206.153 305.576L204.789 305.333L205.108 306.126C197.662 319.604 185.294 333.819 176.267 346.697C172.322 352.77 167.849 358.538 163.78 364.536C160.545 361.389 157.77 357.718 154.579 354.503C151.624 351.526 148.186 349.033 144.966 346.352L101.379 310.775C103.454 306.288 108.401 295.508 111.734 292.529C112.691 291.673 113.784 291.135 115.058 290.947C118.206 290.481 121.834 291.468 125.016 291.759C128.83 292.109 132.675 292.309 136.499 292.519C145.016 293.01 153.996 292.727 162.465 291.683C168.587 290.928 174.654 289.645 180.816 289.274C187.743 294.774 195.645 299.878 203.334 304.263C199.603 299.663 192.258 296.605 187.305 293.308C185.211 291.915 183.253 290.26 181.3 288.679Z" fill="#123700"/>
<path d="M302.538 342.417C302.258 342.412 301.978 342.414 301.698 342.422C299.146 342.502 296.588 343.798 294.886 345.688C290.751 350.28 291.141 355.64 291.406 361.329C291.026 361.79 290.516 362.329 290.258 362.865C289.816 363.781 289.978 364.5 290.203 365.444C290.771 366.148 291.056 366.591 292.041 366.708C293.164 366.841 294.4 366.236 295.194 365.483C297.947 362.865 296.676 356.157 296.77 352.619C297.82 350.921 299.181 348.369 301.251 347.81C302.111 347.578 302.956 347.678 303.691 348.208C306.219 350.03 306.241 354.849 306.458 357.659C306.445 360.725 306.031 363.585 305.153 366.52C304.075 370.125 301.597 374.576 301.84 378.34L303.017 379.27C303.957 379.413 304.311 379.505 305.143 378.892C307.776 376.954 310.192 368.976 310.896 365.816C312.203 359.939 312.493 351.152 308.939 345.961C307.319 343.594 305.191 343.004 302.538 342.417Z" fill="black"/>
<path d="M270.506 86.1049C269.883 87.1293 269.269 88.2312 268.48 89.1376C267.351 90.4338 265.598 91.2068 263.891 91.2925C258.958 91.5413 254.554 86.8693 251.189 83.7739C252.751 89.5695 260.266 96.1121 264.118 100.929C267.875 105.625 271.252 110.617 275.009 115.309C278.392 119.533 282.188 123.475 285.935 127.375C287.994 129.518 290.178 132.173 292.76 133.674C292.847 133.724 292.936 133.771 293.025 133.82C295.36 133.727 297.752 133.776 300 133.071C300.526 132.426 300.515 132.381 300.445 131.578C300.201 128.821 298.337 125.492 297.22 122.96C292.349 111.916 286.016 97.8196 276.369 90.2234C274.844 89.0235 271.573 87.5158 270.506 86.1049Z" fill="url(#paint3_linear_12_662)"/>
<path d="M227.443 221.299C226.569 228.608 223.221 235.301 217.291 239.836C212.468 243.525 205.794 245.382 200.174 247.499C193.264 250.101 186.256 252.65 179.099 254.492C158.93 259.683 137.211 260.338 116.567 258.599C111.309 258.156 105.969 257.915 100.757 257.094C90.9262 255.544 80.3811 254.07 74.1262 245.328C73.8977 245.009 73.6823 244.68 73.4663 244.353C73.4905 244.688 73.5104 245.024 73.5613 245.357C74.1858 249.436 78.3096 253.388 81.519 255.675C83.3683 256.993 85.2746 258.119 87.4107 258.907C96.6031 262.296 106.807 263.285 116.423 264.759C129.178 266.713 144.035 269.907 156.933 267.68C164.253 266.417 171.675 264.099 178.878 262.262C189.109 259.654 206.47 256.246 215.284 251.116C218.549 249.214 221.277 246.053 223.416 242.959C226.901 237.921 228.97 230.769 227.835 224.664C227.645 223.641 227.509 222.686 227.458 221.646L227.443 221.299Z" fill="#4A744A"/>
<path d="M190.805 102.644C185.036 102.397 178.564 102.296 173.004 104.027C168.719 105.36 164.258 107.683 162.54 112.07C161.986 113.485 161.847 115.048 161.268 116.442C160.782 117.609 159.952 118.64 159.402 119.784C157.578 123.577 161.358 133.366 162.823 137.009C165.926 144.729 171.227 152.065 179.101 155.398C188.506 159.38 200.96 158.588 210.28 154.736C217.683 151.676 224.47 145.535 227.447 138.009C228.778 134.643 229.21 131.233 227.621 127.868C225.053 122.433 219.447 120.078 214.167 118.129C199.34 113.825 180.785 110.25 165.633 114.191C165.648 114.159 165.665 114.127 165.679 114.095C165.997 113.399 166.306 112.676 166.727 112.035C168.825 108.832 173.977 107.313 177.612 106.807C191.67 104.847 213.214 108.434 224.805 116.986C227.091 118.672 227.806 121.407 229.971 123.043C231.062 123.311 231.655 123.446 232.783 123.195C233.466 122.553 233.61 122.382 233.64 121.371C233.697 119.484 231.905 116.857 230.679 115.548C222.803 107.136 202.031 103.294 190.805 102.644Z" fill="black"/>
<path d="M181.821 128.447C181.076 128.44 180.335 128.489 179.598 128.594C178.122 128.806 176.793 129.529 175.914 130.752C175.283 131.629 174.986 132.612 175.178 133.698C175.492 135.474 176.66 136.521 178.073 137.499C180.02 137.571 181.84 137.227 183.308 135.861C184.263 134.972 184.804 133.829 184.709 132.503C184.564 130.483 183.293 129.57 181.821 128.447Z" fill="#FEFEFE"/>
<path d="M206.579 126.67C203.694 126.415 200.581 126.761 197.941 128.007C195.324 129.242 193.206 131.31 192.254 134.08C191.364 136.672 191.516 139.718 192.872 142.125C194.565 145.133 197.394 146.549 200.554 147.528C203.058 147.615 205.62 147.473 208.011 146.673C211.016 145.667 213.745 143.726 215.111 140.798C216.192 138.483 216.34 135.721 215.377 133.341C213.807 129.465 210.138 128.155 206.579 126.67Z" fill="#FEFEFE"/>
<path d="M163.96 198.744C166.029 197.884 167.978 197.064 169.807 195.745C172.943 193.482 175.787 190.358 176.343 186.395C176.807 183.086 175.591 180.259 173.588 177.683C169.083 171.893 161.951 168.251 155.349 165.443C152.965 164.429 150.318 163.598 148.15 162.16C141.539 157.774 139.414 148.981 129.091 148.064C119.261 147.191 115.662 155.596 108.584 159.467C106.762 160.464 104.563 160.949 102.578 161.549C97.4581 163.096 92.4702 165.037 88.4222 168.648C86.3041 170.537 84.8174 172.774 84.7162 175.679C84.5591 180.184 87.1949 184.228 90.0486 187.466C94.9043 197.855 104.492 208.379 115.497 212.387C123.417 215.272 133.276 213.575 140.73 210.067C143.49 208.768 146.175 207.297 148.965 206.064C154.075 203.805 159.48 202.211 163.96 198.744Z" fill="black"/>
<path d="M168.471 191.041C167.582 188.432 166.541 186.07 164.718 183.961C154.103 171.682 136.384 183.018 123.334 179.701C115.652 177.748 109.091 170.715 101.034 170.176C96.3381 169.862 91.9803 171.871 88.5927 174.916L88.0557 174.807C87.4716 176.863 88.386 179.239 89.3482 181.057C90.303 182.858 92.0467 185.184 94.1232 185.763C94.7787 185.946 95.2039 185.951 95.8651 185.869L96.0581 185.388L95.8663 184.959C94.9954 182.96 94.4876 180.986 95.3498 178.881C95.8644 177.624 96.7472 176.603 98.0527 176.12C100.187 175.33 102.749 176.113 104.692 177.078C107.943 178.691 110.382 181.595 113.507 183.398C118.18 186.093 133.087 187.981 138.023 186.465C143.931 184.651 151.341 179.399 157.659 182.332C159.246 183.068 160.24 184.478 160.805 186.095C161.462 187.973 161.299 189.367 160.403 191.127C159.906 192.104 159.209 192.988 158.551 193.862L158.706 194.449C160.659 195.112 163.696 194.297 165.485 193.382C166.622 192.801 167.65 192.019 168.471 191.041Z" fill="#4A744A"/>
<path d="M128.236 151.366C116.798 154.189 118.445 157.8 111.072 162.166C107.479 164.294 102.928 164.88 99.0032 166.287C94.5635 167.88 90.1386 170.358 88.0584 174.807L88.5953 174.916C91.9829 171.871 96.3408 169.862 101.037 170.176C109.093 170.716 115.654 177.748 123.336 179.701C136.387 183.018 154.106 171.682 164.721 183.962C166.543 186.07 167.584 188.432 168.474 191.042C170.539 188.732 171.436 187.014 172.12 184.001C172.01 183.744 171.893 183.489 171.771 183.236C168.198 175.849 160.804 172.044 153.569 168.996C150.949 167.892 148.117 166.897 145.754 165.299C138.26 160.231 140.098 155.598 128.236 151.366Z" fill="#5F9554"/>
<path d="M163.96 198.744L163.525 198.773C160.351 198.956 152.8 197.36 150.559 194.796C149.88 194.019 149.899 193.804 149.933 192.84C151.608 190.456 152.689 192.373 154.604 191.344C155.46 190.885 156.265 190.005 156.559 189.065C156.867 188.078 156.631 187.568 156.207 186.68C153.797 184.916 150.53 185.88 147.996 186.926C144.473 188.381 141.034 190.154 137.242 190.805C131.673 191.76 115.924 189.513 111.277 186.404C108.307 184.417 104.605 180.159 101.033 179.608C99.8898 179.432 98.67 179.65 97.76 180.369C97.7575 183.414 102.284 184.531 102.734 187.594C102.01 188.401 101.553 188.614 100.49 188.854C96.3725 189.787 93.6281 189.673 90.0481 187.466C94.9038 197.855 104.492 208.379 115.496 212.387C123.416 215.272 133.276 213.575 140.729 210.067C143.489 208.768 146.175 207.297 148.965 206.064C154.075 203.805 159.479 202.211 163.96 198.744Z" fill="#5F9554"/>
<path d="M180.814 289.274C174.652 289.645 168.586 290.928 162.464 291.683C153.994 292.727 145.014 293.01 136.498 292.519C132.673 292.309 128.829 292.109 125.015 291.76C121.832 291.469 118.204 290.482 115.056 290.947C113.783 291.135 112.689 291.673 111.732 292.53C108.399 295.508 103.452 306.288 101.378 310.775L144.965 346.352C148.185 349.033 151.623 351.526 154.577 354.503C157.768 357.718 160.543 361.389 163.778 364.536C167.847 358.539 172.32 352.77 176.265 346.697C185.292 333.819 197.66 319.604 205.106 306.126L204.788 305.333C204.141 304.998 203.844 304.756 203.332 304.264C195.643 299.878 187.741 294.774 180.814 289.274Z" fill="#FECB2F"/>
<path d="M193.911 308.837C191.921 306.701 189.233 304.628 187.553 302.752C186.066 301.093 184.766 298.563 182.914 297.324C182.055 296.749 180.99 296.541 179.978 296.402C176.188 295.879 160.025 295.634 157.485 297.553L157.2 297.341L157.388 297.187L157.739 297.667C159.973 298.447 177.156 297.81 181.233 297.829C184.895 301.52 188.342 305.367 192.087 308.995C186.977 314.261 185.134 320.354 181.461 326.464C177.166 333.609 172.563 340.294 167.763 347.094C160.171 347.188 152.546 346.772 144.966 346.352C148.186 349.033 151.625 351.526 154.579 354.503C157.77 357.718 160.545 361.389 163.78 364.536C167.849 358.538 172.322 352.77 176.267 346.697C174.034 346.751 171.802 346.935 169.574 347.083C174.943 340.884 179.757 332.935 183.643 325.696C185.594 322.06 187.196 318.183 189.42 314.704C190.739 312.639 192.409 310.776 193.911 308.837Z" fill="#957F22"/>
<path d="M155.534 299.103C155.001 299.091 154.468 299.083 153.935 299.079C152.292 299.065 151.248 298.949 150.01 300.164C149.584 301.811 150.122 303.617 150.414 305.267C148.39 305.777 146.265 306.067 144.207 306.434C145.463 312.371 146.993 318.25 147.913 324.258C148.615 328.84 148.762 333.747 149.664 338.25C149.848 339.167 149.969 339.336 150.627 339.952C152.382 340.362 154.246 339.743 155.98 339.378C160.131 338.394 164.191 337.706 168.414 337.116C170.036 333.626 166.731 323.654 165.939 319.67C165.094 315.422 164.506 311.129 163.644 306.879L156.745 305.772C156.415 303.522 156.052 301.319 155.534 299.103Z" fill="#123700"/>
<path d="M153.029 300.114C152.43 300.262 152.063 300.405 151.523 300.675C150.978 302.372 151.5 304.378 151.693 306.138C149.554 306.585 147.464 306.868 145.288 307.067C146.843 312.617 147.98 318.723 148.825 324.427C149.444 328.606 149.547 333.073 151.107 337.036C153.004 337.233 155.492 336.424 157.386 336.029C160.668 335.069 163.61 334.667 167.032 334.634C165.761 325.629 164.225 316.66 162.904 307.662C160.461 307.781 158.021 307.446 155.594 307.201C155.305 305.541 155.191 303.717 154.797 302.102C154.5 300.884 154.085 300.722 153.029 300.114Z" fill="#A3FE6F"/>
<path d="M227.443 221.299C227.49 220.959 227.529 220.619 227.559 220.277C227.59 219.935 227.612 219.593 227.627 219.25C227.641 218.908 227.647 218.565 227.645 218.222C227.642 217.879 227.632 217.536 227.613 217.193C227.595 216.851 227.568 216.509 227.532 216.168C227.497 215.827 227.454 215.487 227.402 215.148C227.351 214.809 227.291 214.471 227.223 214.135C227.155 213.798 227.08 213.464 226.996 213.131C226.912 212.799 226.82 212.468 226.721 212.14C226.621 211.812 226.513 211.486 226.398 211.163C226.283 210.84 226.16 210.52 226.029 210.203C225.898 209.886 225.76 209.572 225.614 209.262C225.468 208.951 225.315 208.644 225.154 208.341C224.994 208.038 224.826 207.739 224.651 207.444C224.476 207.149 224.294 206.858 224.105 206.572C223.916 206.285 223.72 206.004 223.518 205.727C220.997 202.323 217.041 200.637 212.928 200.135C200.045 198.561 187.877 205.107 176.432 210.01C169.731 212.881 162.674 215.816 155.684 217.881C143.31 221.539 121.425 219.958 107.886 220.293C101.034 220.462 94.3309 221.283 87.5968 222.493C83.5357 223.222 78.942 223.931 75.6252 226.581C73.0894 228.606 71.5902 231.892 71.3022 235.088C70.9986 238.456 72.1272 241.333 73.4662 244.353C73.6822 244.68 73.8976 245.009 74.126 245.328C80.3809 254.07 90.926 255.545 100.757 257.094C105.969 257.915 111.308 258.156 116.566 258.599C137.211 260.338 158.93 259.683 179.099 254.492C186.256 252.65 193.263 250.101 200.174 247.499C205.794 245.382 212.468 243.525 217.291 239.836C223.221 235.301 226.568 228.608 227.443 221.299Z" fill="black"/>
<path d="M210.447 204.637C193.899 204.088 171.843 218.965 154.569 223.017C147.598 224.652 140.28 224.603 133.156 224.758C118.338 225.079 103.799 224.488 89.1235 227.025C85.4728 227.656 81.5787 228.224 78.3867 230.207C77.2823 232.055 76.3971 234.037 75.4603 235.974C76.2518 239.267 77.507 241.857 79.2011 244.768C83.9413 247.129 87.1358 249.668 92.5496 250.662C114.658 254.541 134.362 255.829 156.745 253.416C163.754 252.661 170.593 251.778 177.447 250.069C184.254 248.371 190.997 245.97 197.554 243.481C202.685 241.534 208.823 239.923 213.39 236.85C218.242 233.585 221.696 227.982 222.647 222.237C223.428 217.524 222.604 212.191 219.626 208.33C217.463 205.525 213.738 204.989 210.447 204.637Z" fill="#D95342"/>
<path d="M207.396 216.83C205.364 215.489 203.616 214.578 201.121 215.039C197.426 215.722 194.554 218.866 191.239 220.464C188.467 221.801 185.481 222.922 182.605 224.018C167.973 229.594 140.764 232.976 124.938 233.071C116.688 232.773 108.518 233.456 100.28 233.482C96.6212 233.494 92.7011 232.656 89.1229 232.863C88.4426 232.902 87.9391 233.096 87.3593 233.429C104.607 235.874 122.692 237.535 139.931 233.805C148.605 233.673 165.426 231.137 173.897 228.764C178.28 227.535 182.506 225.778 186.834 224.373C190.504 223.182 194.302 222.31 197.941 221.043C201.08 219.951 203.798 217.951 206.997 216.948C207.129 216.907 207.263 216.87 207.396 216.83Z" fill="#83332F"/>
<path d="M205.384 222.928C199.749 225.68 194.025 227.082 188.115 229.016C182.145 230.971 176.461 233.264 170.297 234.596C162.111 236.365 153.728 237.132 145.416 238.066C126.969 240.137 112.703 241.601 94.0984 239.171C91.285 238.804 87.9527 238.619 85.2828 237.688C84.8278 237.53 84.7346 237.47 84.2653 237.253C84.932 239.065 85.6242 240.688 87.2506 241.843C89.1831 243.215 91.6972 243.799 94.0226 243.999C101.041 244.602 108.418 243.461 115.467 243.282C122.697 243.098 129.948 243.676 137.161 242.989C147.46 242.008 158.158 240.456 168.311 238.433C176.799 236.742 200.599 230.064 205.384 222.928Z" fill="#83332F"/>
<path d="M207.396 216.83C207.264 216.87 207.13 216.907 206.998 216.948C203.799 217.951 201.081 219.951 197.941 221.043C194.303 222.31 190.505 223.182 186.835 224.373C182.507 225.778 178.281 227.535 173.898 228.764C165.427 231.137 148.606 233.673 139.932 233.805C122.693 237.535 104.608 235.874 87.3602 233.429C86.1844 233.437 85.5519 233.473 84.5208 234.14C83.9273 235.357 83.8739 235.932 84.2638 237.252C84.7331 237.47 84.8262 237.53 85.2812 237.688C87.9512 238.619 91.2835 238.804 94.0968 239.171C112.701 241.601 126.967 240.137 145.414 238.066C153.727 237.132 162.109 236.365 170.295 234.596C176.46 233.264 182.143 230.97 188.113 229.016C194.023 227.082 199.748 225.68 205.382 222.928C206.999 221.847 208.691 221.004 209.182 219C208.82 217.854 208.321 217.501 207.396 216.83Z" fill="black"/>
<defs>
<linearGradient id="paint0_linear_12_662" x1="112.893" y1="28.9513" x2="127.974" y2="62.0775" gradientUnits="userSpaceOnUse">
<stop stop-color="#5D864E"/>
<stop offset="1" stop-color="#5F9554"/>
</linearGradient>
<linearGradient id="paint1_linear_12_662" x1="288.232" y1="45.6897" x2="252.986" y2="75.252" gradientUnits="userSpaceOnUse">
<stop stop-color="#5D864E"/>
<stop offset="1" stop-color="#5F9554"/>
</linearGradient>
<linearGradient id="paint2_linear_12_662" x1="226.643" y1="394.505" x2="189.172" y2="46.0529" gradientUnits="userSpaceOnUse">
<stop stop-color="#70AD5F"/>
<stop offset="1" stop-color="#A3E57E"/>
</linearGradient>
<linearGradient id="paint3_linear_12_662" x1="298.73" y1="108.479" x2="254.929" y2="110.956" gradientUnits="userSpaceOnUse">
<stop stop-color="#4A744A"/>
<stop offset="1" stop-color="#5F9554"/>
</linearGradient>
</defs>
</svg>
