<svg width="985" height="516" viewBox="0 0 985 516" fill="none" xmlns="http://www.w3.org/2000/svg">
<path d="M9.64923 52.8224L5.06026 53.0381L5.10837 57.6318L9.79861 505.5L9.85036 510.442L14.7869 510.21L514.874 486.707L519.463 486.491L519.415 481.897L514.725 34.0288L514.673 29.0871L509.736 29.3191L9.64923 52.8224Z" fill="#88DDFE" stroke="black" stroke-width="9.52964"/>
<mask id="mask0_0_577" style="mask-type:alpha" maskUnits="userSpaceOnUse" x="9" y="34" width="506" height="472">
<path d="M9.87304 57.5819L509.96 34.0787L514.651 481.947L14.5633 505.45L9.87304 57.5819Z" fill="#88DDFE"/>
</mask>
<g mask="url(#mask0_0_577)">
<mask id="path-3-outside-1_0_577" maskUnits="userSpaceOnUse" x="-53.447" y="210.054" width="197.078" height="106.047" fill="black">
<rect fill="white" x="-53.447" y="210.054" width="197.078" height="106.047"/>
<path fill-rule="evenodd" clip-rule="evenodd" d="M55.4257 301.885C63.848 307.636 72.9499 310.438 80.1035 308.401C88.3807 306.044 93.8287 302.805 97.2101 298.79C98.6914 298.743 100.159 298.52 101.596 298.111C109.604 295.83 116.222 286.504 118.963 275.744C121.732 277.143 124.567 277.767 127.069 277.296C134.938 275.812 139.828 265.594 137.461 253.728C135.093 241.863 123.833 233.551 115.965 235.035C113.802 235.442 111.896 236.556 110.319 238.203C103.05 228.858 93.3112 223.963 84.6032 226.442C83.0932 226.872 81.6194 227.533 80.2028 228.396C70.5141 218.423 58.3051 213.503 47.0032 217.205C39.0948 219.457 33.5372 226.785 30.9608 236.79C26.3833 235.637 21.912 235.621 18.0636 236.892C10.9952 239.226 6.25999 245.944 4.4506 254.738C2.33805 254.571 0.210686 254.765 -1.87282 255.36C-5.82758 256.491 -9.10868 258.92 -11.5345 262.203C-15.3412 259.459 -20.0302 257.863 -25.0872 257.916C-37.6536 258.047 -47.7342 268.314 -47.603 280.847C-47.4717 293.381 -37.1783 303.434 -24.6119 303.303C-18.8453 303.242 -13.6021 301.047 -9.629 297.479C-3.64643 305.393 5.42578 309.476 13.7913 307.086C17.7558 305.953 21.0433 303.514 23.4709 300.219C31.4694 306.513 40.1319 309.725 47.5304 307.282C50.6264 306.259 53.2748 304.396 55.4257 301.885Z"/>
</mask>
<path fill-rule="evenodd" clip-rule="evenodd" d="M55.4257 301.885C63.848 307.636 72.9499 310.438 80.1035 308.401C88.3807 306.044 93.8287 302.805 97.2101 298.79C98.6914 298.743 100.159 298.52 101.596 298.111C109.604 295.83 116.222 286.504 118.963 275.744C121.732 277.143 124.567 277.767 127.069 277.296C134.938 275.812 139.828 265.594 137.461 253.728C135.093 241.863 123.833 233.551 115.965 235.035C113.802 235.442 111.896 236.556 110.319 238.203C103.05 228.858 93.3112 223.963 84.6032 226.442C83.0932 226.872 81.6194 227.533 80.2028 228.396C70.5141 218.423 58.3051 213.503 47.0032 217.205C39.0948 219.457 33.5372 226.785 30.9608 236.79C26.3833 235.637 21.912 235.621 18.0636 236.892C10.9952 239.226 6.25999 245.944 4.4506 254.738C2.33805 254.571 0.210686 254.765 -1.87282 255.36C-5.82758 256.491 -9.10868 258.92 -11.5345 262.203C-15.3412 259.459 -20.0302 257.863 -25.0872 257.916C-37.6536 258.047 -47.7342 268.314 -47.603 280.847C-47.4717 293.381 -37.1783 303.434 -24.6119 303.303C-18.8453 303.242 -13.6021 301.047 -9.629 297.479C-3.64643 305.393 5.42578 309.476 13.7913 307.086C17.7558 305.953 21.0433 303.514 23.4709 300.219C31.4694 306.513 40.1319 309.725 47.5304 307.282C50.6264 306.259 53.2748 304.396 55.4257 301.885Z" fill="white"/>
<path d="M80.1035 308.401L81.4084 312.984L80.1035 308.401ZM55.4257 301.885L51.8073 298.785L54.5858 295.542L58.1125 297.95L55.4257 301.885ZM97.2101 298.79L93.5656 295.721L94.9345 294.095L97.0586 294.028L97.2101 298.79ZM101.596 298.111L102.901 302.693L102.901 302.693L101.596 298.111ZM118.963 275.744L114.346 274.567L115.812 268.812L121.112 271.491L118.963 275.744ZM127.069 277.296L127.952 281.978L127.952 281.978L127.069 277.296ZM137.461 253.728L132.788 254.661L132.788 254.661L137.461 253.728ZM115.965 235.035L116.847 239.717L115.965 235.035ZM110.319 238.203L113.761 241.498L109.946 245.483L106.558 241.128L110.319 238.203ZM84.6032 226.442L83.2983 221.86L83.2983 221.86L84.6032 226.442ZM80.2028 228.396L82.681 232.465L79.4342 234.442L76.7852 231.716L80.2028 228.396ZM47.0032 217.205L48.4865 221.734L48.3979 221.763L48.3081 221.788L47.0032 217.205ZM30.9608 236.79L35.575 237.979L34.393 242.569L29.7966 241.411L30.9608 236.79ZM18.0636 236.892L19.5576 241.416L19.5576 241.416L18.0636 236.892ZM4.4506 254.738L9.11766 255.698L8.26973 259.82L4.07527 259.488L4.4506 254.738ZM-1.87282 255.36L-0.563713 259.942L-1.87282 255.36ZM-11.5345 262.203L-7.70235 265.035L-10.5007 268.822L-14.3206 266.068L-11.5345 262.203ZM-9.629 297.479L-12.813 293.934L-8.95504 290.469L-5.82798 294.606L-9.629 297.479ZM13.7913 307.086L15.1004 311.667L15.1004 311.667L13.7913 307.086ZM23.4709 300.219L19.6346 297.393L22.552 293.433L26.4175 296.474L23.4709 300.219ZM47.5304 307.282L46.0364 302.757L47.5304 307.282ZM81.4084 312.984C72.249 315.592 61.6308 311.892 52.7389 305.821L58.1125 297.95C66.0652 303.38 73.6508 305.284 78.7985 303.819L81.4084 312.984ZM100.855 301.86C96.643 306.861 90.2063 310.479 81.4084 312.984L78.7985 303.819C86.5551 301.61 91.0144 298.75 93.5656 295.721L100.855 301.86ZM102.901 302.693C101.079 303.212 99.2233 303.493 97.3617 303.553L97.0586 294.028C98.1596 293.993 99.2391 293.827 100.291 293.528L102.901 302.693ZM123.58 276.92C122.072 282.838 119.48 288.455 116.054 292.982C112.653 297.477 108.202 301.184 102.901 302.693L100.291 293.528C102.998 292.757 105.86 290.661 108.455 287.232C111.025 283.836 113.112 279.409 114.346 274.567L123.58 276.92ZM121.112 271.491C123.304 272.599 125.05 272.827 126.187 272.613L127.952 281.978C124.083 282.707 120.159 281.687 116.813 279.996L121.112 271.491ZM126.187 272.613C128.207 272.232 130.311 270.649 131.762 267.442C133.208 264.246 133.804 259.755 132.788 254.661L142.133 252.796C143.484 259.567 142.82 266.118 140.445 271.369C138.075 276.608 133.8 280.876 127.952 281.978L126.187 272.613ZM132.788 254.661C131.842 249.922 129.089 245.81 125.744 243.052C122.274 240.191 118.891 239.332 116.847 239.717L115.082 230.352C120.907 229.254 127.088 231.809 131.806 235.699C136.65 239.692 140.711 245.669 142.133 252.796L132.788 254.661ZM116.847 239.717C115.783 239.918 114.741 240.474 113.761 241.498L106.878 234.907C109.051 232.637 111.821 230.967 115.082 230.352L116.847 239.717ZM83.2983 221.86C94.6969 218.614 106.248 225.209 114.08 235.277L106.558 241.128C99.8517 232.507 91.9255 229.311 85.9081 231.025L83.2983 221.86ZM77.7245 224.326C79.4709 223.263 81.3367 222.418 83.2983 221.86L85.9081 231.025C84.8496 231.326 83.7678 231.803 82.681 232.465L77.7245 224.326ZM45.5199 212.677C59.2014 208.196 73.2214 214.372 83.6204 225.075L76.7852 231.716C67.8067 222.474 57.4088 218.811 48.4865 221.734L45.5199 212.677ZM26.3465 235.602C29.1544 224.698 35.5414 215.515 45.6983 212.623L48.3081 221.788C42.6482 223.4 37.92 228.872 35.575 237.979L26.3465 235.602ZM16.5696 232.367C21.4622 230.752 26.8808 230.849 32.1249 232.17L29.7966 241.411C25.8858 240.425 22.3619 240.49 19.5576 241.416L16.5696 232.367ZM-0.216468 253.778C1.80033 243.976 7.32866 235.419 16.5696 232.367L19.5576 241.416C14.6618 243.033 10.7196 247.912 9.11766 255.698L-0.216468 253.778ZM-3.18193 250.779C-0.530147 250.021 2.1689 249.778 4.82593 249.988L4.07527 259.488C2.50719 259.364 0.95152 259.509 -0.563713 259.942L-3.18193 250.779ZM-15.3667 259.371C-12.3781 255.327 -8.24392 252.225 -3.18193 250.779L-0.563713 259.942C-3.41123 260.756 -5.83923 262.513 -7.70235 265.035L-15.3667 259.371ZM-25.1371 253.151C-19.03 253.087 -13.353 255.019 -8.74844 258.338L-14.3206 266.068C-17.3294 263.9 -21.0304 262.638 -25.0373 262.68L-25.1371 253.151ZM-52.3675 280.897C-52.5265 265.721 -40.323 253.31 -25.1371 253.151L-25.0373 262.68C-34.9841 262.784 -42.942 270.907 -42.8384 280.797L-52.3675 280.897ZM-24.562 308.067C-39.7479 308.226 -52.2086 296.074 -52.3675 280.897L-42.8384 280.797C-42.7348 290.688 -34.6086 298.642 -24.6618 298.538L-24.562 308.067ZM-6.44502 301.024C-11.2478 305.338 -17.5948 307.994 -24.562 308.067L-24.6618 298.538C-20.0958 298.49 -15.9564 296.757 -12.813 293.934L-6.44502 301.024ZM15.1004 311.667C4.31009 314.75 -6.63343 309.343 -13.43 300.352L-5.82798 294.606C-0.659433 301.443 6.54148 304.202 12.4822 302.504L15.1004 311.667ZM27.3072 303.045C24.3169 307.104 20.175 310.217 15.1004 311.667L12.4822 302.504C15.3365 301.688 17.7697 299.924 19.6346 297.393L27.3072 303.045ZM49.0244 311.806C39.3266 315.009 28.9524 310.596 20.5243 303.963L26.4175 296.474C33.9864 302.431 40.9371 304.441 46.0364 302.757L49.0244 311.806ZM59.0441 304.986C56.3822 308.093 53.0207 310.487 49.0244 311.806L46.0364 302.757C48.2322 302.032 50.1674 300.7 51.8073 298.785L59.0441 304.986Z" fill="black" mask="url(#path-3-outside-1_0_577)"/>
<mask id="path-5-outside-2_0_577" maskUnits="userSpaceOnUse" x="233.853" y="30.9888" width="230.368" height="120.552" fill="black">
<rect fill="white" x="233.853" y="30.9888" width="230.368" height="120.552"/>
<path fill-rule="evenodd" clip-rule="evenodd" d="M339.665 133.288C330.342 139.965 320.037 143.573 311.653 141.929C301.953 140.027 295.455 136.991 291.287 132.989C289.576 133.044 287.87 132.913 286.186 132.582C276.801 130.742 268.545 121.356 264.661 110.18C261.563 111.856 258.337 112.717 255.42 112.396C246.249 111.388 239.924 100.937 241.856 88.2287C243.788 75.5204 256.21 65.9362 265.381 66.9443C267.903 67.2214 270.174 68.2626 272.103 69.8909C279.855 59.498 290.754 53.6315 300.959 55.633C302.728 55.9799 304.471 56.573 306.162 57.3834C316.661 46.155 330.405 40.0876 343.684 43.1968C352.952 45.0143 359.851 52.3623 363.494 62.7524C368.693 61.2084 373.846 60.8736 378.368 61.9428C386.674 63.9069 392.584 70.6701 395.261 79.8353C397.686 79.5083 400.153 79.5617 402.596 80.0429C407.229 80.9555 411.173 83.2878 414.19 86.5825C418.393 83.4142 423.689 81.395 429.52 81.0915C444.016 80.3371 456.327 90.471 457.018 103.726C457.709 116.982 446.518 128.339 432.022 129.093C425.373 129.439 419.184 127.494 414.365 124.008C407.999 132.794 397.817 137.752 388.014 135.821C383.367 134.906 379.412 132.562 376.392 129.252C367.594 136.474 357.822 140.485 349.128 138.429C345.491 137.569 342.313 135.788 339.665 133.288Z"/>
</mask>
<path fill-rule="evenodd" clip-rule="evenodd" d="M339.665 133.288C330.342 139.965 320.037 143.573 311.653 141.929C301.953 140.027 295.455 136.991 291.287 132.989C289.576 133.044 287.87 132.913 286.186 132.582C276.801 130.742 268.545 121.356 264.661 110.18C261.563 111.856 258.337 112.717 255.42 112.396C246.249 111.388 239.924 100.937 241.856 88.2287C243.788 75.5204 256.21 65.9362 265.381 66.9443C267.903 67.2214 270.174 68.2626 272.103 69.8909C279.855 59.498 290.754 53.6315 300.959 55.633C302.728 55.9799 304.471 56.573 306.162 57.3834C316.661 46.155 330.405 40.0876 343.684 43.1968C352.952 45.0143 359.851 52.3623 363.494 62.7524C368.693 61.2084 373.846 60.8736 378.368 61.9428C386.674 63.9069 392.584 70.6701 395.261 79.8353C397.686 79.5083 400.153 79.5617 402.596 80.0429C407.229 80.9555 411.173 83.2878 414.19 86.5825C418.393 83.4142 423.689 81.395 429.52 81.0915C444.016 80.3371 456.327 90.471 457.018 103.726C457.709 116.982 446.518 128.339 432.022 129.093C425.373 129.439 419.184 127.494 414.365 124.008C407.999 132.794 397.817 137.752 388.014 135.821C383.367 134.906 379.412 132.562 376.392 129.252C367.594 136.474 357.822 140.485 349.128 138.429C345.491 137.569 342.313 135.788 339.665 133.288Z" fill="white"/>
<path d="M311.653 141.929L310.736 146.605L311.653 141.929ZM339.665 133.288L342.935 129.823L340.081 127.13L336.89 129.414L339.665 133.288ZM291.287 132.989L294.587 129.552L293.139 128.162L291.132 128.227L291.287 132.989ZM286.186 132.582L285.269 137.258L285.269 137.258L286.186 132.582ZM264.661 110.18L269.162 108.616L267.323 103.322L262.394 105.989L264.661 110.18ZM255.42 112.396L255.94 107.66L255.94 107.66L255.42 112.396ZM241.856 88.2287L237.145 87.5122L241.856 88.2287ZM265.381 66.9443L264.861 71.6806L265.381 66.9443ZM272.103 69.8909L269.029 73.5315L272.896 76.7966L275.922 72.74L272.103 69.8909ZM300.959 55.633L301.876 50.9572L300.959 55.633ZM306.162 57.3834L304.102 61.68L307.254 63.1913L309.642 60.6378L306.162 57.3834ZM343.684 43.1968L342.598 47.8361L342.682 47.8558L342.767 47.8725L343.684 43.1968ZM363.494 62.7524L358.998 64.3288L360.5 68.6123L364.851 67.3201L363.494 62.7524ZM378.368 61.9428L377.272 66.5798L378.368 61.9428ZM395.261 79.8353L390.687 81.1711L391.836 85.1051L395.898 84.5574L395.261 79.8353ZM402.596 80.0429L403.516 75.3679L402.596 80.0429ZM414.19 86.5825L410.675 89.8001L413.6 92.9939L417.058 90.3874L414.19 86.5825ZM429.52 81.0915L429.768 85.8499L429.52 81.0915ZM457.018 103.726L452.259 103.974L452.259 103.974L457.018 103.726ZM432.022 129.093L431.775 124.335L432.022 129.093ZM414.365 124.008L417.157 120.148L413.299 117.357L410.506 121.213L414.365 124.008ZM388.014 135.821L388.934 131.146L388.014 135.821ZM376.392 129.252L379.912 126.041L376.864 122.7L373.369 125.569L376.392 129.252ZM349.128 138.429L350.224 133.792L350.224 133.792L349.128 138.429ZM310.736 146.605C320.984 148.614 332.644 144.176 342.439 137.162L336.89 129.414C328.039 135.753 319.09 138.532 312.57 137.253L310.736 146.605ZM287.986 136.426C293.071 141.308 300.569 144.611 310.736 146.605L312.57 137.253C303.337 135.442 297.838 132.675 294.587 129.552L287.986 136.426ZM285.269 137.258C287.317 137.66 289.383 137.818 291.441 137.751L291.132 128.227C289.77 128.271 288.423 128.166 287.103 127.907L285.269 137.258ZM260.161 111.743C264.331 123.746 273.548 134.96 285.269 137.258L287.103 127.907C280.053 126.524 272.759 118.967 269.162 108.616L260.161 111.743ZM262.394 105.989C259.84 107.371 257.596 107.842 255.94 107.66L254.899 117.133C259.077 117.592 263.287 116.341 266.929 114.37L262.394 105.989ZM255.94 107.66C250.6 107.073 244.846 100.263 246.567 88.9451L237.145 87.5122C235.002 101.611 241.897 115.703 254.899 117.133L255.94 107.66ZM246.567 88.9451C247.334 83.8997 250.23 79.3026 254.009 76.0578C257.88 72.7329 262.013 71.3675 264.861 71.6806L265.902 62.208C259.579 61.513 252.915 64.4356 247.8 68.8279C242.592 73.3002 238.311 79.8493 237.145 87.5122L246.567 88.9451ZM264.861 71.6806C266.363 71.8457 267.761 72.4613 269.029 73.5315L275.176 66.2503C272.587 64.0639 269.442 62.5971 265.902 62.208L264.861 71.6806ZM301.876 50.9572C289.192 48.4697 276.645 55.8316 268.283 67.0419L275.922 72.74C283.065 63.1644 292.315 58.7934 300.043 60.3087L301.876 50.9572ZM308.221 53.0869C306.198 52.1167 304.072 51.3879 301.876 50.9572L300.043 60.3087C301.385 60.5719 302.745 61.0294 304.102 61.68L308.221 53.0869ZM344.77 38.5574C329.289 34.9325 313.907 42.124 302.681 54.129L309.642 60.6378C319.415 50.1859 331.522 45.2428 342.598 47.8361L344.77 38.5574ZM367.991 61.1761C363.983 49.7459 356.033 40.7629 344.601 38.521L342.767 47.8725C349.871 49.2657 355.719 54.9787 358.998 64.3288L367.991 61.1761ZM379.464 57.3059C373.958 56.0039 367.943 56.4608 362.137 58.1848L364.851 67.3201C369.444 65.956 373.734 65.7433 377.272 66.5798L379.464 57.3059ZM399.835 78.4996C396.818 68.1723 389.877 59.7683 379.464 57.3059L377.272 66.5798C383.47 68.0455 388.35 73.1678 390.687 81.1711L399.835 78.4996ZM403.516 75.3679C400.538 74.7812 397.544 74.7195 394.624 75.1132L395.898 84.5574C397.828 84.2971 399.768 84.3422 401.675 84.7179L403.516 75.3679ZM417.704 83.3648C414.031 79.3542 409.192 76.4858 403.516 75.3679L401.675 84.7179C405.266 85.4252 408.314 87.2214 410.675 89.8001L417.704 83.3648ZM429.272 76.3332C422.491 76.6861 416.282 79.0381 411.321 82.7775L417.058 90.3874C420.503 87.7903 424.887 86.1039 429.768 85.8499L429.272 76.3332ZM461.776 103.478C460.928 87.2036 445.986 75.4632 429.272 76.3332L429.768 85.8499C442.045 85.2109 451.726 93.7383 452.259 103.974L461.776 103.478ZM432.27 133.852C448.984 132.982 462.625 119.753 461.776 103.478L452.259 103.974C452.793 114.21 444.052 123.696 431.775 124.335L432.27 133.852ZM411.572 127.869C417.275 131.994 424.538 134.254 432.27 133.852L431.775 124.335C426.209 124.625 421.093 122.994 417.157 120.148L411.572 127.869ZM387.093 140.496C399.113 142.864 411.025 136.74 418.223 126.804L410.506 121.213C404.974 128.849 396.52 132.641 388.934 131.146L387.093 140.496ZM372.872 132.463C376.548 136.493 381.4 139.375 387.093 140.496L388.934 131.146C385.333 130.437 382.276 128.632 379.912 126.041L372.872 132.463ZM348.032 143.066C358.87 145.629 370.167 140.526 379.415 132.935L373.369 125.569C365.021 132.421 356.775 135.341 350.224 133.792L348.032 143.066ZM336.394 136.753C339.62 139.798 343.538 142.003 348.032 143.066L350.224 133.792C347.443 133.134 345.006 131.778 342.935 129.823L336.394 136.753Z" fill="black" mask="url(#path-5-outside-2_0_577)"/>
<mask id="path-7-outside-3_0_577" maskUnits="userSpaceOnUse" x="453.402" y="131.082" width="214.694" height="128.497" fill="black">
<rect fill="white" x="453.402" y="131.082" width="214.694" height="128.497"/>
<path fill-rule="evenodd" clip-rule="evenodd" d="M570.263 242.439C579.052 249.7 588.715 253.467 596.516 251.361C605.542 248.925 611.564 245.304 615.4 240.66C616.999 240.672 618.591 240.473 620.16 240.049C628.893 237.692 636.47 226.848 639.944 214.112C642.856 215.911 645.877 216.787 648.594 216.338C657.138 214.927 662.899 202.936 660.926 188.643C658.952 174.35 647.232 163.897 638.688 165.308C636.341 165.696 634.236 166.939 632.459 168.834C625.085 157.33 614.838 151.031 605.343 153.595C603.695 154.04 602.076 154.762 600.508 155.729C590.56 143.36 577.652 136.917 565.303 140.823C556.679 143.151 550.34 151.654 547.08 163.496C542.209 161.907 537.396 161.683 533.192 163.025C525.468 165.49 520.044 173.303 517.669 183.732C515.402 183.435 513.102 183.569 510.83 184.185C506.518 185.354 502.868 188.106 500.097 191.918C496.132 188.464 491.162 186.34 485.716 186.171C472.18 185.751 460.828 197.56 460.361 212.549C459.895 227.538 470.489 240.03 484.025 240.45C490.235 240.643 495.986 238.262 500.436 234.18C506.494 243.914 516.063 249.211 525.185 246.738C529.508 245.566 533.166 242.802 535.94 238.975C544.246 246.867 553.417 251.105 561.502 248.525C564.884 247.445 567.826 245.34 570.263 242.439Z"/>
</mask>
<path fill-rule="evenodd" clip-rule="evenodd" d="M570.263 242.439C579.052 249.7 588.715 253.467 596.516 251.361C605.542 248.925 611.564 245.304 615.4 240.66C616.999 240.672 618.591 240.473 620.16 240.049C628.893 237.692 636.47 226.848 639.944 214.112C642.856 215.911 645.877 216.787 648.594 216.338C657.138 214.927 662.899 202.936 660.926 188.643C658.952 174.35 647.232 163.897 638.688 165.308C636.341 165.696 634.236 166.939 632.459 168.834C625.085 157.33 614.838 151.031 605.343 153.595C603.695 154.04 602.076 154.762 600.508 155.729C590.56 143.36 577.652 136.917 565.303 140.823C556.679 143.151 550.34 151.654 547.08 163.496C542.209 161.907 537.396 161.683 533.192 163.025C525.468 165.49 520.044 173.303 517.669 183.732C515.402 183.435 513.102 183.569 510.83 184.185C506.518 185.354 502.868 188.106 500.097 191.918C496.132 188.464 491.162 186.34 485.716 186.171C472.18 185.751 460.828 197.56 460.361 212.549C459.895 227.538 470.489 240.03 484.025 240.45C490.235 240.643 495.986 238.262 500.436 234.18C506.494 243.914 516.063 249.211 525.185 246.738C529.508 245.566 533.166 242.802 535.94 238.975C544.246 246.867 553.417 251.105 561.502 248.525C564.884 247.445 567.826 245.34 570.263 242.439Z" fill="white"/>
<path d="M596.516 251.361L595.274 246.761L595.274 246.761L596.516 251.361ZM570.263 242.439L566.615 239.374L569.655 235.755L573.298 238.765L570.263 242.439ZM615.4 240.66L611.726 237.626L613.17 235.878L615.437 235.895L615.4 240.66ZM620.16 240.049L621.402 244.649L621.402 244.649L620.16 240.049ZM639.944 214.112L635.347 212.858L637.025 206.708L642.449 210.058L639.944 214.112ZM648.594 216.338L649.37 221.039L649.37 221.039L648.594 216.338ZM660.926 188.643L665.646 187.991L660.926 188.643ZM638.688 165.308L637.912 160.607L637.912 160.607L638.688 165.308ZM632.459 168.834L635.934 172.093L631.748 176.556L628.447 171.405L632.459 168.834ZM605.343 153.595L606.584 158.195L605.343 153.595ZM600.508 155.729L603.009 159.785L599.43 161.992L596.795 158.715L600.508 155.729ZM565.303 140.823L566.74 145.366L566.643 145.397L566.545 145.423L565.303 140.823ZM547.08 163.496L551.674 164.76L550.349 169.574L545.603 168.026L547.08 163.496ZM533.192 163.025L534.64 167.564L533.192 163.025ZM517.669 183.732L522.314 184.79L521.351 189.02L517.05 188.457L517.669 183.732ZM510.83 184.185L512.076 188.784L510.83 184.185ZM500.097 191.918L503.951 194.72L500.891 198.929L496.967 195.511L500.097 191.918ZM485.716 186.171L485.864 181.409L485.716 186.171ZM460.361 212.549L455.599 212.401L460.361 212.549ZM484.025 240.45L484.173 235.688L484.025 240.45ZM500.436 234.18L497.216 230.668L501.448 226.786L504.482 231.662L500.436 234.18ZM525.185 246.738L523.939 242.139L525.185 246.738ZM535.94 238.975L532.082 236.179L535.276 231.771L539.222 235.521L535.94 238.975ZM561.502 248.525L560.053 243.985L561.502 248.525ZM597.758 255.961C587.702 258.676 576.429 253.713 567.228 246.112L573.298 238.765C581.675 245.686 589.728 248.259 595.274 246.761L597.758 255.961ZM619.074 243.694C614.413 249.337 607.388 253.361 597.758 255.961L595.274 246.761C603.695 244.488 608.716 241.271 611.726 237.626L619.074 243.694ZM621.402 244.649C619.409 245.188 617.386 245.44 615.363 245.425L615.437 235.895C616.612 235.904 617.774 235.758 618.919 235.449L621.402 244.649ZM644.541 215.366C642.672 222.217 639.674 228.672 635.847 233.816C632.063 238.904 627.172 243.092 621.402 244.649L618.919 235.449C621.881 234.649 625.145 232.237 628.201 228.129C631.214 224.078 633.742 218.743 635.347 212.858L644.541 215.366ZM642.449 210.058C644.788 211.504 646.633 211.832 647.817 211.637L649.37 221.039C645.121 221.741 640.924 220.318 637.44 218.166L642.449 210.058ZM647.817 211.637C649.99 211.278 652.504 209.435 654.368 205.345C656.201 201.325 657.088 195.685 656.206 189.295L665.646 187.991C666.737 195.894 665.73 203.396 663.039 209.298C660.381 215.129 655.742 219.986 649.37 221.039L647.817 211.637ZM656.206 189.295C655.369 183.234 652.454 177.991 648.91 174.464C645.213 170.785 641.605 169.656 639.465 170.009L637.912 160.607C644.315 159.549 650.84 162.941 655.632 167.709C660.577 172.629 664.509 179.759 665.646 187.991L656.206 189.295ZM639.465 170.009C638.335 170.196 637.133 170.814 635.934 172.093L628.983 165.574C631.338 163.063 634.347 161.196 637.912 160.607L639.465 170.009ZM604.101 148.995C616.648 145.607 628.698 154.137 636.47 166.262L628.447 171.405C621.473 160.524 613.028 156.455 606.584 158.195L604.101 148.995ZM598.007 151.673C599.918 150.495 601.958 149.573 604.101 148.995L606.584 158.195C605.432 158.506 604.233 159.03 603.009 159.785L598.007 151.673ZM563.866 136.28C578.915 131.52 593.693 139.653 604.221 152.743L596.795 158.715C587.427 147.068 576.39 142.313 566.74 145.366L563.866 136.28ZM542.486 162.231C545.936 149.701 553.048 139.196 564.061 136.223L566.545 145.423C560.311 147.106 554.745 153.608 551.674 164.76L542.486 162.231ZM531.743 158.485C537.105 156.774 542.963 157.142 548.558 158.966L545.603 168.026C541.454 166.673 537.687 166.591 534.64 167.564L531.743 158.485ZM513.023 182.674C515.578 171.454 521.724 161.683 531.743 158.485L534.64 167.564C529.211 169.296 524.509 175.152 522.314 184.79L513.023 182.674ZM509.584 179.586C512.483 178.801 515.417 178.632 518.287 179.008L517.05 188.457C515.387 188.239 513.722 188.338 512.076 188.784L509.584 179.586ZM496.243 189.116C499.544 184.575 504.057 181.084 509.584 179.586L512.076 188.784C508.979 189.624 506.192 191.637 503.951 194.72L496.243 189.116ZM485.864 181.409C492.492 181.614 498.497 184.205 503.227 188.325L496.967 195.511C493.767 192.723 489.832 191.066 485.568 190.934L485.864 181.409ZM455.599 212.401C456.133 195.251 469.253 180.892 485.864 181.409L485.568 190.934C475.107 190.609 465.524 199.87 465.124 212.697L455.599 212.401ZM483.877 245.213C467.265 244.697 455.065 229.552 455.599 212.401L465.124 212.697C464.724 225.524 473.713 235.363 484.173 235.688L483.877 245.213ZM503.657 237.691C498.376 242.535 491.442 245.448 483.877 245.213L484.173 235.688C489.029 235.839 493.596 233.988 497.216 230.668L503.657 237.691ZM526.431 251.337C514.535 254.562 503.09 247.463 496.391 236.697L504.482 231.662C509.898 240.365 517.591 243.86 523.939 242.139L526.431 251.337ZM539.798 241.771C536.495 246.329 531.972 249.835 526.431 251.337L523.939 242.139C527.044 241.297 529.838 239.276 532.082 236.179L539.798 241.771ZM562.95 253.064C552.279 256.47 541.307 250.648 532.658 242.429L539.222 235.521C547.185 243.087 554.556 245.74 560.053 243.985L562.95 253.064ZM573.911 245.503C570.983 248.988 567.313 251.671 562.95 253.064L560.053 243.985C562.455 243.219 564.668 241.691 566.615 239.374L573.911 245.503Z" fill="black" mask="url(#path-7-outside-3_0_577)"/>
<mask id="path-9-outside-4_0_577" maskUnits="userSpaceOnUse" x="99.342" y="187.186" width="173.346" height="105.69" fill="black">
<rect fill="white" x="99.342" y="187.186" width="173.346" height="105.69"/>
<path fill-rule="evenodd" clip-rule="evenodd" d="M182.022 277.041C189.99 282.93 198.785 286.075 205.926 284.55C214.188 282.784 219.717 280.031 223.257 276.432C224.716 276.47 226.171 276.34 227.606 276.033C235.599 274.326 242.606 265.897 245.881 255.901C248.526 257.373 251.279 258.118 253.763 257.812C261.577 256.847 266.935 247.481 265.248 236.16C263.561 224.839 252.942 216.379 245.129 217.343C242.981 217.608 241.049 218.552 239.411 220.017C232.77 210.803 223.462 205.649 214.77 207.506C213.263 207.828 211.779 208.37 210.341 209.105C201.356 199.164 189.621 193.849 178.312 196.716C170.418 198.403 164.56 205.006 161.488 214.299C157.051 212.959 152.657 212.696 148.806 213.682C142.034 215.416 137.147 221.057 134.766 228.724C134.218 228.755 133.673 228.827 133.132 228.943C128.94 229.842 125.776 233.21 123.999 237.982C114.124 239.83 106.487 247.935 106.022 257.994C105.475 269.822 115.049 279.872 127.407 280.443C131.603 280.636 135.581 279.712 139.026 277.943C141.256 278.808 143.534 279.062 145.737 278.589C148.177 278.066 150.269 276.706 151.941 274.72C159.133 280.447 166.971 283.485 173.971 281.693C177.069 280.9 179.772 279.29 182.022 277.041Z"/>
</mask>
<path fill-rule="evenodd" clip-rule="evenodd" d="M182.022 277.041C189.99 282.93 198.785 286.075 205.926 284.55C214.188 282.784 219.717 280.031 223.257 276.432C224.716 276.47 226.171 276.34 227.606 276.033C235.599 274.326 242.606 265.897 245.881 255.901C248.526 257.373 251.279 258.118 253.763 257.812C261.577 256.847 266.935 247.481 265.248 236.16C263.561 224.839 252.942 216.379 245.129 217.343C242.981 217.608 241.049 218.552 239.411 220.017C232.77 210.803 223.462 205.649 214.77 207.506C213.263 207.828 211.779 208.37 210.341 209.105C201.356 199.164 189.621 193.849 178.312 196.716C170.418 198.403 164.56 205.006 161.488 214.299C157.051 212.959 152.657 212.696 148.806 213.682C142.034 215.416 137.147 221.057 134.766 228.724C134.218 228.755 133.673 228.827 133.132 228.943C128.94 229.842 125.776 233.21 123.999 237.982C114.124 239.83 106.487 247.935 106.022 257.994C105.475 269.822 115.049 279.872 127.407 280.443C131.603 280.636 135.581 279.712 139.026 277.943C141.256 278.808 143.534 279.062 145.737 278.589C148.177 278.066 150.269 276.706 151.941 274.72C159.133 280.447 166.971 283.485 173.971 281.693C177.069 280.9 179.772 279.29 182.022 277.041Z" fill="white"/>
<path d="M205.926 284.55L204.931 279.89L205.926 284.55ZM182.022 277.041L178.653 273.671L181.555 270.771L184.854 273.209L182.022 277.041ZM223.257 276.432L219.86 273.091L221.311 271.616L223.38 271.669L223.257 276.432ZM227.606 276.033L228.601 280.693L227.606 276.033ZM245.881 255.901L241.353 254.418L243.152 248.929L248.198 251.738L245.881 255.901ZM253.763 257.812L253.18 253.083L253.763 257.812ZM265.248 236.16L269.961 235.457L265.248 236.16ZM245.129 217.343L245.712 222.072L245.129 217.343ZM239.411 220.017L242.587 223.569L238.641 227.098L235.545 222.803L239.411 220.017ZM214.77 207.506L213.775 202.846L213.775 202.846L214.77 207.506ZM210.341 209.105L212.508 213.348L209.255 215.01L206.805 212.3L210.341 209.105ZM178.312 196.716L179.483 201.335L179.396 201.357L179.308 201.376L178.312 196.716ZM161.488 214.299L166.012 215.795L164.555 220.204L160.11 218.861L161.488 214.299ZM148.806 213.682L149.987 218.298L149.987 218.298L148.806 213.682ZM134.766 228.724L139.317 230.137L138.335 233.3L135.028 233.482L134.766 228.724ZM133.132 228.943L134.131 233.602L134.131 233.602L133.132 228.943ZM123.999 237.982L128.465 239.645L127.525 242.17L124.876 242.666L123.999 237.982ZM106.022 257.994L110.782 258.214L106.022 257.994ZM127.407 280.443L127.627 275.683L127.407 280.443ZM139.026 277.943L136.85 273.704L138.754 272.727L140.748 273.5L139.026 277.943ZM145.737 278.589L144.738 273.93L144.738 273.93L145.737 278.589ZM151.941 274.72L148.297 271.651L151.283 268.105L154.91 270.993L151.941 274.72ZM173.971 281.693L175.152 286.309L175.152 286.309L173.971 281.693ZM206.921 289.209C197.829 291.152 187.621 287.104 179.19 280.873L184.854 273.209C192.359 278.756 199.74 280.999 204.931 279.89L206.921 289.209ZM226.654 279.773C222.215 284.286 215.681 287.337 206.921 289.209L204.931 279.89C212.694 278.231 217.219 275.777 219.86 273.091L226.654 279.773ZM228.601 280.693C226.788 281.08 224.958 281.242 223.134 281.195L223.38 271.669C224.474 271.697 225.553 271.6 226.61 271.374L228.601 280.693ZM250.409 257.385C246.891 268.122 238.987 278.474 228.601 280.693L226.61 271.374C232.211 270.177 238.321 263.671 241.353 254.418L250.409 257.385ZM248.198 251.738C250.29 252.902 252.016 253.226 253.18 253.083L254.346 262.541C250.541 263.01 246.763 261.845 243.564 260.065L248.198 251.738ZM253.18 253.083C255.227 252.83 257.334 251.445 258.881 248.596C260.43 245.743 261.247 241.638 260.535 236.863L269.961 235.457C270.936 242.003 269.917 248.242 267.256 253.143C264.592 258.049 260.113 261.829 254.346 262.541L253.18 253.083ZM260.535 236.863C259.878 232.456 257.448 228.482 254.323 225.709C251.091 222.84 247.795 221.815 245.712 222.072L244.545 212.614C250.276 211.907 256.196 214.629 260.649 218.581C265.208 222.627 268.93 228.543 269.961 235.457L260.535 236.863ZM245.712 222.072C244.629 222.205 243.58 222.68 242.587 223.569L236.235 216.465C238.518 214.424 241.333 213.01 244.545 212.614L245.712 222.072ZM213.775 202.846C225.073 200.432 236.068 207.23 243.276 217.231L235.545 222.803C229.472 214.376 221.852 210.865 215.765 212.166L213.775 202.846ZM208.173 204.862C209.948 203.954 211.825 203.263 213.775 202.846L215.765 212.166C214.701 212.393 213.61 212.785 212.508 213.348L208.173 204.862ZM177.141 192.098C190.763 188.644 204.191 195.194 213.876 205.91L206.805 212.3C198.52 203.133 188.479 199.054 179.483 201.335L177.141 192.098ZM156.964 212.804C160.354 202.55 167.196 194.219 177.317 192.057L179.308 201.376C173.64 202.587 168.767 207.462 166.012 215.795L156.964 212.804ZM147.624 209.066C152.5 207.818 157.797 208.206 162.867 209.738L160.11 218.861C156.305 217.711 152.814 217.574 149.987 218.298L147.624 209.066ZM130.216 227.312C132.928 218.577 138.79 211.328 147.624 209.066L149.987 218.298C145.278 219.504 141.367 223.536 139.317 230.137L130.216 227.312ZM132.132 224.284C132.92 224.115 133.712 224.01 134.505 223.967L135.028 233.482C134.724 233.499 134.426 233.538 134.131 233.602L132.132 224.284ZM119.534 236.32C121.67 230.582 125.843 225.634 132.132 224.284L134.131 233.602C132.037 234.051 129.882 235.839 128.465 239.645L119.534 236.32ZM101.262 257.775C101.838 245.325 111.259 235.519 123.123 233.299L124.876 242.666C116.989 244.142 111.137 250.546 110.782 258.214L101.262 257.775ZM127.187 285.202C112.399 284.52 100.585 272.425 101.262 257.775L110.782 258.214C110.365 267.219 117.699 275.225 127.627 275.683L127.187 285.202ZM141.202 282.182C137.029 284.324 132.227 285.435 127.187 285.202L127.627 275.683C130.98 275.838 134.133 275.099 136.85 273.704L141.202 282.182ZM146.737 283.248C143.495 283.944 140.269 283.535 137.304 282.386L140.748 273.5C142.244 274.08 143.572 274.18 144.738 273.93L146.737 283.248ZM155.586 277.789C153.327 280.471 150.346 282.473 146.737 283.248L144.738 273.93C146.009 273.658 147.21 272.941 148.297 271.651L155.586 277.789ZM175.152 286.309C166.022 288.647 156.638 284.552 148.972 278.447L154.91 270.993C161.627 276.342 167.92 278.324 172.789 277.078L175.152 286.309ZM185.39 280.411C182.581 283.218 179.137 285.289 175.152 286.309L172.789 277.078C175 276.512 176.963 275.361 178.653 273.671L185.39 280.411Z" fill="black" mask="url(#path-9-outside-4_0_577)"/>
<rect x="48.9024" y="144.533" width="246.182" height="770.312" transform="rotate(-0.6 48.9024 144.533)" fill="#B1E9FF"/>
<path d="M286.003 923.523L286.042 927.215L289.734 927.177L311.149 926.952C313.596 926.927 315.559 924.922 315.533 922.475L307.291 135.418C307.265 132.971 305.261 131.008 302.814 131.034L49.5261 133.686C47.0791 133.712 45.1161 135.716 45.1418 138.163L46.7103 287.94L49.4147 546.186L52.1192 804.432L53.3841 925.221C53.4097 927.668 55.4143 929.631 57.8612 929.605L79.2762 929.381L82.9684 929.342L82.9298 925.65L80.3844 682.595L77.5209 409.158L75.0142 169.795L118.583 169.339L168.428 168.817L184.305 168.65L235.996 168.109L278.088 167.668L279.322 285.504L280.594 407.031L282.026 543.75L283.458 680.468L284.73 801.996L286.003 923.523Z" fill="#C1C5CC" stroke="#72797A" stroke-width="7.38489"/>
<rect x="379.444" y="311.52" width="208.499" height="652.399" transform="rotate(-0.6 379.444 311.52)" fill="#B1E9FF"/>
<path d="M580.253 971.269L580.286 974.396L583.413 974.363L601.55 974.174C603.622 974.152 605.285 972.454 605.263 970.382L598.282 303.801C598.26 301.728 596.563 300.066 594.49 300.087L379.974 302.334C377.901 302.356 376.239 304.053 376.261 306.126L377.589 432.975L379.879 651.691L382.17 870.407L383.241 972.707C383.263 974.779 384.961 976.442 387.033 976.42L405.17 976.23L408.297 976.197L408.264 973.07L406.109 767.22L403.683 535.639L401.56 332.915L438.46 332.529L480.675 332.087L494.122 331.946L537.9 331.488L573.549 331.114L574.594 430.912L575.672 533.837L576.885 649.628L578.097 765.419L579.175 868.344L580.253 971.269Z" fill="#C1C5CC" stroke="#72797A" stroke-width="6.25447"/>
</g>
<path opacity="0.3" fill-rule="evenodd" clip-rule="evenodd" d="M175.775 49.7848L63.0569 55.0824L199.516 496.758L318.585 491.162L175.775 49.7848ZM404.314 487.133L375.737 488.476L230.546 47.2107L266.267 45.5319L404.314 487.133Z" fill="white"/>
<path d="M9.68663 53.6156L5.86248 53.7954L5.90257 57.6235L10.5928 505.492L10.6359 509.61L14.7497 509.417L514.837 485.913L518.661 485.734L518.621 481.906L513.931 34.0371L513.888 29.9191L509.774 30.1124L9.68663 53.6156ZM273.197 479.78L268.79 58.9285L496.607 48.2215L501.015 469.073L273.197 479.78ZM23.5089 70.4563L251.326 59.7493L255.734 480.601L27.9162 491.308L23.5089 70.4563Z" fill="#6B6B6B" stroke="black" stroke-width="7.94136"/>
<path d="M522.432 29.4513L517.843 29.667L517.892 34.2608L522.582 482.129L522.634 487.071L527.57 486.839L1027.66 463.336L1032.25 463.12L1032.2 458.526L1027.51 10.6578L1027.46 5.71611L1022.52 5.94812L522.432 29.4513Z" fill="#88DDFE" stroke="black" stroke-width="9.52964"/>
<mask id="mask1_0_577" style="mask-type:alpha" maskUnits="userSpaceOnUse" x="522" y="10" width="506" height="473">
<path d="M522.656 34.2109L1022.74 10.7077L1027.43 458.576L527.346 482.079L522.656 34.2109Z" fill="#88DDFE"/>
</mask>
<g mask="url(#mask1_0_577)">
<mask id="path-19-outside-5_0_577" maskUnits="userSpaceOnUse" x="946.677" y="127.155" width="226.077" height="106.35" fill="black">
<rect fill="white" x="946.677" y="127.155" width="226.077" height="106.35"/>
<path fill-rule="evenodd" clip-rule="evenodd" d="M1048.58 219.363C1038.98 225.302 1028.53 228.309 1020.23 226.434C1010.62 224.264 1004.25 221.149 1000.26 217.211C998.544 217.198 996.844 217.008 995.175 216.631C985.876 214.532 978.023 205.357 974.615 194.661C971.449 196.123 968.188 196.811 965.287 196.395C956.167 195.09 950.289 184.984 952.756 173.068C955.222 161.152 968.037 152.589 977.157 153.894C979.665 154.253 981.891 155.323 983.749 156.935C991.933 147.428 1003.07 142.313 1013.18 144.596C1014.93 144.992 1016.65 145.619 1018.31 146.45C1029.27 136.26 1043.26 131.066 1056.39 134.513C1065.58 136.586 1072.16 143.786 1075.36 153.731C1080.62 152.475 1085.78 152.358 1090.26 153.541C1098.47 155.715 1104.09 162.325 1106.38 171.077C1108.82 170.862 1111.28 171.007 1113.7 171.556C1118.29 172.596 1122.13 174.95 1125.01 178.176C1129.34 175.349 1134.72 173.648 1140.56 173.586C1155.07 173.434 1166.95 183.471 1167.08 196.005C1167.21 208.538 1155.55 218.821 1141.03 218.973C1134.37 219.043 1128.27 216.968 1123.6 213.492C1116.87 221.537 1106.49 225.823 1096.78 223.622C1092.17 222.579 1088.32 220.215 1085.44 216.974C1076.35 223.448 1066.42 226.855 1057.82 224.58C1054.22 223.627 1051.12 221.824 1048.58 219.363Z"/>
</mask>
<path fill-rule="evenodd" clip-rule="evenodd" d="M1048.58 219.363C1038.98 225.302 1028.53 228.309 1020.23 226.434C1010.62 224.264 1004.25 221.149 1000.26 217.211C998.544 217.198 996.844 217.008 995.175 216.631C985.876 214.532 978.023 205.357 974.615 194.661C971.449 196.123 968.188 196.811 965.287 196.395C956.167 195.09 950.289 184.984 952.756 173.068C955.222 161.152 968.037 152.589 977.157 153.894C979.665 154.253 981.891 155.323 983.749 156.935C991.933 147.428 1003.07 142.313 1013.18 144.596C1014.93 144.992 1016.65 145.619 1018.31 146.45C1029.27 136.26 1043.26 131.066 1056.39 134.513C1065.58 136.586 1072.16 143.786 1075.36 153.731C1080.62 152.475 1085.78 152.358 1090.26 153.541C1098.47 155.715 1104.09 162.325 1106.38 171.077C1108.82 170.862 1111.28 171.007 1113.7 171.556C1118.29 172.596 1122.13 174.95 1125.01 178.176C1129.34 175.349 1134.72 173.648 1140.56 173.586C1155.07 173.434 1166.95 183.471 1167.08 196.005C1167.21 208.538 1155.55 218.821 1141.03 218.973C1134.37 219.043 1128.27 216.968 1123.6 213.492C1116.87 221.537 1106.49 225.823 1096.78 223.622C1092.17 222.579 1088.32 220.215 1085.44 216.974C1076.35 223.448 1066.42 226.855 1057.82 224.58C1054.22 223.627 1051.12 221.824 1048.58 219.363Z" fill="white"/>
<path d="M1020.23 226.434L1019.18 231.082L1020.23 226.434ZM1048.58 219.363L1051.89 215.941L1049.23 213.358L1046.07 215.311L1048.58 219.363ZM1000.26 217.211L1003.6 213.818L1002.22 212.462L1000.29 212.447L1000.26 217.211ZM995.175 216.631L994.126 221.279L994.126 221.279L995.175 216.631ZM974.615 194.661L979.155 193.214L977.516 188.072L972.617 190.335L974.615 194.661ZM965.287 196.395L964.612 201.112L964.612 201.112L965.287 196.395ZM952.756 173.068L948.09 172.102L952.756 173.068ZM977.157 153.894L977.832 149.177L977.157 153.894ZM983.749 156.935L980.627 160.534L984.24 163.667L987.36 160.043L983.749 156.935ZM1013.18 144.596L1014.23 139.948L1014.23 139.948L1013.18 144.596ZM1018.31 146.45L1016.17 150.708L1019.13 152.192L1021.55 149.94L1018.31 146.45ZM1056.39 134.513L1055.18 139.121L1055.26 139.142L1055.34 139.161L1056.39 134.513ZM1075.36 153.731L1070.83 155.191L1072.18 159.39L1076.47 158.365L1075.36 153.731ZM1090.26 153.541L1089.04 158.147L1090.26 153.541ZM1106.38 171.077L1101.77 172.282L1102.79 176.177L1106.8 175.823L1106.38 171.077ZM1113.7 171.556L1112.65 176.203L1113.7 171.556ZM1125.01 178.176L1121.45 181.346L1124.18 184.407L1127.61 182.166L1125.01 178.176ZM1123.6 213.492L1126.45 209.67L1122.84 206.981L1119.95 210.435L1123.6 213.492ZM1096.78 223.622L1097.83 218.975L1096.78 223.622ZM1085.44 216.974L1089.01 213.81L1086.17 210.611L1082.68 213.092L1085.44 216.974ZM1057.82 224.58L1056.6 229.186L1057.82 224.58ZM1019.18 231.082C1029.23 233.35 1041 229.659 1051.09 223.415L1046.07 215.311C1036.97 220.945 1027.84 223.267 1021.28 221.786L1019.18 231.082ZM996.911 220.605C1001.8 225.423 1009.14 228.816 1019.18 231.082L1021.28 221.786C1012.09 219.712 1006.7 216.875 1003.6 213.818L996.911 220.605ZM994.126 221.279C996.138 221.733 998.177 221.96 1000.22 221.976L1000.29 212.447C998.91 212.436 997.55 212.282 996.224 211.983L994.126 221.279ZM970.075 196.107C973.783 207.745 982.591 218.675 994.126 221.279L996.224 211.983C989.16 210.388 982.263 202.968 979.155 193.214L970.075 196.107ZM972.617 190.335C969.995 191.546 967.681 191.925 965.962 191.679L964.612 201.112C968.695 201.697 972.903 200.7 976.612 198.986L972.617 190.335ZM965.962 191.679C960.509 190.898 955.297 184.298 957.422 174.034L948.09 172.102C945.281 185.671 951.825 199.282 964.612 201.112L965.962 191.679ZM957.422 174.034C958.372 169.442 961.391 165.264 965.309 162.343C969.305 159.365 973.546 158.19 976.482 158.611L977.832 149.177C971.648 148.292 964.922 150.747 959.614 154.702C954.228 158.717 949.606 164.778 948.09 172.102L957.422 174.034ZM976.482 158.611C978.032 158.832 979.42 159.487 980.627 160.534L986.87 153.335C984.362 151.159 981.298 149.673 977.832 149.177L976.482 158.611ZM1014.23 139.948C1001.82 137.146 989.019 143.509 980.138 153.826L987.36 160.043C994.846 151.346 1004.32 147.481 1012.13 149.244L1014.23 139.948ZM1020.44 142.191C1018.47 141.2 1016.39 140.435 1014.23 139.948L1012.13 149.244C1013.48 149.549 1014.83 150.039 1016.17 150.708L1020.44 142.191ZM1057.6 129.904C1042.42 125.92 1026.82 132.036 1015.06 142.959L1021.55 149.94C1031.72 140.484 1044.1 136.212 1055.18 139.121L1057.6 129.904ZM1079.9 152.271C1076.32 141.172 1068.68 132.402 1057.44 129.865L1055.34 139.161C1062.47 140.769 1068 146.4 1070.83 155.191L1079.9 152.271ZM1091.48 148.935C1086.08 147.506 1080.1 147.701 1074.25 149.096L1076.47 158.365C1081.15 157.248 1085.49 157.209 1089.04 158.147L1091.48 148.935ZM1110.99 169.871C1108.37 159.835 1101.7 151.64 1091.48 148.935L1089.04 158.147C1095.25 159.791 1099.82 164.815 1101.77 172.282L1110.99 169.871ZM1114.75 166.909C1111.83 166.246 1108.87 166.074 1105.96 166.33L1106.8 175.823C1108.77 175.649 1110.73 175.769 1112.65 176.203L1114.75 166.909ZM1128.57 175.006C1125.04 171.048 1120.32 168.171 1114.75 166.909L1112.65 176.203C1116.26 177.021 1119.23 178.852 1121.45 181.346L1128.57 175.006ZM1140.51 168.822C1133.78 168.892 1127.51 170.854 1122.4 174.186L1127.61 182.166C1131.17 179.843 1135.66 178.403 1140.61 178.351L1140.51 168.822ZM1171.84 195.955C1171.68 180.158 1156.97 168.649 1140.51 168.822L1140.61 178.351C1153.17 178.219 1162.22 186.785 1162.31 196.055L1171.84 195.955ZM1141.08 223.738C1157.55 223.566 1172.01 211.752 1171.84 195.955L1162.31 196.055C1162.41 205.324 1153.55 214.077 1140.98 214.209L1141.08 223.738ZM1120.76 217.313C1126.28 221.429 1133.41 223.818 1141.08 223.738L1140.98 214.209C1135.34 214.268 1130.26 212.508 1126.45 209.67L1120.76 217.313ZM1095.72 228.269C1107.49 230.934 1119.6 225.706 1127.26 216.549L1119.95 210.435C1114.15 217.369 1105.49 220.711 1097.83 218.975L1095.72 228.269ZM1081.88 220.138C1085.41 224.113 1090.14 227.003 1095.72 228.269L1097.83 218.975C1094.21 218.155 1091.23 216.316 1089.01 213.81L1081.88 220.138ZM1056.6 229.186C1067.2 231.991 1078.63 227.676 1088.21 220.856L1082.68 213.092C1074.07 219.221 1065.63 221.719 1059.04 219.973L1056.6 229.186ZM1045.26 222.785C1048.37 225.8 1052.19 228.02 1056.6 229.186L1059.04 219.973C1056.25 219.235 1053.86 217.849 1051.89 215.941L1045.26 222.785Z" fill="black" mask="url(#path-19-outside-5_0_577)"/>
<mask id="path-21-outside-6_0_577" maskUnits="userSpaceOnUse" x="750.276" y="6.50828" width="197.078" height="106.047" fill="black">
<rect fill="white" x="750.276" y="6.50828" width="197.078" height="106.047"/>
<path fill-rule="evenodd" clip-rule="evenodd" d="M859.148 98.3397C867.571 104.09 876.673 106.892 883.826 104.855C892.103 102.498 897.551 99.2597 900.933 95.2444C902.414 95.1973 903.881 94.974 905.319 94.5648C913.327 92.2844 919.944 82.9581 922.686 72.198C925.454 73.5975 928.289 74.2216 930.792 73.7498C938.661 72.2665 943.551 62.0481 941.183 50.1825C938.815 38.3169 927.556 30.0056 919.687 31.4889C917.524 31.8966 915.619 33.0101 914.042 34.657C906.773 25.3123 897.034 20.4168 888.326 22.8965C886.816 23.3265 885.342 23.9872 883.925 24.8499C874.237 14.8771 862.028 9.95739 850.726 13.6597C842.817 15.9117 837.26 23.2391 834.683 33.2447C830.106 32.0913 825.635 32.0751 821.786 33.3459C814.718 35.6799 809.983 42.3982 808.173 51.1925C806.061 51.0256 803.933 51.2194 801.85 51.8148C797.895 52.9448 794.614 55.3741 792.188 58.6572C788.381 55.9134 783.692 54.3169 778.635 54.3699C766.069 54.5015 755.988 64.7684 756.12 77.3016C756.251 89.8349 766.544 99.8885 779.111 99.7569C784.877 99.6965 790.121 97.5017 794.094 93.9331C800.076 101.847 809.148 105.93 817.514 103.54C821.478 102.407 824.766 99.9685 827.194 96.6731C835.192 102.967 843.855 106.179 851.253 103.736C854.349 102.714 856.997 100.85 859.148 98.3397Z"/>
</mask>
<path fill-rule="evenodd" clip-rule="evenodd" d="M859.148 98.3397C867.571 104.09 876.673 106.892 883.826 104.855C892.103 102.498 897.551 99.2597 900.933 95.2444C902.414 95.1973 903.881 94.974 905.319 94.5648C913.327 92.2844 919.944 82.9581 922.686 72.198C925.454 73.5975 928.289 74.2216 930.792 73.7498C938.661 72.2665 943.551 62.0481 941.183 50.1825C938.815 38.3169 927.556 30.0056 919.687 31.4889C917.524 31.8966 915.619 33.0101 914.042 34.657C906.773 25.3123 897.034 20.4168 888.326 22.8965C886.816 23.3265 885.342 23.9872 883.925 24.8499C874.237 14.8771 862.028 9.95739 850.726 13.6597C842.817 15.9117 837.26 23.2391 834.683 33.2447C830.106 32.0913 825.635 32.0751 821.786 33.3459C814.718 35.6799 809.983 42.3982 808.173 51.1925C806.061 51.0256 803.933 51.2194 801.85 51.8148C797.895 52.9448 794.614 55.3741 792.188 58.6572C788.381 55.9134 783.692 54.3169 778.635 54.3699C766.069 54.5015 755.988 64.7684 756.12 77.3016C756.251 89.8349 766.544 99.8885 779.111 99.7569C784.877 99.6965 790.121 97.5017 794.094 93.9331C800.076 101.847 809.148 105.93 817.514 103.54C821.478 102.407 824.766 99.9685 827.194 96.6731C835.192 102.967 843.855 106.179 851.253 103.736C854.349 102.714 856.997 100.85 859.148 98.3397Z" fill="white"/>
<path d="M883.826 104.855L885.131 109.438L885.131 109.438L883.826 104.855ZM859.148 98.3397L855.53 95.2396L858.308 91.9967L861.835 94.4047L859.148 98.3397ZM900.933 95.2444L897.288 92.1752L898.657 90.5496L900.781 90.482L900.933 95.2444ZM905.319 94.5648L904.014 89.9821L904.014 89.9821L905.319 94.5648ZM922.686 72.198L918.068 71.0216L919.534 65.2661L924.835 67.9456L922.686 72.198ZM930.792 73.7498L931.675 78.4322L930.792 73.7498ZM919.687 31.4889L918.805 26.8065L918.805 26.8065L919.687 31.4889ZM914.042 34.657L917.484 37.9522L913.668 41.9369L910.281 37.5826L914.042 34.657ZM888.326 22.8965L889.631 27.4791L889.631 27.4791L888.326 22.8965ZM883.925 24.8499L886.404 28.9195L883.157 30.8967L880.508 28.1701L883.925 24.8499ZM850.726 13.6597L852.209 18.1878L852.121 18.2168L852.031 18.2424L850.726 13.6597ZM834.683 33.2447L839.298 34.4329L838.116 39.0232L833.519 37.8651L834.683 33.2447ZM821.786 33.3459L823.28 37.8704L823.28 37.8704L821.786 33.3459ZM808.173 51.1925L812.84 52.1528L811.992 56.274L807.798 55.9426L808.173 51.1925ZM801.85 51.8148L803.159 56.3962L801.85 51.8148ZM792.188 58.6572L796.02 61.4888L793.222 65.2759L789.402 62.5226L792.188 58.6572ZM794.094 93.9331L790.91 90.3883L794.768 86.9231L797.895 91.0598L794.094 93.9331ZM817.514 103.54L818.823 108.121L817.514 103.54ZM827.194 96.6731L823.357 93.847L826.275 89.8868L830.14 92.9286L827.194 96.6731ZM851.253 103.736L852.747 108.261L852.747 108.261L851.253 103.736ZM885.131 109.438C875.972 112.046 865.353 108.346 856.462 102.275L861.835 94.4047C869.788 99.8347 877.373 101.739 882.521 100.273L885.131 109.438ZM904.577 98.3137C900.366 103.315 893.929 106.933 885.131 109.438L882.521 100.273C890.278 98.0641 894.737 95.2045 897.288 92.1752L904.577 98.3137ZM906.624 99.1474C904.801 99.6664 902.946 99.9476 901.084 100.007L900.781 90.482C901.882 90.447 902.962 90.2817 904.014 89.9821L906.624 99.1474ZM927.303 73.3743C925.795 79.2923 923.203 84.9089 919.777 89.4366C916.375 93.9311 911.925 97.6379 906.624 99.1474L904.014 89.9821C906.721 89.2114 909.583 87.1148 912.178 83.686C914.747 80.2904 916.835 75.8637 918.068 71.0216L927.303 73.3743ZM924.835 67.9456C927.027 69.0535 928.773 69.2818 929.909 69.0675L931.675 78.4322C927.806 79.1615 923.881 78.1415 920.536 76.4503L924.835 67.9456ZM929.909 69.0675C931.93 68.6866 934.034 67.1037 935.485 63.8959C936.93 60.6999 937.527 56.2093 936.51 51.1149L945.856 49.25C947.207 56.0213 946.542 62.5727 944.168 67.8232C941.798 73.0619 937.523 77.3298 931.675 78.4322L929.909 69.0675ZM936.51 51.1149C935.565 46.3765 932.812 42.2642 929.467 39.5063C925.997 36.6452 922.614 35.7859 920.57 36.1712L918.805 26.8065C924.629 25.7085 930.811 28.2632 935.529 32.1534C940.373 36.1467 944.434 42.1228 945.856 49.25L936.51 51.1149ZM920.57 36.1712C919.505 36.372 918.464 36.9285 917.484 37.9522L910.6 31.3617C912.774 29.0917 915.543 27.4213 918.805 26.8065L920.57 36.1712ZM887.021 18.3138C898.42 15.068 909.971 21.6635 917.803 31.7313L910.281 37.5826C903.574 28.9611 895.648 25.7656 889.631 27.4791L887.021 18.3138ZM881.447 20.7803C883.193 19.7168 885.059 18.8724 887.021 18.3138L889.631 27.4791C888.572 27.7805 887.49 28.2577 886.404 28.9195L881.447 20.7803ZM849.243 9.1317C862.924 4.64981 876.944 10.8258 887.343 21.5297L880.508 28.1701C871.529 18.9283 861.131 15.265 852.209 18.1878L849.243 9.1317ZM830.069 32.0565C832.877 21.1519 839.264 11.9693 849.421 9.0771L852.031 18.2424C846.371 19.8541 841.643 25.3264 839.298 34.4329L830.069 32.0565ZM820.292 28.8214C825.185 27.2058 830.603 27.3029 835.848 28.6243L833.519 37.8651C829.608 36.8797 826.085 36.9445 823.28 37.8704L820.292 28.8214ZM803.506 50.2323C805.523 40.4299 811.051 31.8728 820.292 28.8214L823.28 37.8704C818.384 39.4871 814.442 44.3665 812.84 52.1528L803.506 50.2323ZM800.541 47.2333C803.192 46.4756 805.892 46.2326 808.549 46.4425L807.798 55.9426C806.23 55.8187 804.674 55.9632 803.159 56.3962L800.541 47.2333ZM788.356 55.8256C791.345 51.781 795.479 48.6797 800.541 47.2333L803.159 56.3962C800.311 57.2099 797.883 58.9673 796.02 61.4888L788.356 55.8256ZM778.586 49.6053C784.693 49.5413 790.37 51.4729 794.974 54.7918L789.402 62.5226C786.393 60.3539 782.692 59.0924 778.685 59.1344L778.586 49.6053ZM751.355 77.3515C751.196 62.175 763.4 49.7643 778.586 49.6053L778.685 59.1344C768.739 59.2386 760.781 67.3617 760.884 77.2517L751.355 77.3515ZM779.161 104.521C763.975 104.68 751.514 92.528 751.355 77.3515L760.884 77.2517C760.988 87.1418 769.114 95.0965 779.061 94.9923L779.161 104.521ZM797.278 97.4779C792.475 101.792 786.128 104.448 779.161 104.521L779.061 94.9923C783.627 94.9445 787.766 93.2117 790.91 90.3883L797.278 97.4779ZM818.823 108.121C808.033 111.205 797.089 105.797 790.293 96.8064L797.895 91.0598C803.063 97.8972 810.264 100.656 816.205 98.9584L818.823 108.121ZM831.03 99.4991C828.04 103.558 823.898 106.671 818.823 108.121L816.205 98.9584C819.059 98.1428 821.492 96.3787 823.357 93.847L831.03 99.4991ZM852.747 108.261C843.049 111.463 832.675 107.05 824.247 100.418L830.14 92.9286C837.709 98.8848 844.66 100.895 849.759 99.2115L852.747 108.261ZM862.767 101.44C860.105 104.547 856.743 106.941 852.747 108.261L849.759 99.2115C851.955 98.4865 853.89 97.1538 855.53 95.2396L862.767 101.44Z" fill="black" mask="url(#path-21-outside-6_0_577)"/>
<mask id="path-23-outside-7_0_577" maskUnits="userSpaceOnUse" x="417.21" y="8.79668" width="228.283" height="115.939" fill="black">
<rect fill="white" x="417.21" y="8.79668" width="228.283" height="115.939"/>
<path fill-rule="evenodd" clip-rule="evenodd" d="M541.601 108.584C551.062 115.063 561.441 118.455 569.788 116.636C579.447 114.531 585.88 111.361 589.963 107.272C591.674 107.291 593.377 107.124 595.054 106.758C604.399 104.722 612.456 95.1651 616.105 83.9095C619.237 85.5205 622.481 86.3141 625.391 85.9324C634.539 84.7325 640.644 74.1509 638.446 61.4859C636.248 48.8208 623.628 39.4989 614.48 40.6988C611.965 41.0287 609.716 42.1173 607.822 43.7858C599.853 33.5574 588.834 27.9204 578.672 30.1351C576.911 30.519 575.181 31.1485 573.508 31.9941C562.776 20.988 548.907 15.2099 535.697 18.5964C526.469 20.6076 519.725 28.0987 516.3 38.5631C511.07 37.1279 505.91 36.9009 501.411 38.0647C493.149 40.2023 487.381 47.0877 484.897 56.307C482.466 56.031 480.001 56.1361 477.569 56.6682C472.956 57.6777 469.062 60.0922 466.115 63.4495C461.846 60.3698 456.508 58.4618 450.672 58.2805C436.164 57.8298 424.068 68.2193 423.654 81.4861C423.241 94.753 434.667 105.873 449.175 106.324C455.831 106.531 461.978 104.457 466.723 100.87C473.271 109.521 483.556 114.265 493.316 112.129C497.943 111.117 501.847 108.691 504.797 105.318C513.745 112.354 523.598 116.159 532.247 113.921C535.866 112.985 539.006 111.138 541.601 108.584Z"/>
</mask>
<path fill-rule="evenodd" clip-rule="evenodd" d="M541.601 108.584C551.062 115.063 561.441 118.455 569.788 116.636C579.447 114.531 585.88 111.361 589.963 107.272C591.674 107.291 593.377 107.124 595.054 106.758C604.399 104.722 612.456 95.1651 616.105 83.9095C619.237 85.5205 622.481 86.3141 625.391 85.9324C634.539 84.7325 640.644 74.1509 638.446 61.4859C636.248 48.8208 623.628 39.4989 614.48 40.6988C611.965 41.0287 609.716 42.1173 607.822 43.7858C599.853 33.5574 588.834 27.9204 578.672 30.1351C576.911 30.519 575.181 31.1485 573.508 31.9941C562.776 20.988 548.907 15.2099 535.697 18.5964C526.469 20.6076 519.725 28.0987 516.3 38.5631C511.07 37.1279 505.91 36.9009 501.411 38.0647C493.149 40.2023 487.381 47.0877 484.897 56.307C482.466 56.031 480.001 56.1361 477.569 56.6682C472.956 57.6777 469.062 60.0922 466.115 63.4495C461.846 60.3698 456.508 58.4618 450.672 58.2805C436.164 57.8298 424.068 68.2193 423.654 81.4861C423.241 94.753 434.667 105.873 449.175 106.324C455.831 106.531 461.978 104.457 466.723 100.87C473.271 109.521 483.556 114.265 493.316 112.129C497.943 111.117 501.847 108.691 504.797 105.318C513.745 112.354 523.598 116.159 532.247 113.921C535.866 112.985 539.006 111.138 541.601 108.584Z" fill="white"/>
<path d="M569.788 116.636L570.803 121.292L569.788 116.636ZM541.601 108.584L538.259 105.188L541.056 102.435L544.294 104.652L541.601 108.584ZM589.963 107.272L586.592 103.905L588.01 102.484L590.018 102.507L589.963 107.272ZM595.054 106.758L596.068 111.414L596.068 111.414L595.054 106.758ZM616.105 83.9095L611.572 82.4404L613.3 77.1092L618.284 79.6722L616.105 83.9095ZM625.391 85.9324L626.011 90.6567L626.011 90.6567L625.391 85.9324ZM638.446 61.4859L633.751 62.3008L638.446 61.4859ZM614.48 40.6988L613.86 35.9745L613.86 35.9745L614.48 40.6988ZM607.822 43.7858L610.971 47.3611L607.173 50.7067L604.063 46.7142L607.822 43.7858ZM578.672 30.1351L577.658 25.4796L577.658 25.4796L578.672 30.1351ZM573.508 31.9941L575.657 36.2465L572.537 37.8235L570.097 35.3207L573.508 31.9941ZM535.697 18.5964L536.88 23.212L536.796 23.2335L536.712 23.2519L535.697 18.5964ZM516.3 38.5631L520.829 40.0449L519.417 44.3591L515.04 43.1581L516.3 38.5631ZM501.411 38.0647L502.605 42.6777L501.411 38.0647ZM484.897 56.307L489.497 57.5466L488.431 61.5037L484.359 61.0414L484.897 56.307ZM477.569 56.6682L478.588 61.3229L477.569 56.6682ZM466.115 63.4495L469.695 66.5928L466.838 69.8473L463.327 67.3136L466.115 63.4495ZM450.672 58.2805L450.524 63.043L450.672 58.2805ZM423.654 81.4861L428.417 81.6343L428.417 81.6343L423.654 81.4861ZM449.175 106.324L449.027 111.087L449.175 106.324ZM466.723 100.87L463.85 97.0688L467.649 94.1975L470.523 97.9942L466.723 100.87ZM493.316 112.129L494.335 116.784L494.335 116.784L493.316 112.129ZM504.797 105.318L501.211 102.181L504.188 98.7778L507.742 101.573L504.797 105.318ZM532.247 113.921L531.054 109.308L531.054 109.308L532.247 113.921ZM570.803 121.292C560.599 123.516 548.848 119.322 538.909 112.515L544.294 104.652C553.276 110.805 562.282 113.395 568.774 111.981L570.803 121.292ZM593.335 110.638C588.353 115.627 580.926 119.085 570.803 121.292L568.774 111.981C577.967 109.977 583.406 107.094 586.592 103.905L593.335 110.638ZM596.068 111.414C594.03 111.858 591.968 112.06 589.909 112.036L590.018 102.507C591.381 102.523 592.725 102.389 594.04 102.103L596.068 111.414ZM620.637 85.3787C616.719 97.4655 607.739 108.87 596.068 111.414L594.039 102.103C601.058 100.573 608.193 92.8647 611.572 82.4404L620.637 85.3787ZM618.284 79.6722C620.866 81.0001 623.119 81.4248 624.772 81.2081L626.011 90.6567C621.843 91.2034 617.608 90.0409 613.925 88.1468L618.284 79.6722ZM624.772 81.2081C630.098 80.5094 635.708 73.5802 633.751 62.3008L643.14 60.6709C645.579 74.7216 638.98 88.9555 626.011 90.6567L624.772 81.2081ZM633.751 62.3008C632.878 57.2726 629.887 52.7371 626.041 49.5722C622.1 46.3291 617.94 45.0505 615.099 45.4232L613.86 35.9745C620.167 35.1472 626.891 37.9296 632.097 42.2138C637.397 46.5761 641.815 53.0341 643.14 60.6709L633.751 62.3008ZM615.099 45.4232C613.601 45.6197 612.216 46.2645 610.971 47.3611L604.672 40.2104C607.215 37.9701 610.329 36.4377 613.86 35.9745L615.099 45.4232ZM577.658 25.4796C590.287 22.727 602.985 29.8246 611.58 40.8574L604.063 46.7142C596.721 37.2902 587.381 33.1138 579.687 34.7907L577.658 25.4796ZM571.359 27.7416C573.362 26.7293 575.471 25.9561 577.658 25.4796L579.687 34.7907C578.35 35.0819 577 35.5677 575.657 36.2465L571.359 27.7416ZM534.514 13.9808C549.916 10.0325 565.445 16.9002 576.92 28.6675L570.097 35.3207C560.107 25.0758 547.899 20.3873 536.88 23.212L534.514 13.9808ZM511.772 37.0813C515.539 25.5694 523.3 16.4217 534.683 13.9409L536.712 23.2519C529.638 24.7936 523.911 30.628 520.829 40.0449L511.772 37.0813ZM500.218 33.4518C505.696 32.0346 511.721 32.3656 517.561 33.9681L515.04 43.1581C510.418 41.8902 506.124 41.7672 502.605 42.6777L500.218 33.4518ZM480.296 55.0673C483.096 44.6792 489.859 36.1317 500.218 33.4518L502.605 42.6777C496.439 44.2728 491.667 49.4962 489.497 57.5466L480.296 55.0673ZM476.551 52.0136C479.516 51.3647 482.507 51.2402 485.434 51.5726L484.359 61.0414C482.424 60.8217 480.486 60.9074 478.588 61.3229L476.551 52.0136ZM462.534 60.3062C466.121 56.2194 470.9 53.2501 476.551 52.0136L478.588 61.3229C475.013 62.1053 472.002 63.9651 469.695 66.5928L462.534 60.3062ZM450.82 53.518C457.608 53.7289 463.864 55.9505 468.903 59.5853L463.327 67.3136C459.827 64.789 455.409 63.1948 450.524 63.043L450.82 53.518ZM418.892 81.338C419.399 65.049 434.092 52.9983 450.82 53.518L450.524 63.043C438.236 62.6613 428.736 71.3896 428.417 81.6343L418.892 81.338ZM449.027 111.087C432.299 110.567 418.385 97.6272 418.892 81.338L428.417 81.6343C428.098 91.8788 437.036 101.18 449.324 101.562L449.027 111.087ZM469.596 104.671C463.981 108.915 456.767 111.327 449.027 111.087L449.324 101.562C454.895 101.735 459.975 99.9976 463.85 97.0688L469.596 104.671ZM494.335 116.784C482.366 119.403 470.329 113.529 462.924 103.746L470.523 97.9942C476.214 105.513 484.745 109.127 492.298 107.474L494.335 116.784ZM508.383 108.455C504.792 112.56 500.002 115.543 494.335 116.784L492.298 107.474C495.883 106.69 498.901 104.821 501.211 102.181L508.383 108.455ZM533.44 118.534C522.658 121.324 511.257 116.459 501.852 109.064L507.742 101.573C516.232 108.248 524.537 110.994 531.054 109.308L533.44 118.534ZM544.944 111.979C541.782 115.091 537.911 117.378 533.44 118.534L531.054 109.308C533.82 108.593 536.229 107.186 538.259 105.188L544.944 111.979Z" fill="black" mask="url(#path-23-outside-7_0_577)"/>
<mask id="path-25-outside-8_0_577" maskUnits="userSpaceOnUse" x="609.854" y="157.531" width="175.195" height="109.107" fill="black">
<rect fill="white" x="609.854" y="157.531" width="175.195" height="109.107"/>
<path fill-rule="evenodd" clip-rule="evenodd" d="M702.219 249.004C694.376 255.058 685.649 258.387 678.477 257.011C670.181 255.419 664.595 252.783 660.98 249.258C659.522 249.326 658.065 249.227 656.624 248.951C648.597 247.411 641.415 239.13 637.931 229.205C635.317 230.733 632.581 231.535 630.09 231.281C622.257 230.481 616.705 221.228 618.154 209.875C619.604 198.521 630.043 189.84 637.875 190.64C640.028 190.86 641.98 191.764 643.648 193.194C650.095 183.843 659.292 178.495 668.022 180.17C669.535 180.46 671.03 180.97 672.484 181.675C681.259 171.548 692.88 165.989 704.246 168.619C712.174 170.14 718.168 176.619 721.434 185.845C725.842 184.412 730.229 184.058 734.1 184.963C740.906 186.554 745.91 192.092 748.451 199.708C749 199.727 749.547 199.787 750.091 199.892C754.3 200.704 757.534 204.005 759.41 208.738C769.322 210.379 777.127 218.322 777.803 228.37C778.598 240.183 769.236 250.432 756.893 251.261C752.702 251.542 748.705 250.701 745.224 249.005C743.012 249.916 740.741 250.218 738.527 249.791C736.077 249.319 733.958 248.003 732.244 246.053C725.174 251.93 717.401 255.131 710.365 253.486C707.251 252.759 704.515 251.205 702.219 249.004Z"/>
</mask>
<path fill-rule="evenodd" clip-rule="evenodd" d="M702.219 249.004C694.376 255.058 685.649 258.387 678.477 257.011C670.181 255.419 664.595 252.783 660.98 249.258C659.522 249.326 658.065 249.227 656.624 248.951C648.597 247.411 641.415 239.13 637.931 229.205C635.317 230.733 632.581 231.535 630.09 231.281C622.257 230.481 616.705 221.228 618.154 209.875C619.604 198.521 630.043 189.84 637.875 190.64C640.028 190.86 641.98 191.764 643.648 193.194C650.095 183.843 659.292 178.495 668.022 180.17C669.535 180.46 671.03 180.97 672.484 181.675C681.259 171.548 692.88 165.989 704.246 168.619C712.174 170.14 718.168 176.619 721.434 185.845C725.842 184.412 730.229 184.058 734.1 184.963C740.906 186.554 745.91 192.092 748.451 199.708C749 199.727 749.547 199.787 750.091 199.892C754.3 200.704 757.534 204.005 759.41 208.738C769.322 210.379 777.127 218.322 777.803 228.37C778.598 240.183 769.236 250.432 756.893 251.261C752.702 251.542 748.705 250.701 745.224 249.005C743.012 249.916 740.741 250.218 738.527 249.791C736.077 249.319 733.958 248.003 732.244 246.053C725.174 251.93 717.401 255.131 710.365 253.486C707.251 252.759 704.515 251.205 702.219 249.004Z" fill="white"/>
<path d="M678.477 257.011L677.58 261.691L677.58 261.691L678.477 257.011ZM702.219 249.004L705.516 245.564L702.554 242.726L699.307 245.232L702.219 249.004ZM660.98 249.258L664.306 245.847L662.825 244.402L660.758 244.499L660.98 249.258ZM656.624 248.951L657.522 244.271L657.522 244.271L656.624 248.951ZM637.931 229.205L642.427 227.628L640.514 222.177L635.527 225.091L637.931 229.205ZM630.09 231.281L630.574 226.541L630.574 226.541L630.09 231.281ZM618.154 209.875L613.428 209.271L618.154 209.875ZM637.875 190.64L637.391 195.38L637.391 195.38L637.875 190.64ZM643.648 193.194L640.547 196.812L644.566 200.258L647.571 195.899L643.648 193.194ZM668.022 180.17L667.124 184.849L667.124 184.849L668.022 180.17ZM672.484 181.675L670.406 185.963L673.693 187.556L676.085 184.796L672.484 181.675ZM704.246 168.619L703.172 173.261L703.26 173.281L703.348 173.298L704.246 168.619ZM721.434 185.845L716.943 187.435L718.492 191.812L722.908 190.377L721.434 185.845ZM734.1 184.963L735.184 180.323L735.184 180.323L734.1 184.963ZM748.451 199.708L743.931 201.216L744.98 204.357L748.29 204.47L748.451 199.708ZM750.091 199.892L749.189 204.571L749.189 204.571L750.091 199.892ZM759.41 208.738L754.981 210.494L755.974 212.999L758.632 213.439L759.41 208.738ZM777.803 228.37L773.049 228.689L777.803 228.37ZM756.893 251.261L757.213 256.015L756.893 251.261ZM745.224 249.005L747.311 244.722L745.387 243.784L743.409 244.599L745.224 249.005ZM738.527 249.791L739.429 245.113L739.429 245.113L738.527 249.791ZM732.244 246.053L735.823 242.908L732.763 239.425L729.198 242.389L732.244 246.053ZM710.365 253.486L709.28 258.126L709.28 258.126L710.365 253.486ZM677.58 261.691C686.71 263.442 696.832 259.182 705.13 252.776L699.307 245.232C691.92 250.935 684.587 253.332 679.375 252.332L677.58 261.691ZM657.654 252.67C662.186 257.089 668.783 260.003 677.58 261.691L679.375 252.332C671.579 250.836 667.004 248.477 664.306 245.847L657.654 252.67ZM655.727 253.63C657.547 253.98 659.38 254.103 661.203 254.018L660.758 244.499C659.665 244.55 658.584 244.475 657.522 244.271L655.727 253.63ZM633.435 230.783C637.177 241.445 645.296 251.629 655.727 253.63L657.522 244.271C651.897 243.192 645.652 236.815 642.427 227.628L633.435 230.783ZM635.527 225.091C633.46 226.299 631.741 226.66 630.574 226.541L629.606 236.021C633.42 236.411 637.174 235.167 640.335 233.319L635.527 225.091ZM630.574 226.541C628.522 226.331 626.386 224.991 624.78 222.175C623.171 219.355 622.269 215.268 622.881 210.478L613.428 209.271C612.59 215.835 613.739 222.051 616.502 226.896C619.268 231.745 623.825 235.43 629.606 236.021L630.574 226.541ZM622.881 210.478C623.445 206.059 625.792 202.034 628.858 199.197C632.029 196.261 635.303 195.167 637.391 195.38L638.359 185.9C632.615 185.313 626.753 188.159 622.385 192.203C617.911 196.344 614.313 202.336 613.428 209.271L622.881 210.478ZM637.391 195.38C638.477 195.491 639.535 195.944 640.547 196.812L646.749 189.577C644.424 187.584 641.579 186.229 638.359 185.9L637.391 195.38ZM668.919 175.49C657.573 173.313 646.722 180.34 639.725 190.49L647.571 195.899C653.467 187.347 661.012 183.676 667.124 184.849L668.919 175.49ZM674.562 177.388C672.768 176.518 670.878 175.866 668.919 175.49L667.124 184.849C668.193 185.054 669.292 185.423 670.406 185.963L674.562 177.388ZM705.32 163.977C691.629 160.809 678.341 167.639 668.883 178.555L676.085 184.796C684.177 175.457 694.131 171.169 703.172 173.261L705.32 163.977ZM725.926 184.256C722.322 174.075 715.307 165.889 705.143 163.939L703.348 173.298C709.04 174.39 714.014 179.162 716.943 187.435L725.926 184.256ZM735.184 180.323C730.284 179.178 724.997 179.677 719.961 181.314L722.908 190.377C726.687 189.148 730.174 188.938 733.015 189.603L735.184 180.323ZM752.971 198.2C750.076 189.524 744.064 182.399 735.184 180.323L733.015 189.603C737.749 190.709 741.744 194.659 743.931 201.216L752.971 198.2ZM750.992 195.213C750.201 195.061 749.406 194.973 748.613 194.946L748.29 204.47C748.594 204.48 748.893 204.514 749.189 204.571L750.992 195.213ZM763.84 206.983C761.584 201.291 757.309 196.431 750.992 195.213L749.189 204.571C751.292 204.976 753.484 206.718 754.981 210.494L763.84 206.983ZM782.557 228.05C781.721 215.615 772.096 206.008 760.188 204.037L758.632 213.439C766.548 214.749 772.534 221.03 773.049 228.689L782.557 228.05ZM757.213 256.015C771.983 255.023 783.542 242.684 782.557 228.05L773.049 228.689C773.654 237.683 766.489 245.841 756.574 246.507L757.213 256.015ZM743.137 253.288C747.354 255.343 752.179 256.353 757.213 256.015L756.574 246.507C753.225 246.731 750.057 246.059 747.311 244.722L743.137 253.288ZM737.626 254.47C740.882 255.098 744.099 254.622 747.039 253.411L743.409 244.599C741.926 245.21 740.6 245.338 739.429 245.113L737.626 254.47ZM728.664 249.198C730.979 251.832 734.001 253.771 737.626 254.47L739.429 245.113C738.153 244.867 736.937 244.175 735.823 242.908L728.664 249.198ZM709.28 258.126C718.458 260.272 727.754 255.982 735.29 249.717L729.198 242.389C722.594 247.878 716.344 249.991 711.449 248.847L709.28 258.126ZM698.922 252.444C701.788 255.192 705.275 257.19 709.28 258.126L711.449 248.847C709.227 248.327 707.241 247.218 705.516 245.564L698.922 252.444Z" fill="black" mask="url(#path-25-outside-8_0_577)"/>
<rect x="606.955" y="253.222" width="246.182" height="770.312" transform="rotate(-0.6 606.955 253.222)" fill="#B1E9FF"/>
<path d="M844.056 1032.21L844.094 1035.9L847.787 1035.87L869.202 1035.64C871.649 1035.62 873.612 1033.61 873.586 1031.16L865.344 244.107C865.318 241.66 863.313 239.697 860.867 239.723L607.579 242.375C605.132 242.401 603.169 244.406 603.194 246.853L604.763 396.629L607.467 654.875L610.172 913.121L611.437 1033.91C611.462 1036.36 613.467 1038.32 615.914 1038.29L637.329 1038.07L641.021 1038.03L640.983 1034.34L638.437 791.284L635.574 517.847L633.067 278.484L676.635 278.028L726.481 277.506L742.357 277.34L794.049 276.798L836.14 276.358L837.374 394.193L838.647 515.72L840.079 652.439L841.51 789.157L842.783 910.685L844.056 1032.21Z" fill="#C1C5CC" stroke="#72797A" stroke-width="7.38489"/>
<rect x="898.947" y="251.07" width="208.499" height="652.399" transform="rotate(-0.6 898.947 251.07)" fill="#B1E9FF"/>
<path d="M1099.76 910.819L1099.79 913.946L1102.92 913.914L1121.05 913.724C1123.13 913.702 1124.79 912.004 1124.77 909.932L1117.79 243.351C1117.76 241.278 1116.07 239.616 1113.99 239.637L899.478 241.884C897.405 241.906 895.743 243.603 895.764 245.676L897.093 372.525L899.383 591.241L901.674 809.957L902.745 912.257C902.767 914.329 904.464 915.992 906.537 915.97L924.674 915.78L927.801 915.747L927.768 912.62L925.612 706.77L923.187 475.189L921.064 272.465L957.964 272.079L1000.18 271.637L1013.63 271.496L1057.4 271.038L1093.05 270.664L1094.1 370.462L1095.18 473.387L1096.39 589.178L1097.6 704.969L1098.68 807.894L1099.76 910.819Z" fill="#C1C5CC" stroke="#72797A" stroke-width="6.25447"/>
</g>
<path opacity="0.3" fill-rule="evenodd" clip-rule="evenodd" d="M688.558 26.4138L575.84 31.7114L712.299 473.387L831.368 467.791L688.558 26.4138ZM917.097 463.762L888.521 465.105L743.33 23.8396L779.05 22.1608L917.097 463.762Z" fill="white"/>
<path d="M522.47 30.2446L518.646 30.4243L518.686 34.2525L523.376 482.121L523.419 486.239L527.533 486.046L1027.62 462.542L1031.44 462.363L1031.4 458.534L1026.71 10.6661L1026.67 6.54804L1022.56 6.74138L522.47 30.2446ZM785.98 456.409L781.573 35.5575L1009.39 24.8505L1013.8 445.702L785.98 456.409ZM536.292 47.0853L764.11 36.3782L768.517 457.229L540.699 467.936L536.292 47.0853Z" fill="#6B6B6B" stroke="black" stroke-width="7.94136"/>
</svg>
