<svg width="384" height="498" viewBox="0 0 384 498" fill="none" xmlns="http://www.w3.org/2000/svg">
<path fill-rule="evenodd" clip-rule="evenodd" d="M33.7753 428.26C34.275 428.26 33.7753 423.513 33.7753 422.763C33.7753 422.584 33.3485 421.637 32.685 420.265C34.0932 422.014 45.7685 429.51 46.5181 429.26C47.2676 429.01 46.2682 426.012 46.0183 424.512C45.8185 423.313 37.773 404.357 33.7753 395.029C33.109 393.53 32.1762 390.532 33.7753 390.532C40.0218 391.281 48.2671 403.774 50.0161 406.772C51.7651 409.771 53.764 408.521 54.0138 407.272C54.2637 406.023 52.5147 393.03 50.7657 386.284C49.0166 379.538 42.0206 366.295 37.2733 359.549C32.526 352.803 24.0308 348.555 23.2812 348.056C22.5316 347.556 22.0319 343.808 22.0319 339.81V328.067C22.0319 325.318 22.7815 316.573 23.2812 312.826C23.7809 309.078 27.0291 297.085 28.2784 290.089C29.5277 283.092 32.2761 264.353 33.2756 259.356C34.0751 255.358 38.6059 234.87 40.7713 225.125C41.854 223.709 44.0694 221.028 44.2693 221.627C44.5192 222.377 53.2642 244.115 55.7628 249.112C58.2147 254.015 68.847 269.024 73.2575 275.25L73.5028 275.597C77.7504 281.593 88.7441 289.589 89.7436 290.838C90.743 292.087 88.2444 307.079 87.7447 311.326C87.245 315.574 87.7447 332.564 87.7447 334.563C87.7447 336.562 87.9946 358.3 88.4943 362.797C88.994 367.295 90.2433 393.03 90.2433 396.028C90.2433 399.027 88.994 412.519 88.4943 418.016C87.9946 423.513 87.245 442.252 87.245 447.249C87.245 451.247 86.079 453.079 85.496 453.496C77.5005 451.497 69.2552 455.245 66.2569 456.744C63.2586 458.243 55.7628 468.238 54.5135 470.236C53.2642 472.235 45.7685 482.479 48.2671 482.23C50.2659 482.03 60.4268 475.317 65.2574 471.985L85.496 463.49C81.5815 465.489 73.2529 469.637 71.2541 470.236C68.7555 470.986 59.2608 486.977 60.0104 486.977C60.76 486.977 73.2529 479.231 75.5016 478.232C77.3006 477.432 80.5821 476.733 81.998 476.483C80.9985 477.482 77.0008 491.474 77.7504 491.474C78.4999 491.474 95.99 480.231 98.4886 478.232C100.987 476.233 104.485 474.234 106.234 471.985C107.983 469.737 110.482 459.243 110.982 455.245C111.481 451.247 110.982 434.757 110.982 431.009C110.982 427.261 112.231 413.519 112.481 410.77C112.731 408.022 113.73 383.286 113.73 379.788C113.73 376.29 110.982 367.045 110.732 364.296C110.482 361.548 111.481 358.55 111.731 354.552C111.981 350.554 115.979 331.565 117.228 326.318C118.227 322.12 120.643 312.909 121.725 308.828C129.971 311.16 147.811 316.174 153.208 317.573C159.954 319.322 184.69 320.072 189.937 320.321C195.184 320.571 216.422 317.823 222.918 316.573C229.414 315.324 253.401 307.828 254.4 308.328C255.4 308.828 257.648 330.316 258.648 333.564C259.647 336.812 263.645 351.304 264.645 355.052C265.644 358.8 265.394 369.543 265.144 372.292C264.894 375.04 264.645 391.031 264.645 394.529C264.645 398.027 266.144 415.767 266.144 422.513V447.499C266.144 451.497 265.394 460.242 265.144 461.991C264.894 463.74 266.394 469.987 272.89 477.482C279.386 484.978 285.133 487.477 289.38 489.975C293.628 492.474 300.874 494.972 301.124 494.473C301.324 494.073 297.221 484.312 295.144 479.481C302.674 482.576 311.43 485.852 311.118 485.228C310.718 484.428 303.025 473.068 299.228 467.488C303.936 469.435 314.766 474.074 320.363 476.483C317.948 472.235 312.617 462.941 310.618 459.742C308.12 455.745 302.873 453.246 297.376 451.747C291.879 450.248 288.381 451.997 287.631 451.247C286.882 450.498 287.631 444.001 287.631 437.255C287.631 430.509 288.381 402.525 288.381 396.528C288.381 390.532 288.881 374.041 288.381 366.295C287.881 358.55 286.882 349.555 286.882 345.057C286.882 340.56 289.131 329.566 290.13 322.57C291.129 315.574 293.628 292.087 294.128 291.338C294.628 290.588 314.116 272.349 325.36 258.606C334.355 247.613 341.434 227.207 343.85 218.379C345.849 221.377 350.096 243.365 351.345 247.862C352.595 252.36 353.594 270.1 354.094 275.097C354.594 280.094 355.343 296.585 356.093 301.832C356.842 307.079 358.092 318.822 358.341 323.57C358.591 328.317 356.842 337.562 356.592 339.56C356.343 341.559 354.094 350.304 353.344 350.804C352.595 351.304 347.098 358.55 344.599 361.298C342.101 364.047 333.356 381.537 331.607 385.784C329.858 390.032 327.109 401.775 326.859 408.771C326.659 414.368 329.108 419.432 330.357 421.264C331.357 418.266 333.655 410.87 334.855 405.273C336.354 398.277 341.851 393.28 342.85 392.031C343.85 390.781 347.847 389.282 349.596 391.531C351.345 393.78 351.096 411.27 350.096 417.266C349.097 423.263 346.348 443.002 347.098 443.252C347.847 443.502 349.846 441.753 351.096 440.753C352.345 439.754 358.591 421.514 359.841 415.767C360.84 411.17 360.923 400.693 360.84 396.028C361.673 399.36 363.389 406.922 363.588 410.52C363.838 415.018 361.59 434.257 362.339 435.756C363.089 437.255 369.585 429.51 371.334 426.261C373.083 423.013 376.081 415.268 377.581 411.27C379.08 407.272 381.079 389.782 380.829 381.537C380.579 373.291 376.331 355.801 375.582 353.553C374.832 351.304 375.582 344.558 375.582 341.309C375.582 338.061 377.581 308.328 377.83 301.832C378.08 295.336 377.331 271.099 377.081 265.602C376.831 260.105 373.083 240.866 372.333 236.369C371.584 231.871 365.587 204.887 364.338 198.89C363.089 192.894 359.841 173.155 357.842 165.409C355.843 157.664 342.101 132.428 340.352 130.179C338.952 128.38 332.773 124.599 329.858 122.933C328.525 116.603 323.311 100.146 313.117 84.9547C301.133 68.1332 288.617 53.8274 275.398 42.2289C268.908 36.5341 262.249 31.492 255.4 27.1252C244.497 20.1737 233.114 14.9336 221.169 11.4963C186.439 1.50193 153.457 16.7433 135.468 25.7382C134.103 26.4205 132.721 27.1733 131.328 27.987C123.298 32.6761 114.891 39.3864 107.234 46.2808C98.7046 53.9601 91.1059 61.8677 85.9957 67.4646C75.5016 78.9581 68.5056 100.946 67.2563 104.693C66.007 108.441 65.5073 112.189 63.7583 112.939C62.0093 113.688 50.7657 124.182 41.7707 136.925C32.7758 149.668 26.0297 166.409 23.0314 175.403C20.0331 184.398 14.2863 212.382 13.5367 220.128C12.7872 227.874 8.28971 275.347 8.28971 279.594C8.28971 283.842 6.79056 324.319 6.5407 328.067C6.29085 331.815 5.29141 343.808 4.7917 348.056C4.29198 352.303 3.29256 361.298 3.04271 366.295C2.79285 371.292 3.29256 380.037 3.54242 383.286C3.79228 386.534 6.29087 397.528 7.2903 401.026C8.28973 404.524 13.037 413.019 14.2863 414.268C15.2858 415.268 19.5349 416.683 21.5345 417.266C21.9135 417.784 22.3271 418.359 22.7815 419.015C25.0303 422.264 33.2756 428.26 33.7753 428.26ZM134.968 248.612C129.971 250.211 127.222 248.779 126.473 247.862C123.724 245.864 118.327 241.066 118.727 237.868C119.227 233.87 126.473 227.624 130.97 225.125C135.468 222.627 149.21 218.379 157.955 216.63C166.7 214.881 182.441 213.632 187.688 213.632C192.935 213.632 214.173 214.631 222.668 215.881C231.163 217.13 248.654 222.627 252.651 224.626C256.649 226.624 259.897 231.871 259.647 235.12C259.397 238.368 251.402 240.117 245.655 240.117C239.909 240.117 218.171 237.868 207.177 237.118C196.183 236.369 174.446 237.118 168.449 237.868C162.452 238.618 141.214 246.613 134.968 248.612ZM226.916 150.418C224.117 152.416 219.42 152.083 217.421 151.667C216.422 150.168 222.918 145.42 223.168 143.921C223.418 142.422 221.669 142.172 218.421 142.172C215.173 142.172 195.184 151.667 189.437 151.667C183.69 151.667 171.447 143.921 168.199 142.922C164.951 141.922 162.203 143.172 162.203 145.42C162.203 147.669 164.701 148.669 164.201 150.418C163.702 152.167 156.956 151.167 152.708 148.669C148.46 146.17 149.46 141.423 149.71 138.175C149.959 134.926 158.705 128.68 162.203 126.431C165.701 124.182 173.196 120.435 177.194 118.186C181.192 115.937 190.187 114.438 193.685 114.688C197.183 114.938 208.676 119.935 211.675 121.684C214.673 123.433 221.169 125.931 224.917 128.18C228.665 130.429 231.163 135.176 232.163 138.924C233.162 142.672 230.414 147.919 226.916 150.418ZM180.942 97.1978C182.691 95.1989 185.689 87.2034 186.439 84.455C181.192 80.7071 169.948 77.7088 166.45 77.2091C162.952 76.7094 150.709 77.9587 145.712 79.4578C140.715 80.957 131.47 86.4539 130.72 87.7031C129.971 88.9524 128.472 99.6964 138.716 106.443C148.96 113.189 158.455 112.189 164.951 110.44C171.447 108.691 179.193 99.1966 180.942 97.1978ZM208.676 101.196C200.181 93.9496 201.43 86.4539 200.681 81.9564C202.013 81.54 206.228 80.4573 212.424 79.4578C220.17 78.2085 234.911 79.4578 239.409 80.7071C243.906 81.9564 259.397 85.2046 257.399 92.4505C255.4 99.6964 244.906 109.191 234.911 111.19C224.917 113.189 217.171 108.441 208.676 101.196Z" fill="#9FD580"/>
<path d="M275.398 42.2289C278.56 33.9836 283.084 14.9943 275.888 5C269.975 12.2544 257.598 26.8355 255.4 27.1252C262.249 31.492 268.908 36.5341 275.398 42.2289Z" fill="#68924F"/>
<path d="M200.681 81.9564C201.43 86.4539 200.181 93.9496 208.676 101.196C217.171 108.441 224.917 113.189 234.911 111.19C244.906 109.191 255.4 99.6964 257.399 92.4505C259.397 85.2046 243.906 81.9564 239.409 80.7071C234.911 79.4578 220.17 78.2085 212.424 79.4578C206.228 80.4573 202.013 81.54 200.681 81.9564Z" fill="black"/>
<path d="M186.439 84.455C185.689 87.2034 182.691 95.1989 180.942 97.1978C179.193 99.1966 171.447 108.691 164.951 110.44C158.455 112.189 148.96 113.189 138.716 106.443C128.472 99.6964 129.971 88.9524 130.72 87.7031C131.47 86.4539 140.715 80.957 145.712 79.4578C150.709 77.9587 162.952 76.7094 166.45 77.2091C169.948 77.7088 181.192 80.7071 186.439 84.455Z" fill="black"/>
<path d="M217.421 151.667C219.42 152.083 224.117 152.416 226.916 150.418C230.414 147.919 233.162 142.672 232.163 138.924C231.163 135.176 228.665 130.429 224.917 128.18C221.169 125.931 214.673 123.433 211.675 121.684C208.676 119.935 197.183 114.938 193.685 114.688C190.187 114.438 181.192 115.937 177.194 118.186C173.196 120.435 165.701 124.182 162.203 126.431C158.705 128.68 149.959 134.926 149.71 138.175C149.46 141.423 148.46 146.17 152.708 148.669C156.956 151.167 163.702 152.167 164.201 150.418C164.701 148.669 162.203 147.669 162.203 145.42C162.203 143.172 164.951 141.922 168.199 142.922C171.447 143.921 183.69 151.667 189.437 151.667C195.184 151.667 215.173 142.172 218.421 142.172C221.669 142.172 223.418 142.422 223.168 143.921C222.918 145.42 216.422 150.168 217.421 151.667Z" fill="#68924F"/>
<path d="M126.473 247.862C127.222 248.779 129.971 250.211 134.968 248.612C141.214 246.613 162.452 238.618 168.449 237.868C174.446 237.118 196.183 236.369 207.177 237.118C218.171 237.868 239.909 240.117 245.655 240.117C251.402 240.117 259.397 238.368 259.647 235.12C259.897 231.871 256.649 226.624 252.651 224.626C248.654 222.627 231.163 217.13 222.668 215.881C214.173 214.631 192.935 213.632 187.688 213.632C182.441 213.632 166.7 214.881 157.955 216.63C149.21 218.379 135.468 222.627 130.97 225.125C126.473 227.624 119.227 233.87 118.727 237.868C118.327 241.066 123.724 245.864 126.473 247.862Z" fill="#F57654"/>
<path d="M101.237 5.49972C96.4398 17.0931 103.236 37.5177 107.234 46.2808C114.891 39.3864 123.298 32.6761 131.328 27.987C120.22 25.9881 106.639 12.1626 101.237 5.49972Z" fill="#68924F"/>
<path d="M22.5317 394.03C23.1147 396.945 24.4806 403.274 25.2801 405.273C26.0411 407.176 30.5679 415.885 32.685 420.265M13.037 394.279C14.4529 399.526 17.4845 410.47 18.2841 412.269C19.0815 414.064 20.0381 415.222 21.5345 417.266M21.5345 417.266C21.9135 417.784 22.3271 418.359 22.7815 419.015C25.0303 422.264 33.2756 428.26 33.7753 428.26C34.275 428.26 33.7753 423.513 33.7753 422.763C33.7753 422.584 33.3485 421.637 32.685 420.265M21.5345 417.266C19.5349 416.683 15.2858 415.268 14.2863 414.268C13.037 413.019 8.28973 404.524 7.2903 401.026C6.29087 397.528 3.79228 386.534 3.54242 383.286C3.29256 380.037 2.79285 371.292 3.04271 366.295C3.29256 361.298 4.29198 352.303 4.7917 348.056C5.29141 343.808 6.29085 331.815 6.5407 328.067C6.79056 324.319 8.28971 283.842 8.28971 279.594C8.28971 275.347 12.7872 227.874 13.5367 220.128C14.2863 212.382 20.0331 184.398 23.0314 175.403C26.0297 166.409 32.7758 149.668 41.7707 136.925C50.7657 124.182 62.0093 113.688 63.7583 112.939C65.5073 112.189 66.007 108.441 67.2563 104.693C68.5056 100.946 75.5016 78.9581 85.9957 67.4646C91.1059 61.8677 98.7046 53.9601 107.234 46.2808M343.85 218.379C345.849 221.377 350.096 243.365 351.345 247.862C352.595 252.36 353.594 270.1 354.094 275.097C354.594 280.094 355.343 296.585 356.093 301.832C356.842 307.079 358.092 318.822 358.341 323.57C358.591 328.317 356.842 337.562 356.592 339.56C356.343 341.559 354.094 350.304 353.344 350.804C352.595 351.304 347.098 358.55 344.599 361.298C342.101 364.047 333.356 381.537 331.607 385.784C329.858 390.032 327.109 401.775 326.859 408.771C326.659 414.368 329.108 419.432 330.357 421.264C331.357 418.266 333.655 410.87 334.855 405.273C336.354 398.277 341.851 393.28 342.85 392.031C343.85 390.781 347.847 389.282 349.596 391.531C351.345 393.78 351.096 411.27 350.096 417.266C349.097 423.263 346.348 443.002 347.098 443.252C347.847 443.502 349.846 441.753 351.096 440.753C352.345 439.754 358.591 421.514 359.841 415.767C360.84 411.17 360.923 400.693 360.84 396.028C361.673 399.36 363.389 406.922 363.588 410.52C363.838 415.018 361.59 434.257 362.339 435.756C363.089 437.255 369.585 429.51 371.334 426.261C373.083 423.013 376.081 415.268 377.581 411.27C379.08 407.272 381.079 389.782 380.829 381.537C380.579 373.291 376.331 355.801 375.582 353.553C374.832 351.304 375.582 344.558 375.582 341.309C375.582 338.061 377.581 308.328 377.83 301.832C378.08 295.336 377.331 271.099 377.081 265.602C376.831 260.105 373.083 240.866 372.334 236.369C371.584 231.871 365.587 204.887 364.338 198.89C363.089 192.894 359.841 173.155 357.842 165.409C355.843 157.664 342.101 132.428 340.352 130.179C338.952 128.38 332.773 124.599 329.858 122.933C328.525 116.603 323.311 100.146 313.117 84.9547C301.133 68.1332 288.617 53.8274 275.399 42.2289M343.85 218.379C346.848 207.585 346.765 191.394 346.348 184.648M343.85 218.379C341.434 227.207 334.355 247.613 325.36 258.606C314.116 272.349 294.628 290.588 294.128 291.338C293.628 292.087 291.13 315.574 290.13 322.57C289.131 329.566 286.882 340.56 286.882 345.057C286.882 349.555 287.881 358.55 288.381 366.295C288.881 374.041 288.381 390.532 288.381 396.528C288.381 402.525 287.631 430.509 287.631 437.255C287.631 444.001 286.882 450.498 287.631 451.247C288.381 451.997 291.879 450.248 297.376 451.747C302.873 453.246 308.12 455.745 310.618 459.742C312.617 462.941 317.948 472.235 320.363 476.483C314.766 474.074 303.936 469.435 299.228 467.488M285.633 462.491C288.464 463.49 294.777 465.739 297.376 466.738C297.764 466.888 298.402 467.146 299.228 467.488M299.228 467.488C303.025 473.068 310.718 484.428 311.118 485.228C311.43 485.852 302.674 482.576 295.144 479.481M285.133 474.984C286.539 475.828 290.621 477.622 295.144 479.481M295.144 479.481C297.221 484.312 301.324 494.073 301.124 494.473C300.874 494.972 293.628 492.474 289.38 489.975C285.133 487.477 279.386 484.978 272.89 477.482C266.394 469.987 264.894 463.74 265.144 461.991C265.394 460.242 266.144 451.497 266.144 447.499M266.144 447.499C266.144 443.502 266.144 429.26 266.144 422.513M266.144 447.499V422.513M266.144 422.513C266.144 415.767 264.645 398.027 264.645 394.529C264.645 391.031 264.894 375.04 265.144 372.292C265.394 369.543 265.644 358.8 264.645 355.052C263.645 351.304 259.647 336.812 258.648 333.564C257.648 330.316 255.4 308.828 254.4 308.328C253.401 307.828 229.414 315.324 222.918 316.573C216.422 317.823 195.184 320.571 189.937 320.321C184.69 320.072 159.954 319.322 153.208 317.573C147.811 316.174 129.971 311.16 121.725 308.828C120.643 312.909 118.227 322.12 117.228 326.318C115.979 331.565 111.981 350.554 111.731 354.552C111.481 358.55 110.482 361.548 110.732 364.296C110.982 367.045 113.73 376.29 113.73 379.788C113.73 383.286 112.731 408.022 112.481 410.77C112.231 413.519 110.982 427.261 110.982 431.009C110.982 434.757 111.481 451.247 110.982 455.245C110.482 459.243 107.983 469.737 106.234 471.985C104.485 474.234 100.987 476.233 98.4886 478.232C95.99 480.231 78.4999 491.474 77.7504 491.474C77.0008 491.474 80.9985 477.482 81.998 476.483M81.998 476.483C82.7975 475.683 90.4932 471.486 94.241 469.487M81.998 476.483C80.5821 476.733 77.3006 477.432 75.5016 478.232C73.2529 479.231 60.76 486.977 60.0104 486.977C59.2608 486.977 68.7555 470.986 71.254 470.236C73.2529 469.637 81.5815 465.489 85.496 463.49L65.2574 471.985C60.4268 475.317 50.2659 482.03 48.2671 482.23C45.7685 482.48 53.2642 472.235 54.5135 470.236C55.7628 468.238 63.2586 458.243 66.2569 456.744C69.2552 455.245 77.5005 451.497 85.496 453.496C86.079 453.079 87.245 451.247 87.245 447.249C87.245 442.252 87.9946 423.513 88.4943 418.016C88.994 412.519 90.2433 399.027 90.2433 396.028C90.2433 393.03 88.994 367.295 88.4943 362.797C87.9946 358.3 87.7447 336.562 87.7447 334.563C87.7447 332.564 87.245 315.574 87.7447 311.326C88.2444 307.079 90.743 292.087 89.7436 290.838C88.7441 289.589 77.7504 281.593 73.5028 275.597M73.5028 275.597L73.2575 275.25M73.5028 275.597C73.4233 275.485 73.3416 275.369 73.2575 275.25M22.0319 328.067C22.0319 325.318 22.7815 316.573 23.2812 312.826C23.7809 309.078 27.0291 297.085 28.2784 290.088C29.5277 283.092 32.2761 264.353 33.2756 259.356C34.0751 255.358 38.6059 234.87 40.7713 225.125C41.854 223.709 44.0694 221.028 44.2693 221.627C44.5192 222.377 53.2642 244.115 55.7628 249.112C58.2147 254.015 68.847 269.024 73.2575 275.25M22.0319 328.067C22.0319 330.815 22.0319 335.813 22.0319 339.81M22.0319 328.067V339.81M22.0319 339.81C22.0319 343.808 22.5316 347.556 23.2812 348.056C24.0308 348.555 32.526 352.803 37.2733 359.549C42.0206 366.295 49.0166 379.538 50.7657 386.284C52.5147 393.03 54.2637 406.023 54.0138 407.272C53.764 408.521 51.7651 409.771 50.0161 406.772C48.2671 403.774 40.0218 391.281 33.7753 390.532C32.1762 390.532 33.109 393.53 33.7753 395.029C37.773 404.357 45.8185 423.313 46.0183 424.512C46.2682 426.011 47.2676 429.01 46.5181 429.26C45.7685 429.51 34.0932 422.014 32.685 420.265M107.234 46.2808C103.236 37.5177 96.4398 17.0931 101.237 5.49972C106.639 12.1626 120.22 25.9881 131.328 27.987M107.234 46.2808C114.891 39.3864 123.298 32.6761 131.328 27.987M131.328 27.987C132.721 27.1733 134.103 26.4205 135.468 25.7382C153.457 16.7433 186.439 1.50193 221.169 11.4963C233.114 14.9336 244.497 20.1737 255.4 27.1252M275.399 42.2289C278.56 33.9836 283.084 14.9943 275.888 5C269.975 12.2544 257.598 26.8355 255.4 27.1252M275.399 42.2289C268.908 36.5341 262.249 31.492 255.4 27.1252M132.469 236.119C141.631 232.288 165.201 224.626 186.189 224.626C207.177 224.626 236.077 229.789 247.904 232.371M129.471 76.4595C136.217 73.8776 151.309 68.614 157.705 68.2142C165.701 67.7145 176.944 69.2136 181.691 73.7111C186.439 78.2085 187.188 81.7065 186.439 84.455M186.439 84.455C185.689 87.2034 182.691 95.1989 180.942 97.1978C179.193 99.1966 171.447 108.691 164.951 110.44C158.455 112.189 148.96 113.189 138.716 106.443C128.472 99.6964 129.971 88.9524 130.72 87.7031C131.47 86.4539 140.715 80.957 145.712 79.4578C150.709 77.9587 162.952 76.7094 166.45 77.2091C169.948 77.7088 181.192 80.7071 186.439 84.455ZM259.397 80.7071C253.984 77.5422 241.707 70.7627 235.911 68.9638C228.665 66.715 215.672 66.715 209.426 70.2131C203.179 73.7111 199.931 77.459 200.681 81.9564M200.681 81.9564C201.43 86.4539 200.181 93.9496 208.676 101.196C217.171 108.441 224.917 113.189 234.911 111.19C244.906 109.191 255.4 99.6964 257.399 92.4505C259.397 85.2046 243.906 81.9564 239.409 80.7071C234.911 79.4578 220.17 78.2085 212.424 79.4578C206.228 80.4573 202.013 81.54 200.681 81.9564ZM126.473 247.862C127.222 248.779 129.971 250.211 134.968 248.612C141.214 246.613 162.452 238.618 168.449 237.868C174.446 237.119 196.183 236.369 207.177 237.119C218.171 237.868 239.909 240.117 245.655 240.117C251.402 240.117 259.397 238.368 259.647 235.12C259.897 231.871 256.649 226.624 252.651 224.626C248.654 222.627 231.163 217.13 222.668 215.881C214.173 214.631 192.935 213.632 187.688 213.632C182.441 213.632 166.7 214.881 157.955 216.63C149.21 218.379 135.468 222.627 130.97 225.125C126.473 227.624 119.227 233.87 118.727 237.868C118.327 241.066 123.724 245.864 126.473 247.862ZM217.421 151.667C219.42 152.083 224.117 152.416 226.916 150.418C230.414 147.919 233.162 142.672 232.163 138.924C231.163 135.176 228.665 130.429 224.917 128.18C221.169 125.931 214.673 123.433 211.675 121.684C208.676 119.935 197.183 114.938 193.685 114.688C190.187 114.438 181.192 115.937 177.194 118.186C173.196 120.435 165.701 124.182 162.203 126.431C158.705 128.68 149.959 134.926 149.71 138.175C149.46 141.423 148.46 146.17 152.708 148.669C156.956 151.167 163.702 152.167 164.201 150.418C164.701 148.669 162.203 147.669 162.203 145.42C162.203 143.172 164.951 141.922 168.199 142.922C171.447 143.921 183.69 151.667 189.437 151.667C195.184 151.667 215.173 142.172 218.421 142.172C221.669 142.172 223.418 142.422 223.168 143.921C222.918 145.42 216.422 150.168 217.421 151.667Z" stroke="black" stroke-width="5"/>
<ellipse cx="146.894" cy="92.2006" rx="7.49575" ry="9.24476" fill="white"/>
<ellipse cx="220.958" cy="90.9465" rx="7.49575" ry="9.24476" transform="rotate(10.8364 220.958 90.9465)" fill="white"/>
<ellipse cx="165.883" cy="90.4517" rx="3.49802" ry="4.49745" fill="white"/>
<ellipse cx="239.938" cy="92.7987" rx="3.49802" ry="4.49745" transform="rotate(10.8364 239.938 92.7987)" fill="white"/>
</svg>
