<svg width="1920" height="381" viewBox="0 0 1920 381" fill="none" xmlns="http://www.w3.org/2000/svg">
<g clip-path="url(#clip0_2002_170)">
<path d="M632.595 67.7108C626.669 73.9218 621.866 78.9562 614.286 83.33L613.968 83.3732L606.815 74.1655C606.815 74.1655 598.184 86.418 592.856 81.3896C589.523 78.2439 588.266 69.0736 588.266 69.0736C588.266 69.0736 583.235 93.3956 575.371 85.2685C570.304 80.031 571.215 74.446 572.312 67.7284C572.825 64.5796 573.38 61.1819 573.378 57.4545C573.376 53.224 572.936 47.9227 572.438 43.2754C572.252 41.5382 569.742 41.5241 569.466 43.2493C567.073 58.1836 562.021 83.5037 554.778 87.6069C552.429 87.1659 550.521 86.7593 549.194 86.4616C548.769 86.056 548.339 85.5744 547.903 85.0124C544.265 80.3202 540.783 70.7176 540.783 70.7176C540.783 70.7176 536.645 85.4313 530.166 86.7248C525.13 87.7304 522.917 79.7791 521.998 70.8529C521.932 70.2046 518.014 69.9086 517.867 70.5435C514.549 84.8683 508.888 99.7184 500.281 93.3547C495.328 89.6923 489.995 79.4449 489.995 79.4449C489.995 79.4449 482.46 105.553 474.159 99.1496C469.738 95.7395 466.972 84.5523 466.972 84.5523C466.972 84.5523 459.202 89.2435 453.911 87.4498C445.458 84.5843 439.129 63.7429 439.129 63.7429C439.129 63.7429 435.375 91.2857 426.292 87.5446C424.794 86.9275 423.816 85.8385 422.817 84.7256C421.93 83.7369 421.025 82.7294 419.724 82.0171C409.346 76.3365 395.924 96.1865 395.924 96.1865C395.924 96.1865 396.685 70.9085 390.024 72.7316C386.967 73.5683 386.872 77.1938 386.767 81.2148C386.691 84.1128 386.61 87.2162 385.411 89.6292C381.813 96.8685 372.486 103.608 372.486 103.608C372.486 103.608 364.706 90.8477 358.503 90.8361C354.961 90.8295 353.871 95.4228 352.814 99.8752C351.722 104.474 350.666 108.923 346.981 107.997C346.353 107.839 345.802 107.565 345.308 107.2L343.338 103.09C342.926 102.874 342.509 102.64 342.088 102.392C341.912 101.995 341.739 101.591 341.566 101.186C340.321 98.2821 339.048 95.3126 336.473 94.1359C334.129 93.0646 332.493 93.9521 331.205 95.8408C328.86 94.9927 326.881 95.2027 325.63 97.6238C324.331 100.139 325.162 103.261 325.976 106.314C326.137 106.92 326.298 107.523 326.441 108.118C326.272 108.547 326.097 108.965 325.916 109.367L326.775 113.237C326.615 113.873 326.342 114.469 325.92 115.015C323.592 118.018 320.015 115.17 316.317 112.226C312.737 109.376 309.044 106.435 306.261 108.627C301.389 112.465 303.146 127.307 303.146 127.307C303.146 127.307 291.647 127.762 284.348 124.288C281.915 123.13 279.935 120.739 278.086 118.505C275.521 115.407 273.209 112.613 270.287 113.842C263.922 116.519 280.125 135.937 280.125 135.937C280.125 135.937 257.312 128.605 252.654 139.481C252.07 140.845 251.98 142.196 251.892 143.521C251.793 145.014 251.696 146.474 250.899 147.884C246.063 156.434 226.107 137.083 226.107 137.083C226.107 137.083 233.993 157.387 229.112 164.859C226.057 169.536 217.048 170.642 217.048 170.642C217.048 170.642 221.777 181.151 220.405 186.563C217.827 196.725 195.782 180.836 195.782 180.836C195.782 180.836 197.913 192.19 196.277 198.129C193.434 208.449 179.813 200.26 168.36 191.039C167.852 190.63 164.953 193.282 165.301 193.833C170.088 201.422 173.256 209.044 168.673 211.362C162.777 214.343 150.439 205.323 150.439 205.323C150.439 205.323 153.627 215.026 153.662 220.964C153.764 238.832 125.252 214.682 110.917 201.419C109.635 200.232 107.669 201.792 108.595 203.274C111.072 207.238 113.998 211.68 116.608 215.009C118.908 217.943 121.442 220.274 123.79 222.434C128.799 227.042 132.963 230.873 132.21 238.122C131.041 249.369 112.068 233.341 112.068 233.341C112.068 233.341 116.74 241.332 116.06 245.864C114.973 253.108 100.618 248.797 100.618 248.797L100.675 260.457L84.5781 269.892L85.0391 270.853L80.1321 274.081L69.7039 268.866C69.7039 268.866 67.2114 283.645 60.2345 281.411C55.87 280.014 50.7746 272.287 50.7746 272.287C50.7746 272.287 56.7429 296.396 46.1406 292.462C39.3081 289.928 37.7175 284.497 35.8044 277.965C34.9077 274.903 33.94 271.599 32.3284 268.238C30.4993 264.424 27.8123 259.833 25.3559 255.856C24.4376 254.37 22.1679 255.441 22.6638 257.117C28.2071 275.843 37.2311 312.102 21.2566 304.097C15.9483 301.436 8.66064 294.28 8.66064 294.28C8.66064 294.28 11.2835 309.338 5.99948 313.303C1.89153 316.385 -3.53889 310.17 -8.22307 302.516C-8.56327 301.96 -12.2245 303.386 -12.0829 304.022C-8.88768 318.374 -7.57867 334.213 -18.0901 332.191C-24.1394 331.028 -33.3756 324.089 -33.3756 324.089C-33.3756 324.089 -28.8939 350.891 -39.1463 348.701C-44.6062 347.535 -51.9335 338.641 -51.9335 338.641C-51.9335 338.641 -56.9149 346.228 -62.4615 346.896C-71.3226 347.962 -86.0338 331.9 -86.0338 331.9C-86.0338 331.9 -77.5222 358.362 -87.3298 358.911C-88.9475 359.002 -90.2997 358.442 -91.6816 357.87C-92.9091 357.362 -94.1601 356.844 -95.6415 356.763C-107.455 356.123 -110.986 379.823 -110.986 379.823C-110.986 379.823 -121.219 356.696 -126.438 361.218C-128.834 363.293 -127.353 366.604 -125.711 370.276C-124.528 372.922 -123.261 375.756 -123.3 378.45C-123.418 386.534 -128.919 396.641 -128.919 396.641C-128.919 396.641 -141.448 388.493 -147.046 391.162C-150.244 392.686 -149.243 397.299 -148.273 401.772C-147.271 406.391 -146.302 410.859 -150.026 411.616C-152.852 412.19 -155.322 410.028 -157.851 407.813C-160.229 405.731 -162.659 403.603 -165.49 403.654C-170.65 403.747 -169.857 409.695 -169.041 415.816C-168.76 417.918 -168.478 420.039 -168.432 421.951L-95.6415 572H2089.73L2166.88 421.951C2166.93 420.039 2167.21 417.918 2167.49 415.817C2168.31 409.695 2169.1 403.747 2163.94 403.654C2161.11 403.603 2158.68 405.731 2156.3 407.813C2153.77 410.028 2151.3 412.19 2148.48 411.616C2144.75 410.859 2145.72 406.391 2146.72 401.772C2147.69 397.3 2148.7 392.686 2145.5 391.162C2139.9 388.493 2127.37 396.641 2127.37 396.641C2127.37 396.641 2121.87 386.534 2121.75 378.45C2121.71 375.756 2122.98 372.922 2124.16 370.276C2125.81 366.604 2127.29 363.293 2124.89 361.218C2119.67 356.696 2109.44 379.823 2109.44 379.823C2109.44 379.823 2105.91 356.123 2094.09 356.763C2092.61 356.844 2091.36 357.362 2090.13 357.87C2088.75 358.442 2087.4 359.002 2085.78 358.911C2075.97 358.362 2084.49 331.9 2084.49 331.9C2084.49 331.9 2069.77 347.962 2060.91 346.896C2055.37 346.228 2050.39 338.641 2050.39 338.641C2050.39 338.641 2043.06 347.535 2037.6 348.701C2027.35 350.891 2031.83 324.089 2031.83 324.089C2031.83 324.089 2022.59 331.028 2016.54 332.191C2006.03 334.213 2007.34 318.374 2010.53 304.022C2010.68 303.386 2007.02 301.96 2006.68 302.516C2001.99 310.17 1996.56 316.385 1992.45 313.303C1987.17 309.338 1989.79 294.28 1989.79 294.28C1989.79 294.28 1982.5 301.436 1977.2 304.097C1961.22 312.102 1970.24 275.843 1975.79 257.117C1976.28 255.441 1974.01 254.37 1973.1 255.856C1970.64 259.833 1967.95 264.424 1966.12 268.238C1964.51 271.599 1963.54 274.903 1962.65 277.965C1960.73 284.497 1959.14 289.928 1952.31 292.462C1941.71 296.396 1947.68 272.287 1947.68 272.287C1947.68 272.287 1942.58 280.014 1938.22 281.411C1931.24 283.645 1928.75 268.866 1928.75 268.866L1918.32 274.081L1913.41 270.853L1913.87 269.892L1897.78 260.457L1897.83 248.797C1897.83 248.797 1883.48 253.108 1882.39 245.864C1881.71 241.332 1886.38 233.341 1886.38 233.341C1886.38 233.341 1867.41 249.369 1866.24 238.122C1865.49 230.873 1869.65 227.042 1874.66 222.434C1877.01 220.274 1879.54 217.943 1881.84 215.009C1884.45 211.68 1887.38 207.238 1889.86 203.274C1890.78 201.792 1888.82 200.232 1887.53 201.419C1873.2 214.682 1844.69 238.832 1844.79 220.964C1844.82 215.026 1848.01 205.323 1848.01 205.323C1848.01 205.323 1835.67 214.343 1829.78 211.362C1825.2 209.044 1828.36 201.422 1833.15 193.833C1833.5 193.282 1830.6 190.63 1830.09 191.039C1818.64 200.26 1805.02 208.449 1802.18 198.129C1800.54 192.19 1802.67 180.836 1802.67 180.836C1802.67 180.836 1780.62 196.725 1778.05 186.563C1776.67 181.151 1781.4 170.642 1781.4 170.642C1781.4 170.642 1772.4 169.536 1769.34 164.859C1764.46 157.387 1772.35 137.083 1772.35 137.083C1772.35 137.083 1752.39 156.434 1747.55 147.884C1746.76 146.474 1746.66 145.014 1746.56 143.521C1746.47 142.196 1746.38 140.845 1745.8 139.481C1741.14 128.605 1718.33 135.937 1718.33 135.937C1718.33 135.937 1734.53 116.519 1728.16 113.842C1725.24 112.613 1722.93 115.407 1720.37 118.505C1718.52 120.738 1716.54 123.13 1714.1 124.288C1706.8 127.762 1695.31 127.307 1695.31 127.307C1695.31 127.307 1697.06 112.465 1692.19 108.627C1689.41 106.435 1685.71 109.376 1682.13 112.226C1678.44 115.17 1674.86 118.018 1672.53 115.015C1672.11 114.469 1671.84 113.873 1671.68 113.237L1672.54 109.367C1672.35 108.965 1672.18 108.547 1672.01 108.118C1672.15 107.523 1672.31 106.92 1672.48 106.314C1673.29 103.261 1674.12 100.139 1672.82 97.6238C1671.57 95.2027 1669.59 94.9927 1667.25 95.8408C1665.96 93.9521 1664.32 93.0646 1661.98 94.1359C1659.4 95.3126 1658.13 98.2821 1656.89 101.186C1656.71 101.591 1656.54 101.995 1656.36 102.392C1655.94 102.64 1655.53 102.874 1655.11 103.09L1653.14 107.2C1652.65 107.565 1652.1 107.839 1651.47 107.997C1647.79 108.923 1646.73 104.474 1645.64 99.8752C1644.58 95.4228 1643.49 90.8295 1639.95 90.8361C1633.75 90.8477 1625.97 103.608 1625.97 103.608C1625.97 103.608 1616.64 96.8685 1613.04 89.6292C1611.84 87.2162 1611.76 84.1127 1611.68 81.2147C1611.58 77.1937 1611.48 73.5683 1608.43 72.7316C1601.77 70.9085 1602.53 96.1865 1602.53 96.1865C1602.53 96.1865 1589.11 76.3365 1578.73 82.0171C1577.43 82.7294 1576.52 83.7369 1575.63 84.7256C1574.64 85.8385 1573.66 86.9275 1572.16 87.5446C1563.08 91.2857 1559.32 63.7429 1559.32 63.7429C1559.32 63.7429 1552.99 84.5843 1544.54 87.4498C1539.25 89.2435 1531.48 84.5523 1531.48 84.5523C1531.48 84.5523 1528.71 95.7395 1524.29 99.1496C1515.99 105.553 1508.46 79.4449 1508.46 79.4449C1508.46 79.4449 1503.12 89.6923 1498.17 93.3547C1489.56 99.7184 1483.9 84.8683 1480.59 70.5435C1480.44 69.9086 1476.52 70.2046 1476.45 70.8529C1475.54 79.7791 1473.32 87.7304 1468.29 86.7248C1461.81 85.4313 1457.67 70.7176 1457.67 70.7176C1457.67 70.7176 1454.19 80.3202 1450.55 85.0124C1439.6 99.133 1432.08 62.5331 1428.99 43.2493C1428.71 41.5241 1426.2 41.5382 1426.01 43.2754C1425.52 47.9227 1425.08 53.224 1425.07 57.4545C1425.07 61.1819 1425.63 64.5796 1426.14 67.7284C1427.24 74.446 1428.15 80.031 1423.08 85.2685C1415.22 93.3956 1410.19 69.0736 1410.19 69.0736C1410.19 69.0736 1408.93 78.2439 1405.6 81.3896C1400.27 86.418 1391.64 74.1655 1391.64 74.1655L1384.48 83.3732L1366 80.8592L1365.05 85.1126L1353.8 84.4278L1347.01 73.943C1347.01 73.943 1331.92 83.984 1326.32 77.9519C1322.81 74.1784 1323.85 65.0001 1323.85 65.0001C1323.85 65.0001 1309.98 87.5402 1301.92 77.9519C1296.73 71.7728 1299.59 66.5445 1303.03 60.2559C1304.64 57.3081 1306.38 54.1273 1307.48 50.5065C1308.97 45.5793 1310.08 39.0213 1310.8 33.8613C1311.03 32.2038 1308.79 31.5092 1308.01 32.989C1299.03 49.9695 1276.45 88.7603 1265.47 71.7844C1262.02 66.4428 1260.22 56.3656 1260.22 56.3656C1260.22 56.3656 1250.38 69.7653 1241.38 69.6257C1233.08 69.4969 1233.8 57.9523 1236.18 47.4319C1236.33 46.8002 1233.35 45.5602 1233.02 46.116C1224.33 60.6304 1210.51 78.7149 1199.69 69.6257C1194.18 65.0012 1190.12 53.8986 1190.12 53.8986C1190.12 53.8986 1172.4 77.634 1163.25 69.6257C1158.37 65.3609 1158 53.8986 1158 53.8986C1158 53.8986 1146.28 56.7809 1139.77 53.8986C1129.38 49.294 1127.11 27.6867 1127.11 27.6867C1127.11 27.6867 1114 53.6304 1103.02 48.0395C1101.21 47.1173 1100.23 45.8488 1099.23 44.5525C1098.34 43.401 1097.44 42.2275 1095.92 41.2552C1083.79 33.5013 1060.09 49.8897 1060.09 49.8897C1060.09 49.8897 1068.56 25.5009 1059.17 25.8364C1054.85 25.9904 1053.66 29.4915 1052.33 33.3745C1051.38 36.173 1050.35 39.1699 1048.05 41.2552C1041.13 47.5115 1026.74 52.0483 1026.74 52.0483C1026.74 52.0483 1020.16 37.9773 1011.91 36.6296C1007.2 35.8599 1004.4 40.0864 1001.68 44.1833C998.873 48.4151 996.156 52.5086 991.529 50.8148C988.017 49.5294 987.188 46.3206 986.338 43.0331C985.539 39.944 984.723 36.7854 981.646 35.0877C976.037 31.9928 971.888 37.1366 967.619 42.4304C963.435 47.6173 959.135 52.9482 953.232 50.8148C948.776 49.2045 947.368 45.2799 945.941 41.3043C944.566 37.4744 943.175 33.5972 939.025 31.6956C932.926 28.9001 924.754 35.3677 918.179 40.5711C911.788 45.63 906.906 49.4939 906.906 42.4887V6.1004C906.906 0.304081 904.798 4.24792 901.38 10.6432C896.419 19.9269 888.697 34.3764 880.654 31.6956C876.564 30.3323 875.062 26.8887 873.542 23.4052C872.076 20.0444 870.593 16.6464 866.756 15.0433C859.285 11.923 854.639 20.6982 850.168 29.1422C845.698 37.5852 841.403 45.697 834.636 41.2552C832.773 40.0329 831.907 38.2405 831.071 36.5132C830.078 34.4599 829.129 32.4985 826.606 31.6956C822.708 30.4552 821.017 34.8858 819.332 39.3002C817.646 43.7164 815.967 48.1165 812.09 46.806C807.91 45.3929 809.777 41.2922 811.831 36.7809C813.817 32.4192 815.978 27.6738 813.017 24.6029C810.977 22.4878 808.13 27.8842 804.349 35.0479C798.282 46.5457 789.813 62.5962 778.426 59.4494C774.986 58.4988 772.952 55.8303 771.005 53.2772C768.717 50.2759 766.551 47.4342 762.366 47.7311C758.981 47.9713 757.075 51.4558 755.33 54.6465C753.428 58.1253 751.717 61.2548 748.487 59.4494C743.537 56.6822 743.686 52.0806 745.38 45.2641C748.225 33.8102 749.895 11.9877 745.38 15.0433C743.711 16.1727 741.695 20.4557 739.108 25.9531C735.28 34.0871 730.201 44.8796 723.143 52.0483C721.081 54.1425 719.27 56.4155 717.523 58.6073C712.507 64.9028 708.024 70.5279 699.671 69.3174C696.213 68.8164 694.221 66.6068 692.224 64.3918C690.246 62.1974 688.263 59.9977 684.846 59.4494C680.389 58.7342 677.229 61.765 674.149 64.7189C670.896 67.8382 667.733 70.8718 663.227 69.3174C656.724 67.0742 656.645 57.2387 656.589 50.1235C656.555 45.9268 656.529 42.6764 655.197 42.4887C653.105 42.1939 650.1 46.4132 646.549 51.3985C644.004 54.9707 641.18 58.9363 638.21 61.9164C636.176 63.958 634.337 65.8856 632.595 67.7108Z" fill="#FFC44A" stroke="black" stroke-width="5"/>
</g>
<defs>
<clipPath id="clip0_2002_170">
<rect width="1920" height="381" fill="white"/>
</clipPath>
</defs>
</svg>
