<svg width="335" height="259" viewBox="0 0 335 259" fill="none" xmlns="http://www.w3.org/2000/svg">
<path fill-rule="evenodd" clip-rule="evenodd" d="M168.323 176.531C263.37 176.531 332.006 154.349 332.006 83.216C332.006 17.4369 263.37 2.9043 168.323 2.9043C73.2771 2.9043 2.34583 15.9071 2.34583 83.216C2.34583 126.438 31.5945 152.629 77.6954 165.839L57.4173 257.813L109.038 172.509C127.266 175.246 147.199 176.531 168.323 176.531Z" fill="white"/>
<path d="M77.6954 165.839L79.9362 166.333L80.4005 164.227L78.3275 163.633L77.6954 165.839ZM57.4173 257.813L55.1765 257.319L59.3804 259.001L57.4173 257.813ZM109.038 172.509L109.379 170.24L107.867 170.013L107.075 171.321L109.038 172.509ZM329.712 83.216C329.712 100.614 325.52 114.888 317.878 126.548C310.227 138.219 299.025 147.414 284.786 154.493C256.232 168.689 215.748 174.236 168.323 174.236V178.825C215.945 178.825 257.302 173.282 286.829 158.603C301.629 151.245 313.526 141.558 321.716 129.064C329.912 116.559 334.301 101.384 334.301 83.216H329.712ZM168.323 5.19892C215.822 5.19892 256.348 8.8447 284.94 20.5174C299.195 26.3371 310.356 34.1024 317.958 44.2891C325.541 54.4513 329.712 67.1938 329.712 83.216H334.301C334.301 66.3486 329.892 52.6074 321.636 41.5444C313.398 30.5058 301.459 22.3044 286.674 16.2686C257.187 4.23019 215.871 0.609677 168.323 0.609677V5.19892ZM4.64044 83.216C4.64044 66.8164 8.95117 53.8907 16.7396 43.6614C24.5484 33.4054 35.9885 25.6832 50.5332 19.9543C79.7054 8.46384 120.81 5.19892 168.323 5.19892V0.609677C120.79 0.609677 78.9063 3.84617 48.8513 15.6844C33.7824 21.6197 21.5493 29.7687 13.0883 40.8813C4.60688 52.0207 0.0512056 65.9612 0.0512056 83.216H4.64044ZM78.3275 163.633C55.5127 157.095 37.0883 147.405 24.3871 134.192C11.7359 121.031 4.64044 104.253 4.64044 83.216H0.0512056C0.0512056 105.401 7.58008 123.33 21.0785 137.372C34.5268 151.362 53.7773 161.372 77.0633 168.045L78.3275 163.633ZM75.4546 165.345L55.1765 257.319L59.6581 258.307L79.9362 166.333L75.4546 165.345ZM59.3804 259.001L111.002 173.697L107.075 171.321L55.4541 256.625L59.3804 259.001ZM168.323 174.236C147.289 174.236 127.472 172.957 109.379 170.24L108.698 174.778C127.06 177.535 147.11 178.825 168.323 178.825V174.236Z" fill="black"/>
<path d="M51.7536 54.2873C51.5436 54.6022 51.3074 54.8646 51.045 55.1796C51.3862 55.442 51.7011 55.6257 51.9898 55.8619C53.5382 57.0953 53.9843 58.8537 53.2495 60.6907C52.8558 61.688 52.226 62.5278 51.4387 63.2626C50.3627 64.3123 49.0767 65.0209 47.6596 65.5458C47.0297 65.8082 46.4261 66.0444 45.8225 66.4381C44.7465 67.1204 43.5393 66.5955 43.3031 65.3096C43.1194 64.4173 43.0932 63.525 43.0669 62.6065C42.9357 58.4338 43.2769 54.261 43.5393 50.0883C43.6181 48.8286 44.2741 48.0675 45.5076 47.7526C47.2659 47.254 48.9718 47.3589 50.5989 48.1463C51.1237 48.3824 51.5961 48.7236 52.016 49.1435C52.987 50.1933 53.2757 51.453 52.6459 52.8176C52.4097 53.3425 52.0685 53.8149 51.7536 54.2873ZM46.5311 57.9614C46.4524 59.431 46.2949 60.7695 46.5311 62.3441C47.7646 61.8717 48.6568 61.3206 49.3654 60.5333C49.6016 60.2446 49.8116 59.9559 49.9953 59.6147C50.2839 59.0374 50.1002 58.6175 49.4966 58.3813C48.5519 58.0139 47.5808 57.9876 46.5311 57.9614ZM47.0297 50.9018C46.7935 51.9253 46.7673 52.8701 46.7411 54.1298C47.9745 53.3425 48.9455 52.6602 49.4704 51.5054C48.7356 50.7969 47.922 50.8756 47.0297 50.9018ZM63.7599 58.7487C63.4449 59.0636 63.1038 59.2998 62.6576 59.6147C63.3662 60.3233 64.1535 60.717 64.8621 61.1894C65.4919 61.6355 66.1743 62.0029 66.7516 62.5015C67.329 62.9477 67.434 63.6038 67.224 64.2861C67.0403 64.9422 66.5417 65.2834 65.9381 65.4408C65.5182 65.5458 65.072 65.4146 64.5209 65.0997C63.6286 64.6535 63.3924 64.2336 62.3689 63.3676C60.5056 61.7405 59.9283 61.8979 59.7708 61.9767C59.6921 62.0291 59.6396 62.0554 59.5609 62.1341C59.5609 62.764 59.5871 63.3151 59.5609 63.84C59.5346 64.6273 59.1935 65.2309 58.4324 65.5196C58.0387 65.677 57.5664 65.677 57.1465 65.4933C56.7528 65.3096 56.4379 64.9684 56.2804 64.5485C56.123 64.1286 56.0442 63.7087 55.9917 63.2626C55.5981 59.5885 55.5456 55.9144 55.6768 52.2403C55.7555 49.8521 55.9917 49.5897 58.2749 48.9073C60.2695 48.3037 62.1852 48.4612 63.996 49.5109C66.7254 51.0855 67.4602 54.1561 65.6756 56.7279C65.1508 57.489 64.4159 58.0926 63.7599 58.7487ZM62.5526 52.9226C61.7129 52.319 60.9255 52.0041 59.9283 52.319C59.5871 52.424 59.3509 52.7127 59.2984 53.0801C59.1935 53.6837 59.141 54.2873 59.141 54.8909C59.1672 55.5207 59.2197 56.1243 59.2722 56.6492C59.2984 56.8329 59.3772 56.9904 59.5346 57.0691C59.6921 57.1478 59.8758 57.1478 60.0333 57.0691C60.3744 56.9116 60.7156 56.7017 61.0305 56.4917C61.5554 56.1768 62.0278 55.7832 62.4214 55.337C62.6051 55.1533 62.7626 54.9171 62.8938 54.6809C63.2612 53.9986 63.1563 53.3425 62.5526 52.9226ZM77.7727 64.5223C77.7465 63.6563 77.7465 63.3676 77.6153 63.3151C77.4316 63.2626 77.1691 63.8137 76.9592 64.1286C76.0407 65.4408 73.6787 66.1494 71.8679 65.3883C70.5295 64.8372 69.8472 63.6825 69.611 63.0789C69.2435 62.1079 69.0074 61.0844 68.9024 60.0609C68.6399 57.6465 68.8761 55.232 69.0598 52.8176C69.0861 52.6077 69.1386 52.3715 69.2173 52.1878C69.4797 51.4792 70.1883 51.0331 70.8969 51.0855C71.6055 51.1643 72.1828 51.5054 72.3665 52.214C72.4978 52.7389 72.5765 53.29 72.524 53.8411C72.4978 55.1008 72.4453 56.3605 72.3403 57.6202C72.0516 61.0581 72.2616 61.5568 72.6027 61.8454C73.0226 62.1604 73.6787 62.2129 74.1249 62.0291C74.7285 61.7667 75.1746 60.6645 76.0144 58.4338C76.0144 58.4075 76.0407 58.3813 76.0669 58.3288C76.1719 58.0401 76.4606 57.2528 76.8804 55.8881C77.0904 55.2583 77.3528 54.6809 77.5365 54.0511C77.6678 53.6312 77.8515 53.2113 78.0877 52.8439C78.4813 52.2403 79.0849 52.0041 79.7935 52.109C80.5283 52.2403 81.1057 52.8176 81.2107 53.5262C81.2631 53.9723 81.2631 54.4185 81.2369 54.8646C81.0269 58.0926 81.1057 61.3206 81.3156 64.5748C81.3681 65.0997 81.3681 65.6508 81.3419 66.2019C81.2631 67.2516 80.607 67.9077 79.6885 67.934C78.7437 67.934 78.0877 67.3829 77.9302 66.3069C77.904 66.1494 77.8252 65.9132 77.7727 64.5223ZM91.737 64.4961C91.6058 63.2888 91.7108 60.8219 91.5008 60.9532C91.5271 60.7957 90.976 60.9532 90.8185 61.0056C89.7687 61.2681 87.9317 61.5305 87.6693 61.793C87.3806 62.0554 87.643 64.1024 87.4593 65.2834C87.1969 67.0942 84.5463 67.1204 84.1526 65.4146C83.7327 60.4808 84.2313 55.5207 84.2313 50.5869C84.1788 49.6159 84.8349 48.7236 85.806 48.5924C87.3018 48.4349 87.8792 49.8783 87.8005 51.1905C87.748 53.4737 86.567 58.1188 87.5905 57.9876C88.5878 57.8564 90.8185 57.7514 91.3959 57.1478C91.947 56.5705 91.4221 51.3217 92.3406 48.5662C92.5243 48.0675 92.9442 47.7001 93.4691 47.5689C93.994 47.4377 94.5451 47.5689 94.9387 47.8838C95.6998 48.4349 95.5686 49.3535 95.4899 50.167C95.0437 54.7597 95.0962 59.3785 95.1225 63.9974C95.1225 64.3911 95.0175 64.7585 94.8338 65.0997C94.0989 66.4643 91.9732 66.0182 91.737 64.4961ZM100.503 65.8345C100.555 66.753 99.7155 67.619 98.7445 67.6453C97.826 67.6715 97.0386 66.9892 96.9862 66.0707C96.9074 65.1259 97.721 64.2861 98.7182 64.2599C99.6368 64.2074 100.424 64.9159 100.503 65.8345ZM118.49 54.2873C118.28 54.6022 118.044 54.8646 117.782 55.1796C118.123 55.442 118.438 55.6257 118.727 55.8619C120.275 57.0953 120.721 58.8537 119.986 60.6907C119.593 61.688 118.963 62.5278 118.175 63.2626C117.099 64.3123 115.814 65.0209 114.396 65.5458C113.767 65.8082 113.163 66.0444 112.559 66.4381C111.483 67.1204 110.276 66.5955 110.04 65.3096C109.856 64.4173 109.83 63.525 109.804 62.6065C109.673 58.4338 110.014 54.261 110.276 50.0883C110.355 48.8286 111.011 48.0675 112.244 47.7526C114.003 47.254 115.709 47.3589 117.336 48.1463C117.861 48.3824 118.333 48.7236 118.753 49.1435C119.724 50.1933 120.013 51.453 119.383 52.8176C119.146 53.3425 118.805 53.8149 118.49 54.2873ZM113.268 57.9614C113.189 59.431 113.032 60.7695 113.268 62.3441C114.501 61.8717 115.394 61.3206 116.102 60.5333C116.338 60.2446 116.548 59.9559 116.732 59.6147C117.021 59.0374 116.837 58.6175 116.233 58.3813C115.289 58.0139 114.318 57.9876 113.268 57.9614ZM113.767 50.9018C113.53 51.9253 113.504 52.8701 113.478 54.1298C114.711 53.3425 115.682 52.6602 116.207 51.5054C115.472 50.7969 114.659 50.8756 113.767 50.9018ZM130.497 58.7487C130.182 59.0636 129.841 59.2998 129.394 59.6147C130.103 60.3233 130.89 60.717 131.599 61.1894C132.229 61.6355 132.911 62.0029 133.488 62.5015C134.066 62.9477 134.171 63.6038 133.961 64.2861C133.777 64.9422 133.278 65.2834 132.675 65.4408C132.255 65.5458 131.809 65.4146 131.258 65.0997C130.365 64.6535 130.129 64.2336 129.106 63.3676C127.242 61.7405 126.665 61.8979 126.508 61.9767C126.429 62.0291 126.376 62.0554 126.298 62.1341C126.298 62.764 126.324 63.3151 126.298 63.84C126.271 64.6273 125.93 65.2309 125.169 65.5196C124.776 65.677 124.303 65.677 123.883 65.4933C123.49 65.3096 123.175 64.9684 123.017 64.5485C122.86 64.1286 122.781 63.7087 122.729 63.2626C122.335 59.5885 122.282 55.9144 122.414 52.2403C122.492 49.8521 122.729 49.5897 125.012 48.9073C127.006 48.3037 128.922 48.4612 130.733 49.5109C133.462 51.0855 134.197 54.1561 132.412 56.7279C131.888 57.489 131.153 58.0926 130.497 58.7487ZM129.289 52.9226C128.45 52.319 127.662 52.0041 126.665 52.319C126.324 52.424 126.088 52.7127 126.035 53.0801C125.93 53.6837 125.878 54.2873 125.878 54.8909C125.904 55.5207 125.956 56.1243 126.009 56.6492C126.035 56.8329 126.114 56.9904 126.271 57.0691C126.429 57.1478 126.613 57.1478 126.77 57.0691C127.111 56.9116 127.452 56.7017 127.767 56.4917C128.292 56.1768 128.765 55.7832 129.158 55.337C129.342 55.1533 129.499 54.9171 129.631 54.6809C129.998 53.9986 129.893 53.3425 129.289 52.9226ZM144.51 64.5223C144.483 63.6563 144.483 63.3676 144.352 63.3151C144.168 63.2626 143.906 63.8137 143.696 64.1286C142.777 65.4408 140.416 66.1494 138.605 65.3883C137.266 64.8372 136.584 63.6825 136.348 63.0789C135.98 62.1079 135.744 61.0844 135.639 60.0609C135.377 57.6465 135.613 55.232 135.797 52.8176C135.823 52.6077 135.875 52.3715 135.954 52.1878C136.217 51.4792 136.925 51.0331 137.634 51.0855C138.342 51.1643 138.92 51.5054 139.103 52.214C139.235 52.7389 139.313 53.29 139.261 53.8411C139.235 55.1008 139.182 56.3605 139.077 57.6202C138.788 61.0581 138.998 61.5568 139.34 61.8454C139.759 62.1604 140.416 62.2129 140.862 62.0291C141.465 61.7667 141.911 60.6645 142.751 58.4338C142.751 58.4075 142.777 58.3813 142.804 58.3288C142.909 58.0401 143.197 57.2528 143.617 55.8881C143.827 55.2583 144.09 54.6809 144.273 54.0511C144.405 53.6312 144.588 53.2113 144.824 52.8439C145.218 52.2403 145.822 52.0041 146.53 52.109C147.265 52.2403 147.842 52.8176 147.947 53.5262C148 53.9723 148 54.4185 147.974 54.8646C147.764 58.0926 147.842 61.3206 148.052 64.5748C148.105 65.0997 148.105 65.6508 148.079 66.2019C148 67.2516 147.344 67.9077 146.425 67.934C145.481 67.934 144.824 67.3829 144.667 66.3069C144.641 66.1494 144.562 65.9132 144.51 64.5223ZM158.474 64.4961C158.343 63.2888 158.448 60.8219 158.238 60.9532C158.264 60.7957 157.713 60.9532 157.555 61.0056C156.506 61.2681 154.668 61.5305 154.406 61.793C154.117 62.0554 154.38 64.1024 154.196 65.2834C153.934 67.0942 151.283 67.1204 150.889 65.4146C150.469 60.4808 150.968 55.5207 150.968 50.5869C150.916 49.6159 151.572 48.7236 152.543 48.5924C154.039 48.4349 154.616 49.8783 154.537 51.1905C154.485 53.4737 153.304 58.1188 154.327 57.9876C155.325 57.8564 157.555 57.7514 158.133 57.1478C158.684 56.5705 158.159 51.3217 159.077 48.5662C159.261 48.0675 159.681 47.7001 160.206 47.5689C160.731 47.4377 161.282 47.5689 161.676 47.8838C162.437 48.4349 162.305 49.3535 162.227 50.167C161.781 54.7597 161.833 59.3785 161.859 63.9974C161.859 64.3911 161.754 64.7585 161.571 65.0997C160.836 66.4643 158.71 66.0182 158.474 64.4961ZM167.24 65.8345C167.292 66.753 166.452 67.619 165.481 67.6453C164.563 67.6715 163.775 66.9892 163.723 66.0707C163.644 65.1259 164.458 64.2861 165.455 64.2599C166.374 64.2074 167.161 64.9159 167.24 65.8345ZM185.227 54.2873C185.017 54.6022 184.781 54.8646 184.519 55.1796C184.86 55.442 185.175 55.6257 185.463 55.8619C187.012 57.0953 187.458 58.8537 186.723 60.6907C186.329 61.688 185.7 62.5278 184.912 63.2626C183.836 64.3123 182.55 65.0209 181.133 65.5458C180.503 65.8082 179.9 66.0444 179.296 66.4381C178.22 67.1204 177.013 66.5955 176.777 65.3096C176.593 64.4173 176.567 63.525 176.541 62.6065C176.409 58.4338 176.75 54.261 177.013 50.0883C177.092 48.8286 177.748 48.0675 178.981 47.7526C180.739 47.254 182.445 47.3589 184.072 48.1463C184.597 48.3824 185.07 48.7236 185.49 49.1435C186.461 50.1933 186.749 51.453 186.119 52.8176C185.883 53.3425 185.542 53.8149 185.227 54.2873ZM180.005 57.9614C179.926 59.431 179.768 60.7695 180.005 62.3441C181.238 61.8717 182.13 61.3206 182.839 60.5333C183.075 60.2446 183.285 59.9559 183.469 59.6147C183.758 59.0374 183.574 58.6175 182.97 58.3813C182.025 58.0139 181.054 57.9876 180.005 57.9614ZM180.503 50.9018C180.267 51.9253 180.241 52.8701 180.215 54.1298C181.448 53.3425 182.419 52.6602 182.944 51.5054C182.209 50.7969 181.396 50.8756 180.503 50.9018ZM197.233 58.7487C196.918 59.0636 196.577 59.2998 196.131 59.6147C196.84 60.3233 197.627 60.717 198.336 61.1894C198.966 61.6355 199.648 62.0029 200.225 62.5015C200.803 62.9477 200.908 63.6038 200.698 64.2861C200.514 64.9422 200.015 65.2834 199.412 65.4408C198.992 65.5458 198.546 65.4146 197.994 65.0997C197.102 64.6535 196.866 64.2336 195.843 63.3676C193.979 61.7405 193.402 61.8979 193.244 61.9767C193.166 62.0291 193.113 62.0554 193.034 62.1341C193.034 62.764 193.061 63.3151 193.034 63.84C193.008 64.6273 192.667 65.2309 191.906 65.5196C191.512 65.677 191.04 65.677 190.62 65.4933C190.226 65.3096 189.911 64.9684 189.754 64.5485C189.597 64.1286 189.518 63.7087 189.465 63.2626C189.072 59.5885 189.019 55.9144 189.15 52.2403C189.229 49.8521 189.465 49.5897 191.748 48.9073C193.743 48.3037 195.659 48.4612 197.47 49.5109C200.199 51.0855 200.934 54.1561 199.149 56.7279C198.624 57.489 197.89 58.0926 197.233 58.7487ZM196.026 52.9226C195.186 52.319 194.399 52.0041 193.402 52.319C193.061 52.424 192.824 52.7127 192.772 53.0801C192.667 53.6837 192.615 54.2873 192.615 54.8909C192.641 55.5207 192.693 56.1243 192.746 56.6492C192.772 56.8329 192.851 56.9904 193.008 57.0691C193.166 57.1478 193.349 57.1478 193.507 57.0691C193.848 56.9116 194.189 56.7017 194.504 56.4917C195.029 56.1768 195.501 55.7832 195.895 55.337C196.079 55.1533 196.236 54.9171 196.367 54.6809C196.735 53.9986 196.63 53.3425 196.026 52.9226ZM211.246 64.5223C211.22 63.6563 211.22 63.3676 211.089 63.3151C210.905 63.2626 210.643 63.8137 210.433 64.1286C209.514 65.4408 207.152 66.1494 205.341 65.3883C204.003 64.8372 203.321 63.6825 203.085 63.0789C202.717 62.1079 202.481 61.0844 202.376 60.0609C202.114 57.6465 202.35 55.232 202.533 52.8176C202.56 52.6077 202.612 52.3715 202.691 52.1878C202.953 51.4792 203.662 51.0331 204.37 51.0855C205.079 51.1643 205.656 51.5054 205.84 52.214C205.971 52.7389 206.05 53.29 205.998 53.8411C205.971 55.1008 205.919 56.3605 205.814 57.6202C205.525 61.0581 205.735 61.5568 206.076 61.8454C206.496 62.1604 207.152 62.2129 207.598 62.0291C208.202 61.7667 208.648 60.6645 209.488 58.4338C209.488 58.4075 209.514 58.3813 209.54 58.3288C209.645 58.0401 209.934 57.2528 210.354 55.8881C210.564 55.2583 210.826 54.6809 211.01 54.0511C211.141 53.6312 211.325 53.2113 211.561 52.8439C211.955 52.2403 212.558 52.0041 213.267 52.109C214.002 52.2403 214.579 52.8176 214.684 53.5262C214.737 53.9723 214.737 54.4185 214.71 54.8646C214.501 58.0926 214.579 61.3206 214.789 64.5748C214.842 65.0997 214.842 65.6508 214.815 66.2019C214.737 67.2516 214.081 67.9077 213.162 67.934C212.217 67.934 211.561 67.3829 211.404 66.3069C211.378 66.1494 211.299 65.9132 211.246 64.5223ZM225.211 64.4961C225.079 63.2888 225.184 60.8219 224.974 60.9532C225.001 60.7957 224.45 60.9532 224.292 61.0056C223.242 61.2681 221.405 61.5305 221.143 61.793C220.854 62.0554 221.117 64.1024 220.933 65.2834C220.67 67.0942 218.02 67.1204 217.626 65.4146C217.206 60.4808 217.705 55.5207 217.705 50.5869C217.652 49.6159 218.309 48.7236 219.28 48.5924C220.775 48.4349 221.353 49.8783 221.274 51.1905C221.222 53.4737 220.041 58.1188 221.064 57.9876C222.061 57.8564 224.292 57.7514 224.869 57.1478C225.421 56.5705 224.896 51.3217 225.814 48.5662C225.998 48.0675 226.418 47.7001 226.943 47.5689C227.468 47.4377 228.019 47.5689 228.412 47.8838C229.173 48.4349 229.042 49.3535 228.963 50.167C228.517 54.7597 228.57 59.3785 228.596 63.9974C228.596 64.3911 228.491 64.7585 228.307 65.0997C227.573 66.4643 225.447 66.0182 225.211 64.4961ZM233.976 65.8345C234.029 66.753 233.189 67.619 232.218 67.6453C231.3 67.6715 230.512 66.9892 230.46 66.0707C230.381 65.1259 231.195 64.2861 232.192 64.2599C233.11 64.2074 233.898 64.9159 233.976 65.8345ZM251.964 54.2873C251.754 54.6022 251.518 54.8646 251.255 55.1796C251.597 55.442 251.911 55.6257 252.2 55.8619C253.749 57.0953 254.195 58.8537 253.46 60.6907C253.066 61.688 252.436 62.5278 251.649 63.2626C250.573 64.3123 249.287 65.0209 247.87 65.5458C247.24 65.8082 246.636 66.0444 246.033 66.4381C244.957 67.1204 243.75 66.5955 243.513 65.3096C243.33 64.4173 243.304 63.525 243.277 62.6065C243.146 58.4338 243.487 54.261 243.75 50.0883C243.828 48.8286 244.484 48.0675 245.718 47.7526C247.476 47.254 249.182 47.3589 250.809 48.1463C251.334 48.3824 251.806 48.7236 252.226 49.1435C253.197 50.1933 253.486 51.453 252.856 52.8176C252.62 53.3425 252.279 53.8149 251.964 54.2873ZM246.741 57.9614C246.663 59.431 246.505 60.7695 246.741 62.3441C247.975 61.8717 248.867 61.3206 249.576 60.5333C249.812 60.2446 250.022 59.9559 250.206 59.6147C250.494 59.0374 250.311 58.6175 249.707 58.3813C248.762 58.0139 247.791 57.9876 246.741 57.9614ZM247.24 50.9018C247.004 51.9253 246.978 52.8701 246.951 54.1298C248.185 53.3425 249.156 52.6602 249.681 51.5054C248.946 50.7969 248.132 50.8756 247.24 50.9018ZM263.97 58.7487C263.655 59.0636 263.314 59.2998 262.868 59.6147C263.577 60.3233 264.364 60.717 265.072 61.1894C265.702 61.6355 266.385 62.0029 266.962 62.5015C267.539 62.9477 267.644 63.6038 267.434 64.2861C267.251 64.9422 266.752 65.2834 266.148 65.4408C265.729 65.5458 265.282 65.4146 264.731 65.0997C263.839 64.6535 263.603 64.2336 262.579 63.3676C260.716 61.7405 260.139 61.8979 259.981 61.9767C259.902 62.0291 259.85 62.0554 259.771 62.1341C259.771 62.764 259.797 63.3151 259.771 63.84C259.745 64.6273 259.404 65.2309 258.643 65.5196C258.249 65.677 257.777 65.677 257.357 65.4933C256.963 65.3096 256.648 64.9684 256.491 64.5485C256.333 64.1286 256.255 63.7087 256.202 63.2626C255.808 59.5885 255.756 55.9144 255.887 52.2403C255.966 49.8521 256.202 49.5897 258.485 48.9073C260.48 48.3037 262.396 48.4612 264.206 49.5109C266.936 51.0855 267.671 54.1561 265.886 56.7279C265.361 57.489 264.626 58.0926 263.97 58.7487ZM262.763 52.9226C261.923 52.319 261.136 52.0041 260.139 52.319C259.797 52.424 259.561 52.7127 259.509 53.0801C259.404 53.6837 259.351 54.2873 259.351 54.8909C259.378 55.5207 259.43 56.1243 259.483 56.6492C259.509 56.8329 259.588 56.9904 259.745 57.0691C259.902 57.1478 260.086 57.1478 260.244 57.0691C260.585 56.9116 260.926 56.7017 261.241 56.4917C261.766 56.1768 262.238 55.7832 262.632 55.337C262.815 55.1533 262.973 54.9171 263.104 54.6809C263.472 53.9986 263.367 53.3425 262.763 52.9226ZM277.983 64.5223C277.957 63.6563 277.957 63.3676 277.826 63.3151C277.642 63.2626 277.379 63.8137 277.17 64.1286C276.251 65.4408 273.889 66.1494 272.078 65.3883C270.74 64.8372 270.058 63.6825 269.821 63.0789C269.454 62.1079 269.218 61.0844 269.113 60.0609C268.85 57.6465 269.086 55.232 269.27 52.8176C269.296 52.6077 269.349 52.3715 269.428 52.1878C269.69 51.4792 270.399 51.0331 271.107 51.0855C271.816 51.1643 272.393 51.5054 272.577 52.214C272.708 52.7389 272.787 53.29 272.734 53.8411C272.708 55.1008 272.656 56.3605 272.551 57.6202C272.262 61.0581 272.472 61.5568 272.813 61.8454C273.233 62.1604 273.889 62.2129 274.335 62.0291C274.939 61.7667 275.385 60.6645 276.225 58.4338C276.225 58.4075 276.251 58.3813 276.277 58.3288C276.382 58.0401 276.671 57.2528 277.091 55.8881C277.301 55.2583 277.563 54.6809 277.747 54.0511C277.878 53.6312 278.062 53.2113 278.298 52.8439C278.692 52.2403 279.295 52.0041 280.004 52.109C280.739 52.2403 281.316 52.8176 281.421 53.5262C281.473 53.9723 281.473 54.4185 281.447 54.8646C281.237 58.0926 281.316 61.3206 281.526 64.5748C281.578 65.0997 281.578 65.6508 281.552 66.2019C281.473 67.2516 280.817 67.9077 279.899 67.934C278.954 67.934 278.298 67.3829 278.141 66.3069C278.114 66.1494 278.036 65.9132 277.983 64.5223ZM291.947 64.4961C291.816 63.2888 291.921 60.8219 291.711 60.9532C291.737 60.7957 291.186 60.9532 291.029 61.0056C289.979 61.2681 288.142 61.5305 287.88 61.793C287.591 62.0554 287.853 64.1024 287.67 65.2834C287.407 67.0942 284.757 67.1204 284.363 65.4146C283.943 60.4808 284.442 55.5207 284.442 50.5869C284.389 49.6159 285.045 48.7236 286.016 48.5924C287.512 48.4349 288.09 49.8783 288.011 51.1905C287.958 53.4737 286.777 58.1188 287.801 57.9876C288.798 57.8564 291.029 57.7514 291.606 57.1478C292.157 56.5705 291.632 51.3217 292.551 48.5662C292.735 48.0675 293.155 47.7001 293.679 47.5689C294.204 47.4377 294.755 47.5689 295.149 47.8838C295.91 48.4349 295.779 49.3535 295.7 50.167C295.254 54.7597 295.307 59.3785 295.333 63.9974C295.333 64.3911 295.228 64.7585 295.044 65.0997C294.309 66.4643 292.184 66.0182 291.947 64.4961ZM300.713 65.8345C300.766 66.753 299.926 67.619 298.955 67.6453C298.036 67.6715 297.249 66.9892 297.197 66.0707C297.118 65.1259 297.931 64.2861 298.929 64.2599C299.847 64.2074 300.634 64.9159 300.713 65.8345ZM51.7536 88.2873C51.5436 88.6022 51.3074 88.8646 51.045 89.1796C51.3862 89.442 51.7011 89.6257 51.9898 89.8619C53.5382 91.0953 53.9843 92.8537 53.2495 94.6907C52.8558 95.688 52.226 96.5278 51.4387 97.2626C50.3627 98.3123 49.0767 99.0209 47.6596 99.5458C47.0297 99.8082 46.4261 100.044 45.8225 100.438C44.7465 101.12 43.5393 100.596 43.3031 99.3096C43.1194 98.4173 43.0932 97.525 43.0669 96.6065C42.9357 92.4338 43.2769 88.261 43.5393 84.0883C43.6181 82.8286 44.2741 82.0675 45.5076 81.7526C47.2659 81.254 48.9718 81.3589 50.5989 82.1463C51.1237 82.3824 51.5961 82.7236 52.016 83.1435C52.987 84.1933 53.2757 85.453 52.6459 86.8176C52.4097 87.3425 52.0685 87.8149 51.7536 88.2873ZM46.5311 91.9614C46.4524 93.431 46.2949 94.7695 46.5311 96.3441C47.7646 95.8717 48.6568 95.3206 49.3654 94.5333C49.6016 94.2446 49.8116 93.9559 49.9953 93.6147C50.2839 93.0374 50.1002 92.6175 49.4966 92.3813C48.5519 92.0139 47.5808 91.9876 46.5311 91.9614ZM47.0297 84.9018C46.7935 85.9253 46.7673 86.8701 46.7411 88.1298C47.9745 87.3425 48.9455 86.6602 49.4704 85.5054C48.7356 84.7969 47.922 84.8756 47.0297 84.9018ZM63.7599 92.7487C63.4449 93.0636 63.1038 93.2998 62.6576 93.6147C63.3662 94.3233 64.1535 94.717 64.8621 95.1894C65.4919 95.6355 66.1743 96.0029 66.7516 96.5015C67.329 96.9477 67.434 97.6038 67.224 98.2861C67.0403 98.9422 66.5417 99.2834 65.9381 99.4408C65.5182 99.5458 65.072 99.4146 64.5209 99.0997C63.6286 98.6535 63.3924 98.2336 62.3689 97.3676C60.5056 95.7405 59.9283 95.8979 59.7708 95.9767C59.6921 96.0291 59.6396 96.0554 59.5609 96.1341C59.5609 96.764 59.5871 97.3151 59.5609 97.84C59.5346 98.6273 59.1935 99.2309 58.4324 99.5196C58.0387 99.677 57.5664 99.677 57.1465 99.4933C56.7528 99.3096 56.4379 98.9684 56.2804 98.5485C56.123 98.1286 56.0442 97.7087 55.9917 97.2626C55.5981 93.5885 55.5456 89.9144 55.6768 86.2403C55.7555 83.8521 55.9917 83.5897 58.2749 82.9073C60.2695 82.3037 62.1852 82.4612 63.996 83.5109C66.7254 85.0855 67.4602 88.1561 65.6756 90.7279C65.1508 91.489 64.4159 92.0926 63.7599 92.7487ZM62.5526 86.9226C61.7129 86.319 60.9255 86.0041 59.9283 86.319C59.5871 86.424 59.3509 86.7127 59.2984 87.0801C59.1935 87.6837 59.141 88.2873 59.141 88.8909C59.1672 89.5207 59.2197 90.1243 59.2722 90.6492C59.2984 90.8329 59.3772 90.9904 59.5346 91.0691C59.6921 91.1478 59.8758 91.1478 60.0333 91.0691C60.3744 90.9116 60.7156 90.7017 61.0305 90.4917C61.5554 90.1768 62.0278 89.7832 62.4214 89.337C62.6051 89.1533 62.7626 88.9171 62.8938 88.6809C63.2612 87.9986 63.1563 87.3425 62.5526 86.9226ZM77.7727 98.5223C77.7465 97.6563 77.7465 97.3676 77.6153 97.3151C77.4316 97.2626 77.1691 97.8137 76.9592 98.1286C76.0407 99.4408 73.6787 100.149 71.8679 99.3883C70.5295 98.8372 69.8472 97.6825 69.611 97.0789C69.2435 96.1079 69.0074 95.0844 68.9024 94.0609C68.6399 91.6465 68.8761 89.232 69.0598 86.8176C69.0861 86.6077 69.1386 86.3715 69.2173 86.1878C69.4797 85.4792 70.1883 85.0331 70.8969 85.0855C71.6055 85.1643 72.1828 85.5054 72.3665 86.214C72.4978 86.7389 72.5765 87.29 72.524 87.8411C72.4978 89.1008 72.4453 90.3605 72.3403 91.6202C72.0516 95.0581 72.2616 95.5568 72.6027 95.8454C73.0226 96.1604 73.6787 96.2129 74.1249 96.0291C74.7285 95.7667 75.1746 94.6645 76.0144 92.4338C76.0144 92.4075 76.0407 92.3813 76.0669 92.3288C76.1719 92.0401 76.4606 91.2528 76.8804 89.8881C77.0904 89.2583 77.3528 88.6809 77.5365 88.0511C77.6678 87.6312 77.8515 87.2113 78.0877 86.8439C78.4813 86.2403 79.0849 86.0041 79.7935 86.109C80.5283 86.2403 81.1057 86.8176 81.2107 87.5262C81.2631 87.9723 81.2631 88.4185 81.2369 88.8646C81.0269 92.0926 81.1057 95.3206 81.3156 98.5748C81.3681 99.0997 81.3681 99.6508 81.3419 100.202C81.2631 101.252 80.607 101.908 79.6885 101.934C78.7437 101.934 78.0877 101.383 77.9302 100.307C77.904 100.149 77.8252 99.9132 77.7727 98.5223ZM91.737 98.4961C91.6058 97.2888 91.7108 94.8219 91.5008 94.9532C91.5271 94.7957 90.976 94.9532 90.8185 95.0056C89.7687 95.2681 87.9317 95.5305 87.6693 95.793C87.3806 96.0554 87.643 98.1024 87.4593 99.2834C87.1969 101.094 84.5463 101.12 84.1526 99.4146C83.7327 94.4808 84.2313 89.5207 84.2313 84.5869C84.1788 83.6159 84.8349 82.7236 85.806 82.5924C87.3018 82.4349 87.8792 83.8783 87.8005 85.1905C87.748 87.4737 86.567 92.1188 87.5905 91.9876C88.5878 91.8564 90.8185 91.7514 91.3959 91.1478C91.947 90.5705 91.4221 85.3217 92.3406 82.5662C92.5243 82.0675 92.9442 81.7001 93.4691 81.5689C93.994 81.4377 94.5451 81.5689 94.9387 81.8838C95.6998 82.4349 95.5686 83.3535 95.4899 84.167C95.0437 88.7597 95.0962 93.3785 95.1225 97.9974C95.1225 98.3911 95.0175 98.7585 94.8338 99.0997C94.0989 100.464 91.9732 100.018 91.737 98.4961ZM100.503 99.8345C100.555 100.753 99.7155 101.619 98.7445 101.645C97.826 101.672 97.0386 100.989 96.9862 100.071C96.9074 99.1259 97.721 98.2861 98.7182 98.2599C99.6368 98.2074 100.424 98.9159 100.503 99.8345ZM118.49 88.2873C118.28 88.6022 118.044 88.8646 117.782 89.1796C118.123 89.442 118.438 89.6257 118.727 89.8619C120.275 91.0953 120.721 92.8537 119.986 94.6907C119.593 95.688 118.963 96.5278 118.175 97.2626C117.099 98.3123 115.814 99.0209 114.396 99.5458C113.767 99.8082 113.163 100.044 112.559 100.438C111.483 101.12 110.276 100.596 110.04 99.3096C109.856 98.4173 109.83 97.525 109.804 96.6065C109.673 92.4338 110.014 88.261 110.276 84.0883C110.355 82.8286 111.011 82.0675 112.244 81.7526C114.003 81.254 115.709 81.3589 117.336 82.1463C117.861 82.3824 118.333 82.7236 118.753 83.1435C119.724 84.1933 120.013 85.453 119.383 86.8176C119.146 87.3425 118.805 87.8149 118.49 88.2873ZM113.268 91.9614C113.189 93.431 113.032 94.7695 113.268 96.3441C114.501 95.8717 115.394 95.3206 116.102 94.5333C116.338 94.2446 116.548 93.9559 116.732 93.6147C117.021 93.0374 116.837 92.6175 116.233 92.3813C115.289 92.0139 114.318 91.9876 113.268 91.9614ZM113.767 84.9018C113.53 85.9253 113.504 86.8701 113.478 88.1298C114.711 87.3425 115.682 86.6602 116.207 85.5054C115.472 84.7969 114.659 84.8756 113.767 84.9018ZM130.497 92.7487C130.182 93.0636 129.841 93.2998 129.394 93.6147C130.103 94.3233 130.89 94.717 131.599 95.1894C132.229 95.6355 132.911 96.0029 133.488 96.5015C134.066 96.9477 134.171 97.6038 133.961 98.2861C133.777 98.9422 133.278 99.2834 132.675 99.4408C132.255 99.5458 131.809 99.4146 131.258 99.0997C130.365 98.6535 130.129 98.2336 129.106 97.3676C127.242 95.7405 126.665 95.8979 126.508 95.9767C126.429 96.0291 126.376 96.0554 126.298 96.1341C126.298 96.764 126.324 97.3151 126.298 97.84C126.271 98.6273 125.93 99.2309 125.169 99.5196C124.776 99.677 124.303 99.677 123.883 99.4933C123.49 99.3096 123.175 98.9684 123.017 98.5485C122.86 98.1286 122.781 97.7087 122.729 97.2626C122.335 93.5885 122.282 89.9144 122.414 86.2403C122.492 83.8521 122.729 83.5897 125.012 82.9073C127.006 82.3037 128.922 82.4612 130.733 83.5109C133.462 85.0855 134.197 88.1561 132.412 90.7279C131.888 91.489 131.153 92.0926 130.497 92.7487ZM129.289 86.9226C128.45 86.319 127.662 86.0041 126.665 86.319C126.324 86.424 126.088 86.7127 126.035 87.0801C125.93 87.6837 125.878 88.2873 125.878 88.8909C125.904 89.5207 125.956 90.1243 126.009 90.6492C126.035 90.8329 126.114 90.9904 126.271 91.0691C126.429 91.1478 126.613 91.1478 126.77 91.0691C127.111 90.9116 127.452 90.7017 127.767 90.4917C128.292 90.1768 128.765 89.7832 129.158 89.337C129.342 89.1533 129.499 88.9171 129.631 88.6809C129.998 87.9986 129.893 87.3425 129.289 86.9226ZM144.51 98.5223C144.483 97.6563 144.483 97.3676 144.352 97.3151C144.168 97.2626 143.906 97.8137 143.696 98.1286C142.777 99.4408 140.416 100.149 138.605 99.3883C137.266 98.8372 136.584 97.6825 136.348 97.0789C135.98 96.1079 135.744 95.0844 135.639 94.0609C135.377 91.6465 135.613 89.232 135.797 86.8176C135.823 86.6077 135.875 86.3715 135.954 86.1878C136.217 85.4792 136.925 85.0331 137.634 85.0855C138.342 85.1643 138.92 85.5054 139.103 86.214C139.235 86.7389 139.313 87.29 139.261 87.8411C139.235 89.1008 139.182 90.3605 139.077 91.6202C138.788 95.0581 138.998 95.5568 139.34 95.8454C139.759 96.1604 140.416 96.2129 140.862 96.0291C141.465 95.7667 141.911 94.6645 142.751 92.4338C142.751 92.4075 142.777 92.3813 142.804 92.3288C142.909 92.0401 143.197 91.2528 143.617 89.8881C143.827 89.2583 144.09 88.6809 144.273 88.0511C144.405 87.6312 144.588 87.2113 144.824 86.8439C145.218 86.2403 145.822 86.0041 146.53 86.109C147.265 86.2403 147.842 86.8176 147.947 87.5262C148 87.9723 148 88.4185 147.974 88.8646C147.764 92.0926 147.842 95.3206 148.052 98.5748C148.105 99.0997 148.105 99.6508 148.079 100.202C148 101.252 147.344 101.908 146.425 101.934C145.481 101.934 144.824 101.383 144.667 100.307C144.641 100.149 144.562 99.9132 144.51 98.5223ZM158.474 98.4961C158.343 97.2888 158.448 94.8219 158.238 94.9532C158.264 94.7957 157.713 94.9532 157.555 95.0056C156.506 95.2681 154.668 95.5305 154.406 95.793C154.117 96.0554 154.38 98.1024 154.196 99.2834C153.934 101.094 151.283 101.12 150.889 99.4146C150.469 94.4808 150.968 89.5207 150.968 84.5869C150.916 83.6159 151.572 82.7236 152.543 82.5924C154.039 82.4349 154.616 83.8783 154.537 85.1905C154.485 87.4737 153.304 92.1188 154.327 91.9876C155.325 91.8564 157.555 91.7514 158.133 91.1478C158.684 90.5705 158.159 85.3217 159.077 82.5662C159.261 82.0675 159.681 81.7001 160.206 81.5689C160.731 81.4377 161.282 81.5689 161.676 81.8838C162.437 82.4349 162.305 83.3535 162.227 84.167C161.781 88.7597 161.833 93.3785 161.859 97.9974C161.859 98.3911 161.754 98.7585 161.571 99.0997C160.836 100.464 158.71 100.018 158.474 98.4961ZM167.24 99.8345C167.292 100.753 166.452 101.619 165.481 101.645C164.563 101.672 163.775 100.989 163.723 100.071C163.644 99.1259 164.458 98.2861 165.455 98.2599C166.374 98.2074 167.161 98.9159 167.24 99.8345ZM185.227 88.2873C185.017 88.6022 184.781 88.8646 184.519 89.1796C184.86 89.442 185.175 89.6257 185.463 89.8619C187.012 91.0953 187.458 92.8537 186.723 94.6907C186.329 95.688 185.7 96.5278 184.912 97.2626C183.836 98.3123 182.55 99.0209 181.133 99.5458C180.503 99.8082 179.9 100.044 179.296 100.438C178.22 101.12 177.013 100.596 176.777 99.3096C176.593 98.4173 176.567 97.525 176.541 96.6065C176.409 92.4338 176.75 88.261 177.013 84.0883C177.092 82.8286 177.748 82.0675 178.981 81.7526C180.739 81.254 182.445 81.3589 184.072 82.1463C184.597 82.3824 185.07 82.7236 185.49 83.1435C186.461 84.1933 186.749 85.453 186.119 86.8176C185.883 87.3425 185.542 87.8149 185.227 88.2873ZM180.005 91.9614C179.926 93.431 179.768 94.7695 180.005 96.3441C181.238 95.8717 182.13 95.3206 182.839 94.5333C183.075 94.2446 183.285 93.9559 183.469 93.6147C183.758 93.0374 183.574 92.6175 182.97 92.3813C182.025 92.0139 181.054 91.9876 180.005 91.9614ZM180.503 84.9018C180.267 85.9253 180.241 86.8701 180.215 88.1298C181.448 87.3425 182.419 86.6602 182.944 85.5054C182.209 84.7969 181.396 84.8756 180.503 84.9018ZM197.233 92.7487C196.918 93.0636 196.577 93.2998 196.131 93.6147C196.84 94.3233 197.627 94.717 198.336 95.1894C198.966 95.6355 199.648 96.0029 200.225 96.5015C200.803 96.9477 200.908 97.6038 200.698 98.2861C200.514 98.9422 200.015 99.2834 199.412 99.4408C198.992 99.5458 198.546 99.4146 197.994 99.0997C197.102 98.6535 196.866 98.2336 195.843 97.3676C193.979 95.7405 193.402 95.8979 193.244 95.9767C193.166 96.0291 193.113 96.0554 193.034 96.1341C193.034 96.764 193.061 97.3151 193.034 97.84C193.008 98.6273 192.667 99.2309 191.906 99.5196C191.512 99.677 191.04 99.677 190.62 99.4933C190.226 99.3096 189.911 98.9684 189.754 98.5485C189.597 98.1286 189.518 97.7087 189.465 97.2626C189.072 93.5885 189.019 89.9144 189.15 86.2403C189.229 83.8521 189.465 83.5897 191.748 82.9073C193.743 82.3037 195.659 82.4612 197.47 83.5109C200.199 85.0855 200.934 88.1561 199.149 90.7279C198.624 91.489 197.89 92.0926 197.233 92.7487ZM196.026 86.9226C195.186 86.319 194.399 86.0041 193.402 86.319C193.061 86.424 192.824 86.7127 192.772 87.0801C192.667 87.6837 192.615 88.2873 192.615 88.8909C192.641 89.5207 192.693 90.1243 192.746 90.6492C192.772 90.8329 192.851 90.9904 193.008 91.0691C193.166 91.1478 193.349 91.1478 193.507 91.0691C193.848 90.9116 194.189 90.7017 194.504 90.4917C195.029 90.1768 195.501 89.7832 195.895 89.337C196.079 89.1533 196.236 88.9171 196.367 88.6809C196.735 87.9986 196.63 87.3425 196.026 86.9226ZM211.246 98.5223C211.22 97.6563 211.22 97.3676 211.089 97.3151C210.905 97.2626 210.643 97.8137 210.433 98.1286C209.514 99.4408 207.152 100.149 205.341 99.3883C204.003 98.8372 203.321 97.6825 203.085 97.0789C202.717 96.1079 202.481 95.0844 202.376 94.0609C202.114 91.6465 202.35 89.232 202.533 86.8176C202.56 86.6077 202.612 86.3715 202.691 86.1878C202.953 85.4792 203.662 85.0331 204.37 85.0855C205.079 85.1643 205.656 85.5054 205.84 86.214C205.971 86.7389 206.05 87.29 205.998 87.8411C205.971 89.1008 205.919 90.3605 205.814 91.6202C205.525 95.0581 205.735 95.5568 206.076 95.8454C206.496 96.1604 207.152 96.2129 207.598 96.0291C208.202 95.7667 208.648 94.6645 209.488 92.4338C209.488 92.4075 209.514 92.3813 209.54 92.3288C209.645 92.0401 209.934 91.2528 210.354 89.8881C210.564 89.2583 210.826 88.6809 211.01 88.0511C211.141 87.6312 211.325 87.2113 211.561 86.8439C211.955 86.2403 212.558 86.0041 213.267 86.109C214.002 86.2403 214.579 86.8176 214.684 87.5262C214.737 87.9723 214.737 88.4185 214.71 88.8646C214.501 92.0926 214.579 95.3206 214.789 98.5748C214.842 99.0997 214.842 99.6508 214.815 100.202C214.737 101.252 214.081 101.908 213.162 101.934C212.217 101.934 211.561 101.383 211.404 100.307C211.378 100.149 211.299 99.9132 211.246 98.5223ZM225.211 98.4961C225.079 97.2888 225.184 94.8219 224.974 94.9532C225.001 94.7957 224.45 94.9532 224.292 95.0056C223.242 95.2681 221.405 95.5305 221.143 95.793C220.854 96.0554 221.117 98.1024 220.933 99.2834C220.67 101.094 218.02 101.12 217.626 99.4146C217.206 94.4808 217.705 89.5207 217.705 84.5869C217.652 83.6159 218.309 82.7236 219.28 82.5924C220.775 82.4349 221.353 83.8783 221.274 85.1905C221.222 87.4737 220.041 92.1188 221.064 91.9876C222.061 91.8564 224.292 91.7514 224.869 91.1478C225.421 90.5705 224.896 85.3217 225.814 82.5662C225.998 82.0675 226.418 81.7001 226.943 81.5689C227.468 81.4377 228.019 81.5689 228.412 81.8838C229.173 82.4349 229.042 83.3535 228.963 84.167C228.517 88.7597 228.57 93.3785 228.596 97.9974C228.596 98.3911 228.491 98.7585 228.307 99.0997C227.573 100.464 225.447 100.018 225.211 98.4961ZM233.976 99.8345C234.029 100.753 233.189 101.619 232.218 101.645C231.3 101.672 230.512 100.989 230.46 100.071C230.381 99.1259 231.195 98.2861 232.192 98.2599C233.11 98.2074 233.898 98.9159 233.976 99.8345ZM251.964 88.2873C251.754 88.6022 251.518 88.8646 251.255 89.1796C251.597 89.442 251.911 89.6257 252.2 89.8619C253.749 91.0953 254.195 92.8537 253.46 94.6907C253.066 95.688 252.436 96.5278 251.649 97.2626C250.573 98.3123 249.287 99.0209 247.87 99.5458C247.24 99.8082 246.636 100.044 246.033 100.438C244.957 101.12 243.75 100.596 243.513 99.3096C243.33 98.4173 243.304 97.525 243.277 96.6065C243.146 92.4338 243.487 88.261 243.75 84.0883C243.828 82.8286 244.484 82.0675 245.718 81.7526C247.476 81.254 249.182 81.3589 250.809 82.1463C251.334 82.3824 251.806 82.7236 252.226 83.1435C253.197 84.1933 253.486 85.453 252.856 86.8176C252.62 87.3425 252.279 87.8149 251.964 88.2873ZM246.741 91.9614C246.663 93.431 246.505 94.7695 246.741 96.3441C247.975 95.8717 248.867 95.3206 249.576 94.5333C249.812 94.2446 250.022 93.9559 250.206 93.6147C250.494 93.0374 250.311 92.6175 249.707 92.3813C248.762 92.0139 247.791 91.9876 246.741 91.9614ZM247.24 84.9018C247.004 85.9253 246.978 86.8701 246.951 88.1298C248.185 87.3425 249.156 86.6602 249.681 85.5054C248.946 84.7969 248.132 84.8756 247.24 84.9018ZM263.97 92.7487C263.655 93.0636 263.314 93.2998 262.868 93.6147C263.577 94.3233 264.364 94.717 265.072 95.1894C265.702 95.6355 266.385 96.0029 266.962 96.5015C267.539 96.9477 267.644 97.6038 267.434 98.2861C267.251 98.9422 266.752 99.2834 266.148 99.4408C265.729 99.5458 265.282 99.4146 264.731 99.0997C263.839 98.6535 263.603 98.2336 262.579 97.3676C260.716 95.7405 260.139 95.8979 259.981 95.9767C259.902 96.0291 259.85 96.0554 259.771 96.1341C259.771 96.764 259.797 97.3151 259.771 97.84C259.745 98.6273 259.404 99.2309 258.643 99.5196C258.249 99.677 257.777 99.677 257.357 99.4933C256.963 99.3096 256.648 98.9684 256.491 98.5485C256.333 98.1286 256.255 97.7087 256.202 97.2626C255.808 93.5885 255.756 89.9144 255.887 86.2403C255.966 83.8521 256.202 83.5897 258.485 82.9073C260.48 82.3037 262.396 82.4612 264.206 83.5109C266.936 85.0855 267.671 88.1561 265.886 90.7279C265.361 91.489 264.626 92.0926 263.97 92.7487ZM262.763 86.9226C261.923 86.319 261.136 86.0041 260.139 86.319C259.797 86.424 259.561 86.7127 259.509 87.0801C259.404 87.6837 259.351 88.2873 259.351 88.8909C259.378 89.5207 259.43 90.1243 259.483 90.6492C259.509 90.8329 259.588 90.9904 259.745 91.0691C259.902 91.1478 260.086 91.1478 260.244 91.0691C260.585 90.9116 260.926 90.7017 261.241 90.4917C261.766 90.1768 262.238 89.7832 262.632 89.337C262.815 89.1533 262.973 88.9171 263.104 88.6809C263.472 87.9986 263.367 87.3425 262.763 86.9226ZM277.983 98.5223C277.957 97.6563 277.957 97.3676 277.826 97.3151C277.642 97.2626 277.379 97.8137 277.17 98.1286C276.251 99.4408 273.889 100.149 272.078 99.3883C270.74 98.8372 270.058 97.6825 269.821 97.0789C269.454 96.1079 269.218 95.0844 269.113 94.0609C268.85 91.6465 269.086 89.232 269.27 86.8176C269.296 86.6077 269.349 86.3715 269.428 86.1878C269.69 85.4792 270.399 85.0331 271.107 85.0855C271.816 85.1643 272.393 85.5054 272.577 86.214C272.708 86.7389 272.787 87.29 272.734 87.8411C272.708 89.1008 272.656 90.3605 272.551 91.6202C272.262 95.0581 272.472 95.5568 272.813 95.8454C273.233 96.1604 273.889 96.2129 274.335 96.0291C274.939 95.7667 275.385 94.6645 276.225 92.4338C276.225 92.4075 276.251 92.3813 276.277 92.3288C276.382 92.0401 276.671 91.2528 277.091 89.8881C277.301 89.2583 277.563 88.6809 277.747 88.0511C277.878 87.6312 278.062 87.2113 278.298 86.8439C278.692 86.2403 279.295 86.0041 280.004 86.109C280.739 86.2403 281.316 86.8176 281.421 87.5262C281.473 87.9723 281.473 88.4185 281.447 88.8646C281.237 92.0926 281.316 95.3206 281.526 98.5748C281.578 99.0997 281.578 99.6508 281.552 100.202C281.473 101.252 280.817 101.908 279.899 101.934C278.954 101.934 278.298 101.383 278.141 100.307C278.114 100.149 278.036 99.9132 277.983 98.5223ZM291.947 98.4961C291.816 97.2888 291.921 94.8219 291.711 94.9532C291.737 94.7957 291.186 94.9532 291.029 95.0056C289.979 95.2681 288.142 95.5305 287.88 95.793C287.591 96.0554 287.853 98.1024 287.67 99.2834C287.407 101.094 284.757 101.12 284.363 99.4146C283.943 94.4808 284.442 89.5207 284.442 84.5869C284.389 83.6159 285.045 82.7236 286.016 82.5924C287.512 82.4349 288.09 83.8783 288.011 85.1905C287.958 87.4737 286.777 92.1188 287.801 91.9876C288.798 91.8564 291.029 91.7514 291.606 91.1478C292.157 90.5705 291.632 85.3217 292.551 82.5662C292.735 82.0675 293.155 81.7001 293.679 81.5689C294.204 81.4377 294.755 81.5689 295.149 81.8838C295.91 82.4349 295.779 83.3535 295.7 84.167C295.254 88.7597 295.307 93.3785 295.333 97.9974C295.333 98.3911 295.228 98.7585 295.044 99.0997C294.309 100.464 292.184 100.018 291.947 98.4961ZM300.713 99.8345C300.766 100.753 299.926 101.619 298.955 101.645C298.036 101.672 297.249 100.989 297.197 100.071C297.118 99.1259 297.931 98.2861 298.929 98.2599C299.847 98.2074 300.634 98.9159 300.713 99.8345ZM118.644 122.287C118.434 122.602 118.198 122.865 117.936 123.18C118.277 123.442 118.592 123.626 118.88 123.862C120.429 125.095 120.875 126.854 120.14 128.691C119.746 129.688 119.117 130.528 118.329 131.263C117.253 132.312 115.967 133.021 114.55 133.546C113.92 133.808 113.317 134.044 112.713 134.438C111.637 135.12 110.43 134.596 110.194 133.31C110.01 132.417 109.984 131.525 109.957 130.607C109.826 126.434 110.167 122.261 110.43 118.088C110.509 116.829 111.165 116.068 112.398 115.753C114.156 115.254 115.862 115.359 117.489 116.146C118.014 116.382 118.487 116.724 118.907 117.144C119.878 118.193 120.166 119.453 119.536 120.818C119.3 121.342 118.959 121.815 118.644 122.287ZM113.422 125.961C113.343 127.431 113.185 128.769 113.422 130.344C114.655 129.872 115.547 129.321 116.256 128.533C116.492 128.245 116.702 127.956 116.886 127.615C117.174 127.037 116.991 126.617 116.387 126.381C115.442 126.014 114.471 125.988 113.422 125.961ZM113.92 118.902C113.684 119.925 113.658 120.87 113.632 122.13C114.865 121.342 115.836 120.66 116.361 119.505C115.626 118.797 114.813 118.876 113.92 118.902ZM130.65 126.749C130.335 127.064 129.994 127.3 129.548 127.615C130.257 128.323 131.044 128.717 131.753 129.189C132.382 129.635 133.065 130.003 133.642 130.502C134.22 130.948 134.325 131.604 134.115 132.286C133.931 132.942 133.432 133.283 132.829 133.441C132.409 133.546 131.963 133.415 131.411 133.1C130.519 132.654 130.283 132.234 129.259 131.368C127.396 129.74 126.819 129.898 126.661 129.977C126.583 130.029 126.53 130.055 126.451 130.134C126.451 130.764 126.478 131.315 126.451 131.84C126.425 132.627 126.084 133.231 125.323 133.52C124.929 133.677 124.457 133.677 124.037 133.493C123.643 133.31 123.328 132.968 123.171 132.549C123.014 132.129 122.935 131.709 122.882 131.263C122.489 127.588 122.436 123.914 122.567 120.24C122.646 117.852 122.882 117.59 125.165 116.907C127.16 116.304 129.076 116.461 130.887 117.511C133.616 119.086 134.351 122.156 132.566 124.728C132.041 125.489 131.306 126.093 130.65 126.749ZM129.443 120.923C128.603 120.319 127.816 120.004 126.819 120.319C126.478 120.424 126.241 120.713 126.189 121.08C126.084 121.684 126.032 122.287 126.032 122.891C126.058 123.521 126.11 124.124 126.163 124.649C126.189 124.833 126.268 124.99 126.425 125.069C126.583 125.148 126.766 125.148 126.924 125.069C127.265 124.912 127.606 124.702 127.921 124.492C128.446 124.177 128.918 123.783 129.312 123.337C129.496 123.153 129.653 122.917 129.784 122.681C130.152 121.999 130.047 121.342 129.443 120.923ZM144.663 132.522C144.637 131.656 144.637 131.368 144.506 131.315C144.322 131.263 144.06 131.814 143.85 132.129C142.931 133.441 140.569 134.149 138.758 133.388C137.42 132.837 136.738 131.682 136.502 131.079C136.134 130.108 135.898 129.084 135.793 128.061C135.53 125.646 135.767 123.232 135.95 120.818C135.977 120.608 136.029 120.371 136.108 120.188C136.37 119.479 137.079 119.033 137.787 119.086C138.496 119.164 139.073 119.505 139.257 120.214C139.388 120.739 139.467 121.29 139.415 121.841C139.388 123.101 139.336 124.361 139.231 125.62C138.942 129.058 139.152 129.557 139.493 129.845C139.913 130.16 140.569 130.213 141.015 130.029C141.619 129.767 142.065 128.664 142.905 126.434C142.905 126.408 142.931 126.381 142.957 126.329C143.062 126.04 143.351 125.253 143.771 123.888C143.981 123.258 144.243 122.681 144.427 122.051C144.558 121.631 144.742 121.211 144.978 120.844C145.372 120.24 145.975 120.004 146.684 120.109C147.419 120.24 147.996 120.818 148.101 121.526C148.154 121.972 148.154 122.418 148.127 122.865C147.917 126.093 147.996 129.321 148.206 132.575C148.259 133.1 148.259 133.651 148.232 134.202C148.154 135.252 147.498 135.908 146.579 135.934C145.634 135.934 144.978 135.383 144.821 134.307C144.795 134.149 144.716 133.913 144.663 132.522ZM158.628 132.496C158.496 131.289 158.601 128.822 158.391 128.953C158.418 128.796 157.867 128.953 157.709 129.006C156.659 129.268 154.822 129.531 154.56 129.793C154.271 130.055 154.534 132.102 154.35 133.283C154.087 135.094 151.437 135.12 151.043 133.415C150.623 128.481 151.122 123.521 151.122 118.587C151.069 117.616 151.725 116.724 152.697 116.592C154.192 116.435 154.77 117.878 154.691 119.191C154.639 121.474 153.458 126.119 154.481 125.988C155.478 125.856 157.709 125.751 158.286 125.148C158.838 124.57 158.313 119.322 159.231 116.566C159.415 116.068 159.835 115.7 160.36 115.569C160.885 115.438 161.436 115.569 161.829 115.884C162.59 116.435 162.459 117.353 162.38 118.167C161.934 122.76 161.987 127.379 162.013 131.997C162.013 132.391 161.908 132.758 161.724 133.1C160.989 134.464 158.864 134.018 158.628 132.496ZM167.393 133.834C167.446 134.753 166.606 135.619 165.635 135.645C164.716 135.672 163.929 134.989 163.877 134.071C163.798 133.126 164.612 132.286 165.609 132.26C166.527 132.207 167.315 132.916 167.393 133.834ZM185.381 122.287C185.171 122.602 184.935 122.865 184.672 123.18C185.014 123.442 185.328 123.626 185.617 123.862C187.165 125.095 187.612 126.854 186.877 128.691C186.483 129.688 185.853 130.528 185.066 131.263C183.99 132.312 182.704 133.021 181.287 133.546C180.657 133.808 180.053 134.044 179.45 134.438C178.374 135.12 177.167 134.596 176.93 133.31C176.747 132.417 176.721 131.525 176.694 130.607C176.563 126.434 176.904 122.261 177.167 118.088C177.245 116.829 177.901 116.068 179.135 115.753C180.893 115.254 182.599 115.359 184.226 116.146C184.751 116.382 185.223 116.724 185.643 117.144C186.614 118.193 186.903 119.453 186.273 120.818C186.037 121.342 185.696 121.815 185.381 122.287ZM180.158 125.961C180.08 127.431 179.922 128.769 180.158 130.344C181.392 129.872 182.284 129.321 182.993 128.533C183.229 128.245 183.439 127.956 183.623 127.615C183.911 127.037 183.728 126.617 183.124 126.381C182.179 126.014 181.208 125.988 180.158 125.961ZM180.657 118.902C180.421 119.925 180.395 120.87 180.368 122.13C181.602 121.342 182.573 120.66 183.098 119.505C182.363 118.797 181.549 118.876 180.657 118.902ZM197.387 126.749C197.072 127.064 196.731 127.3 196.285 127.615C196.994 128.323 197.781 128.717 198.489 129.189C199.119 129.635 199.802 130.003 200.379 130.502C200.956 130.948 201.061 131.604 200.851 132.286C200.668 132.942 200.169 133.283 199.565 133.441C199.146 133.546 198.699 133.415 198.148 133.1C197.256 132.654 197.02 132.234 195.996 131.368C194.133 129.74 193.556 129.898 193.398 129.977C193.319 130.029 193.267 130.055 193.188 130.134C193.188 130.764 193.214 131.315 193.188 131.84C193.162 132.627 192.821 133.231 192.06 133.52C191.666 133.677 191.194 133.677 190.774 133.493C190.38 133.31 190.065 132.968 189.908 132.549C189.75 132.129 189.672 131.709 189.619 131.263C189.225 127.588 189.173 123.914 189.304 120.24C189.383 117.852 189.619 117.59 191.902 116.907C193.897 116.304 195.813 116.461 197.623 117.511C200.353 119.086 201.088 122.156 199.303 124.728C198.778 125.489 198.043 126.093 197.387 126.749ZM196.18 120.923C195.34 120.319 194.553 120.004 193.556 120.319C193.214 120.424 192.978 120.713 192.926 121.08C192.821 121.684 192.768 122.287 192.768 122.891C192.795 123.521 192.847 124.124 192.9 124.649C192.926 124.833 193.005 124.99 193.162 125.069C193.319 125.148 193.503 125.148 193.661 125.069C194.002 124.912 194.343 124.702 194.658 124.492C195.183 124.177 195.655 123.783 196.049 123.337C196.232 123.153 196.39 122.917 196.521 122.681C196.889 121.999 196.784 121.342 196.18 120.923ZM211.298 130.108C211.271 129.242 211.271 128.953 211.14 128.901C210.956 128.848 210.694 129.399 210.484 129.714C209.565 131.026 207.204 131.735 205.393 130.974C204.054 130.423 203.372 129.268 203.136 128.664C202.768 127.693 202.532 126.67 202.427 125.646C202.165 123.232 202.401 120.818 202.585 118.403C202.611 118.193 202.663 117.957 202.742 117.773C203.005 117.065 203.713 116.619 204.422 116.671C205.13 116.75 205.708 117.091 205.891 117.8C206.023 118.324 206.075 118.876 206.049 119.427C206.023 120.686 205.97 121.946 205.865 123.206C205.576 126.644 205.786 127.142 206.128 127.431C206.547 127.746 207.204 127.798 207.65 127.615C208.253 127.352 208.699 126.25 209.539 124.019C209.539 123.993 209.565 123.967 209.592 123.914C209.697 123.626 209.985 122.838 210.405 121.474C210.615 120.844 210.878 120.267 211.061 119.637C211.193 119.217 211.376 118.797 211.612 118.429C212.006 117.826 212.61 117.59 213.318 117.695C214.053 117.826 214.63 118.403 214.735 119.112C214.788 119.558 214.788 120.004 214.762 120.45C214.552 123.678 214.63 126.906 214.84 130.16C214.893 130.711 214.893 131.236 214.867 131.787C214.788 132.837 214.132 133.493 213.213 133.52C212.269 133.52 211.612 132.968 211.455 131.892C211.429 131.735 211.35 131.499 211.298 130.108ZM225.057 132.496C224.926 131.289 225.031 128.822 224.821 128.953C224.847 128.796 224.296 128.953 224.138 129.006C223.089 129.268 221.251 129.531 220.989 129.793C220.7 130.055 220.963 132.102 220.779 133.283C220.517 135.094 217.866 135.12 217.472 133.415C217.052 128.481 217.551 123.521 217.551 118.587C217.499 117.616 218.155 116.724 219.126 116.592C220.622 116.435 221.199 117.878 221.12 119.191C221.068 121.474 219.887 126.119 220.91 125.988C221.908 125.856 224.138 125.751 224.716 125.148C225.267 124.57 224.742 119.322 225.66 116.566C225.844 116.068 226.264 115.7 226.789 115.569C227.314 115.438 227.865 115.569 228.259 115.884C229.02 116.435 228.888 117.353 228.81 118.167C228.364 122.76 228.416 127.379 228.442 131.997C228.442 132.391 228.337 132.758 228.154 133.1C227.419 134.464 225.293 134.018 225.057 132.496ZM233.823 133.834C233.875 134.753 233.035 135.619 232.064 135.645C231.146 135.672 230.358 134.989 230.306 134.071C230.227 133.126 231.041 132.286 232.038 132.26C232.957 132.207 233.744 132.916 233.823 133.834Z" fill="black"/>
</svg>
