<svg width="1920" height="604" viewBox="0 0 1920 604" fill="none" xmlns="http://www.w3.org/2000/svg">
<mask id="path-1-outside-1_0_366" maskUnits="userSpaceOnUse" x="109.472" y="132.024" width="330" height="152" fill="black">
<rect fill="white" x="109.472" y="132.024" width="330" height="152"/>
<path fill-rule="evenodd" clip-rule="evenodd" d="M291.577 266.136C305.859 274.774 321.354 279.06 333.608 276.157C347.787 272.799 357.149 268.092 362.996 262.204C365.528 262.157 368.039 261.85 370.501 261.266C384.22 258.017 395.689 244.321 400.563 228.444C405.267 230.558 410.099 231.526 414.383 230.867C427.848 228.794 436.383 213.752 432.551 196.161C428.72 178.57 409.638 166.1 396.173 168.172C392.47 168.742 389.195 170.36 386.473 172.773C374.224 158.835 357.678 151.441 342.761 154.975C340.174 155.588 337.645 156.542 335.209 157.797C318.84 142.892 298.076 135.424 278.707 140.727C265.16 143.936 255.537 154.69 250.957 169.452C243.16 167.675 235.524 167.582 228.929 169.402C216.815 172.746 208.608 182.612 205.36 195.595C201.754 195.315 198.117 195.568 194.547 196.417C187.775 198.027 182.128 201.569 177.927 206.387C171.476 202.271 163.498 199.838 154.863 199.838C133.398 199.838 115.998 214.871 115.998 233.415C115.998 251.959 133.398 266.992 154.863 266.992C164.71 266.992 173.702 263.828 180.551 258.613C190.627 270.411 206.047 276.59 220.375 273.183C227.167 271.569 232.826 268.012 237.031 263.174C250.579 272.61 265.317 277.496 277.997 273.996C283.303 272.532 287.859 269.816 291.577 266.136Z"/>
</mask>
<path fill-rule="evenodd" clip-rule="evenodd" d="M291.577 266.136C305.859 274.774 321.354 279.06 333.608 276.157C347.787 272.799 357.149 268.092 362.996 262.204C365.528 262.157 368.039 261.85 370.501 261.266C384.22 258.017 395.689 244.321 400.563 228.444C405.267 230.558 410.099 231.526 414.383 230.867C427.848 228.794 436.383 213.752 432.551 196.161C428.72 178.57 409.638 166.1 396.173 168.172C392.47 168.742 389.195 170.36 386.473 172.773C374.224 158.835 357.678 151.441 342.761 154.975C340.174 155.588 337.645 156.542 335.209 157.797C318.84 142.892 298.076 135.424 278.707 140.727C265.16 143.936 255.537 154.69 250.957 169.452C243.16 167.675 235.524 167.582 228.929 169.402C216.815 172.746 208.608 182.612 205.36 195.595C201.754 195.315 198.117 195.568 194.547 196.417C187.775 198.027 182.128 201.569 177.927 206.387C171.476 202.271 163.498 199.838 154.863 199.838C133.398 199.838 115.998 214.871 115.998 233.415C115.998 251.959 133.398 266.992 154.863 266.992C164.71 266.992 173.702 263.828 180.551 258.613C190.627 270.411 206.047 276.59 220.375 273.183C227.167 271.569 232.826 268.012 237.031 263.174C250.579 272.61 265.317 277.496 277.997 273.996C283.303 272.532 287.859 269.816 291.577 266.136Z" fill="white"/>
<path d="M333.608 276.157L334.991 281.996L333.608 276.157ZM291.577 266.136L287.356 261.871L290.681 258.581L294.683 261.002L291.577 266.136ZM362.996 262.204L358.739 257.976L360.453 256.25L362.886 256.205L362.996 262.204ZM370.501 261.266L369.118 255.428L370.501 261.266ZM400.563 228.444L394.827 226.683L396.822 220.185L403.022 222.971L400.563 228.444ZM414.383 230.867L413.47 224.936H413.47L414.383 230.867ZM432.551 196.161L438.414 194.884L432.551 196.161ZM396.173 168.172L395.26 162.242L396.173 168.172ZM386.473 172.773L390.452 177.264L385.943 181.26L381.966 176.734L386.473 172.773ZM342.761 154.975L341.378 149.136V149.136L342.761 154.975ZM335.209 157.797L337.957 163.131L334.252 165.04L331.17 162.233L335.209 157.797ZM278.707 140.727L280.291 146.514L280.191 146.541L280.09 146.565L278.707 140.727ZM250.957 169.452L256.688 171.23L255.042 176.537L249.624 175.302L250.957 169.452ZM228.929 169.402L227.333 163.619L228.929 169.402ZM205.36 195.595L211.181 197.051L209.95 201.969L204.896 201.577L205.36 195.595ZM194.547 196.417L195.935 202.254L194.547 196.417ZM177.927 206.387L182.449 210.33L179.054 214.223L174.7 211.445L177.927 206.387ZM180.551 258.613L176.916 253.839L181.429 250.402L185.114 254.716L180.551 258.613ZM220.375 273.183L221.763 279.021L220.375 273.183ZM237.031 263.174L232.502 259.238L236.038 255.17L240.46 258.25L237.031 263.174ZM277.997 273.996L276.4 268.213L277.997 273.996ZM334.991 281.996C320.546 285.417 303.379 280.286 288.472 271.27L294.683 261.002C308.339 269.262 322.162 272.703 332.225 270.319L334.991 281.996ZM367.254 266.432C360.294 273.44 349.704 278.51 334.991 281.996L332.225 270.319C345.87 267.087 354.005 262.743 358.739 257.976L367.254 266.432ZM371.884 267.105C368.99 267.79 366.052 268.149 363.107 268.203L362.886 256.205C365.003 256.166 367.087 255.909 369.118 255.428L371.884 267.105ZM406.299 230.205C401.059 247.27 388.411 263.19 371.884 267.105L369.118 255.428C380.028 252.843 390.318 241.371 394.827 226.683L406.299 230.205ZM403.022 222.971C407.038 224.776 410.674 225.367 413.47 224.936L415.295 236.797C409.525 237.685 403.496 236.34 398.103 233.917L403.022 222.971ZM413.47 224.936C422.323 223.574 430.069 212.956 426.689 197.438L438.414 194.884C442.697 214.548 433.373 234.014 415.295 236.797L413.47 224.936ZM426.689 197.438C425.147 190.358 420.44 184.018 414.438 179.64C408.338 175.19 401.775 173.381 397.085 174.102L395.26 162.242C404.036 160.891 413.746 164.281 421.511 169.946C429.375 175.683 436.124 184.373 438.414 194.884L426.689 197.438ZM397.085 174.102C394.588 174.487 392.363 175.57 390.452 177.264L382.493 168.283C386.028 165.151 390.353 162.997 395.26 162.242L397.085 174.102ZM341.378 149.136C359.19 144.917 377.843 153.864 390.98 168.813L381.966 176.734C370.605 163.806 356.167 157.965 344.144 160.813L341.378 149.136ZM332.461 152.463C335.298 151.002 338.284 149.869 341.378 149.136L344.144 160.813C342.064 161.306 339.991 162.083 337.957 163.131L332.461 152.463ZM277.122 134.94C299.064 128.933 321.876 137.542 339.249 153.361L331.17 162.233C315.804 148.242 297.087 141.916 280.291 146.514L277.122 134.94ZM245.227 167.675C250.258 151.455 261.19 138.71 277.324 134.888L280.09 146.565C269.13 149.161 260.815 157.925 256.688 171.23L245.227 167.675ZM227.333 163.619C235.09 161.478 243.759 161.658 252.291 163.602L249.624 175.302C242.561 173.693 235.958 173.687 230.525 175.186L227.333 163.619ZM199.539 194.139C203.192 179.535 212.699 167.658 227.333 163.619L230.525 175.186C220.932 177.834 214.023 185.689 211.181 197.051L199.539 194.139ZM193.16 190.58C197.364 189.58 201.627 189.287 205.824 189.613L204.896 201.577C201.882 201.343 198.87 201.557 195.935 202.254L193.16 190.58ZM173.405 202.443C178.418 196.695 185.155 192.483 193.16 190.58L195.935 202.254C190.394 203.572 185.839 206.443 182.449 210.33L173.405 202.443ZM154.863 193.838C164.623 193.838 173.723 196.587 181.154 201.328L174.7 211.445C169.229 207.954 162.374 205.838 154.863 205.838V193.838ZM109.998 233.415C109.998 210.763 130.938 193.838 154.863 193.838V205.838C135.858 205.838 121.998 218.978 121.998 233.415H109.998ZM154.863 272.992C130.938 272.992 109.998 256.066 109.998 233.415H121.998C121.998 247.852 135.858 260.992 154.863 260.992V272.992ZM184.186 263.386C176.265 269.418 165.989 272.992 154.863 272.992V260.992C163.432 260.992 171.139 258.238 176.916 253.839L184.186 263.386ZM221.763 279.021C204.857 283.04 187.249 275.694 175.989 262.509L185.114 254.716C194.005 265.127 207.236 270.14 218.988 267.346L221.763 279.021ZM241.559 267.11C236.542 272.882 229.79 277.112 221.763 279.021L218.988 267.346C224.543 266.025 229.109 263.142 232.502 259.238L241.559 267.11ZM279.593 279.78C264.398 283.974 247.766 277.962 233.602 268.097L240.46 258.25C253.392 267.258 266.235 271.018 276.4 268.213L279.593 279.78ZM295.798 270.4C291.368 274.785 285.914 278.035 279.593 279.78L276.4 268.213C280.691 267.028 284.35 264.847 287.356 261.871L295.798 270.4Z" fill="black" mask="url(#path-1-outside-1_0_366)"/>
<mask id="path-3-outside-2_0_366" maskUnits="userSpaceOnUse" x="436.355" y="376" width="251" height="158" fill="black">
<rect fill="white" x="436.355" y="376" width="251" height="158"/>
<path fill-rule="evenodd" clip-rule="evenodd" d="M553.201 515.602C566.1 524.614 580.095 529.085 591.162 526.057C603.969 522.553 612.425 517.643 617.705 511.501C619.991 511.452 622.258 511.131 624.481 510.522C636.871 507.132 647.23 492.845 651.632 476.282C655.881 478.488 660.246 479.497 664.114 478.809C676.276 476.647 683.985 460.956 680.524 442.605C677.063 424.254 659.829 411.245 647.668 413.407C644.324 414.001 641.366 415.69 638.906 418.207C627.844 403.666 612.9 395.953 599.427 399.639C597.091 400.278 594.807 401.274 592.608 402.583C577.824 387.035 559.071 379.245 541.577 384.776C529.342 388.124 520.651 399.343 516.515 414.743C509.472 412.889 502.576 412.792 496.619 414.691C485.678 418.179 478.265 428.471 475.332 442.014C472.076 441.722 468.791 441.987 465.567 442.872C447.798 447.751 438.616 469.634 445.058 491.748C451.499 513.862 471.125 527.834 488.894 522.955C495.028 521.271 500.138 517.56 503.936 512.513C516.173 522.357 529.483 527.454 540.935 523.803C545.728 522.275 549.843 519.442 553.201 515.602Z"/>
</mask>
<path fill-rule="evenodd" clip-rule="evenodd" d="M553.201 515.602C566.1 524.614 580.095 529.085 591.162 526.057C603.969 522.553 612.425 517.643 617.705 511.501C619.991 511.452 622.258 511.131 624.481 510.522C636.871 507.132 647.23 492.845 651.632 476.282C655.881 478.488 660.246 479.497 664.114 478.809C676.276 476.647 683.985 460.956 680.524 442.605C677.063 424.254 659.829 411.245 647.668 413.407C644.324 414.001 641.366 415.69 638.906 418.207C627.844 403.666 612.9 395.953 599.427 399.639C597.091 400.278 594.807 401.274 592.608 402.583C577.824 387.035 559.071 379.245 541.577 384.776C529.342 388.124 520.651 399.343 516.515 414.743C509.472 412.889 502.576 412.792 496.619 414.691C485.678 418.179 478.265 428.471 475.332 442.014C472.076 441.722 468.791 441.987 465.567 442.872C447.798 447.751 438.616 469.634 445.058 491.748C451.499 513.862 471.125 527.834 488.894 522.955C495.028 521.271 500.138 517.56 503.936 512.513C516.173 522.357 529.483 527.454 540.935 523.803C545.728 522.275 549.843 519.442 553.201 515.602Z" fill="white"/>
<path d="M591.162 526.057L589.579 520.27H589.579L591.162 526.057ZM553.201 515.602L548.685 511.652L552.227 507.602L556.638 510.684L553.201 515.602ZM617.705 511.501L613.156 507.589L614.901 505.559L617.577 505.502L617.705 511.501ZM624.481 510.522L626.065 516.31H626.065L624.481 510.522ZM651.632 476.282L645.833 474.741L647.756 467.509L654.397 470.957L651.632 476.282ZM664.114 478.809L663.064 472.902H663.064L664.114 478.809ZM680.524 442.605L686.42 441.493L680.524 442.605ZM647.668 413.407L648.718 419.314L648.718 419.314L647.668 413.407ZM638.906 418.207L643.198 422.4L638.34 427.372L634.131 421.84L638.906 418.207ZM599.427 399.639L597.844 393.852V393.852L599.427 399.639ZM592.608 402.583L595.676 407.739L591.56 410.188L588.26 406.717L592.608 402.583ZM541.577 384.776L543.386 390.497L543.274 390.532L543.161 390.563L541.577 384.776ZM516.515 414.743L522.309 416.299L520.761 422.065L514.987 420.545L516.515 414.743ZM496.619 414.691L494.796 408.974L496.619 414.691ZM475.332 442.014L481.196 443.284L480.074 448.463L474.796 447.99L475.332 442.014ZM465.567 442.872L467.156 448.658L465.567 442.872ZM445.058 491.748L450.818 490.07V490.07L445.058 491.748ZM488.894 522.955L490.483 528.741L488.894 522.955ZM503.936 512.513L499.142 508.906L502.868 503.954L507.697 507.838L503.936 512.513ZM540.935 523.803L539.113 518.087L540.935 523.803ZM592.746 531.844C579.144 535.566 563.251 529.942 549.765 520.521L556.638 510.684C568.95 519.285 581.046 522.604 589.579 520.27L592.746 531.844ZM622.255 515.412C615.916 522.785 606.21 528.16 592.746 531.844L589.579 520.27C601.727 516.946 608.933 512.5 613.156 507.589L622.255 515.412ZM626.065 516.31C623.355 517.051 620.599 517.44 617.834 517.499L617.577 505.502C619.384 505.463 621.161 505.21 622.898 504.735L626.065 516.31ZM657.431 477.823C655.05 486.78 651.035 495.238 645.799 502.011C640.596 508.743 633.899 514.166 626.065 516.31L622.898 504.735C627.454 503.489 632.131 500.073 636.305 494.673C640.447 489.314 643.812 482.347 645.833 474.741L657.431 477.823ZM654.397 470.957C657.923 472.787 660.92 473.283 663.064 472.902L665.165 484.717C659.571 485.711 653.839 484.188 648.868 481.607L654.397 470.957ZM663.064 472.902C666.729 472.25 670.313 469.464 672.736 464.249C675.153 459.049 676.159 451.835 674.628 443.717L686.42 441.493C688.35 451.726 687.231 461.533 683.619 469.307C680.013 477.065 673.661 483.206 665.165 484.717L663.064 472.902ZM674.628 443.717C673.181 436.048 668.818 429.389 663.492 424.902C658.01 420.282 652.412 418.657 648.718 419.314L646.617 407.499C655.085 405.994 664.185 409.793 671.225 415.725C678.421 421.789 684.405 430.811 686.42 441.493L674.628 443.717ZM648.718 419.314C646.76 419.662 644.898 420.66 643.198 422.4L634.615 414.014C637.833 410.719 641.887 408.34 646.617 407.499L648.718 419.314ZM597.844 393.852C614.717 389.235 631.921 399.116 643.682 414.574L634.131 421.84C623.767 408.217 611.083 402.67 601.011 405.426L597.844 393.852ZM589.54 397.426C592.157 395.869 594.937 394.647 597.844 393.852L601.011 405.426C599.245 405.909 597.457 406.679 595.676 407.739L589.54 397.426ZM539.768 379.055C560.27 372.573 581.288 381.97 596.956 398.448L588.26 406.717C574.36 392.099 557.871 385.917 543.386 390.497L539.768 379.055ZM510.72 413.187C515.159 396.659 524.918 383.114 539.994 378.989L543.161 390.563C533.766 393.134 526.142 402.027 522.309 416.299L510.72 413.187ZM494.796 408.974C502.073 406.654 510.162 406.866 518.042 408.941L514.987 420.545C508.782 418.912 503.078 418.929 498.441 420.407L494.796 408.974ZM469.468 440.744C472.675 425.936 481.11 413.338 494.796 408.974L498.441 420.407C490.246 423.02 483.855 431.006 481.196 443.284L469.468 440.744ZM463.978 437.086C467.92 436.004 471.926 435.685 475.868 436.038L474.796 447.99C472.225 447.76 469.661 447.97 467.156 448.658L463.978 437.086ZM439.297 493.426C432.296 469.391 441.814 443.172 463.978 437.086L467.156 448.658C453.782 452.33 444.936 469.876 450.818 490.07L439.297 493.426ZM490.483 528.741C468.441 534.793 446.295 517.449 439.297 493.426L450.818 490.07C456.703 510.275 473.809 520.875 487.305 517.169L490.483 528.741ZM508.73 516.121C504.214 522.122 498.019 526.671 490.483 528.741L487.305 517.169C492.036 515.87 496.062 512.998 499.142 508.906L508.73 516.121ZM542.758 529.52C528.399 534.097 512.948 527.463 500.175 517.188L507.697 507.838C519.397 517.251 530.568 520.811 539.113 518.087L542.758 529.52ZM557.718 519.552C553.708 524.137 548.688 527.629 542.758 529.52L539.113 518.087C542.767 516.922 545.978 514.748 548.685 511.652L557.718 519.552Z" fill="black" mask="url(#path-3-outside-2_0_366)"/>
<mask id="path-5-outside-3_0_366" maskUnits="userSpaceOnUse" x="1798.36" y="0" width="251" height="158" fill="black">
<rect fill="white" x="1798.36" width="251" height="158"/>
<path fill-rule="evenodd" clip-rule="evenodd" d="M1915.2 139.602C1928.1 148.614 1942.1 153.085 1953.16 150.057C1965.97 146.553 1974.42 141.643 1979.71 135.501C1981.99 135.452 1984.26 135.131 1986.48 134.522C1998.87 131.132 2009.23 116.845 2013.63 100.282C2017.88 102.488 2022.25 103.497 2026.11 102.809C2038.28 100.647 2045.98 84.9558 2042.52 66.6048C2039.06 48.2538 2021.83 35.2447 2009.67 37.4067C2006.32 38.0012 2003.37 39.6896 2000.91 42.2068C1989.84 27.6663 1974.9 19.9527 1961.43 23.6391C1959.09 24.2783 1956.81 25.2742 1954.61 26.5825C1939.82 11.0346 1921.07 3.24456 1903.58 8.77589C1891.34 12.1236 1882.65 23.3426 1878.51 38.743C1871.47 36.889 1864.58 36.7918 1858.62 38.6908C1847.68 42.1788 1840.27 52.4708 1837.33 66.0141C1834.08 65.7223 1830.79 65.9869 1827.57 66.8722C1809.8 71.7512 1800.62 93.6336 1807.06 115.748C1813.5 137.862 1833.13 151.834 1850.89 146.955C1857.03 145.271 1862.14 141.56 1865.94 136.513C1878.17 146.357 1891.48 151.454 1902.94 147.803C1907.73 146.275 1911.84 143.442 1915.2 139.602Z"/>
</mask>
<path fill-rule="evenodd" clip-rule="evenodd" d="M1915.2 139.602C1928.1 148.614 1942.1 153.085 1953.16 150.057C1965.97 146.553 1974.42 141.643 1979.71 135.501C1981.99 135.452 1984.26 135.131 1986.48 134.522C1998.87 131.132 2009.23 116.845 2013.63 100.282C2017.88 102.488 2022.25 103.497 2026.11 102.809C2038.28 100.647 2045.98 84.9558 2042.52 66.6048C2039.06 48.2538 2021.83 35.2447 2009.67 37.4067C2006.32 38.0012 2003.37 39.6896 2000.91 42.2068C1989.84 27.6663 1974.9 19.9527 1961.43 23.6391C1959.09 24.2783 1956.81 25.2742 1954.61 26.5825C1939.82 11.0346 1921.07 3.24456 1903.58 8.77589C1891.34 12.1236 1882.65 23.3426 1878.51 38.743C1871.47 36.889 1864.58 36.7918 1858.62 38.6908C1847.68 42.1788 1840.27 52.4708 1837.33 66.0141C1834.08 65.7223 1830.79 65.9869 1827.57 66.8722C1809.8 71.7512 1800.62 93.6336 1807.06 115.748C1813.5 137.862 1833.13 151.834 1850.89 146.955C1857.03 145.271 1862.14 141.56 1865.94 136.513C1878.17 146.357 1891.48 151.454 1902.94 147.803C1907.73 146.275 1911.84 143.442 1915.2 139.602Z" fill="white"/>
<path d="M1953.16 150.057L1951.58 144.27H1951.58L1953.16 150.057ZM1915.2 139.602L1910.69 135.652L1914.23 131.602L1918.64 134.684L1915.2 139.602ZM1979.71 135.501L1975.16 131.589L1976.9 129.559L1979.58 129.502L1979.71 135.501ZM1986.48 134.522L1988.07 140.31H1988.07L1986.48 134.522ZM2013.63 100.282L2007.83 98.7406L2009.76 91.5091L2016.4 94.9566L2013.63 100.282ZM2026.11 102.809L2025.06 96.902H2025.06L2026.11 102.809ZM2042.52 66.6048L2048.42 65.4928L2042.52 66.6048ZM2009.67 37.4067L2010.72 43.3141L2010.72 43.3141L2009.67 37.4067ZM2000.91 42.2068L2005.2 46.3997L2000.34 51.3721L1996.13 45.8397L2000.91 42.2068ZM1961.43 23.6391L1959.84 17.8518V17.8518L1961.43 23.6391ZM1954.61 26.5825L1957.68 31.7388L1953.56 34.1878L1950.26 30.717L1954.61 26.5825ZM1903.58 8.77589L1905.39 14.4967L1905.27 14.5322L1905.16 14.5632L1903.58 8.77589ZM1878.51 38.743L1884.31 40.2992L1882.76 46.0654L1876.99 44.5453L1878.51 38.743ZM1858.62 38.6908L1856.8 32.9743L1858.62 38.6908ZM1837.33 66.0141L1843.2 67.2841L1842.07 72.4633L1836.8 71.9902L1837.33 66.0141ZM1827.57 66.8722L1829.16 72.658L1827.57 66.8722ZM1807.06 115.748L1812.82 114.07V114.07L1807.06 115.748ZM1850.89 146.955L1852.48 152.741L1850.89 146.955ZM1865.94 136.513L1861.14 132.906L1864.87 127.954L1869.7 131.838L1865.94 136.513ZM1902.94 147.803L1901.11 142.087L1902.94 147.803ZM1954.75 155.844C1941.14 159.566 1925.25 153.942 1911.77 144.521L1918.64 134.684C1930.95 143.285 1943.05 146.604 1951.58 144.27L1954.75 155.844ZM1984.26 139.412C1977.92 146.785 1968.21 152.16 1954.75 155.844L1951.58 144.27C1963.73 140.946 1970.93 136.5 1975.16 131.589L1984.26 139.412ZM1988.07 140.31C1985.35 141.051 1982.6 141.44 1979.83 141.499L1979.58 129.502C1981.38 129.463 1983.16 129.21 1984.9 128.735L1988.07 140.31ZM2019.43 101.823C2017.05 110.78 2013.03 119.238 2007.8 126.011C2002.6 132.743 1995.9 138.166 1988.07 140.31L1984.9 128.735C1989.45 127.489 1994.13 124.073 1998.31 118.673C2002.45 113.314 2005.81 106.347 2007.83 98.7406L2019.43 101.823ZM2016.4 94.9566C2019.92 96.7872 2022.92 97.2831 2025.06 96.902L2027.16 108.717C2021.57 109.711 2015.84 108.188 2010.87 105.607L2016.4 94.9566ZM2025.06 96.902C2028.73 96.2504 2032.31 93.4644 2034.74 88.2492C2037.15 83.0491 2038.16 75.8348 2036.63 67.7167L2048.42 65.4928C2050.35 75.7257 2049.23 85.5327 2045.62 93.3066C2042.01 101.065 2035.66 107.206 2027.16 108.717L2025.06 96.902ZM2036.63 67.7167C2035.18 60.0475 2030.82 53.3895 2025.49 48.9016C2020.01 44.282 2014.41 42.6573 2010.72 43.3141L2008.62 31.4994C2017.08 29.9941 2026.18 33.7929 2033.22 39.7251C2040.42 45.789 2046.41 54.811 2048.42 65.4928L2036.63 67.7167ZM2010.72 43.3141C2008.76 43.6621 2006.9 44.6597 2005.2 46.3997L1996.61 38.0139C1999.83 34.7195 2003.89 32.3404 2008.62 31.4994L2010.72 43.3141ZM1959.84 17.8518C1976.72 13.2351 1993.92 23.116 2005.68 38.5739L1996.13 45.8397C1985.77 32.2167 1973.08 26.6703 1963.01 29.4264L1959.84 17.8518ZM1951.54 21.4262C1954.16 19.8692 1956.94 18.6471 1959.84 17.8518L1963.01 29.4264C1961.24 29.9095 1959.46 30.6791 1957.68 31.7388L1951.54 21.4262ZM1901.77 3.05506C1922.27 -3.42747 1943.29 5.97031 1958.96 22.448L1950.26 30.717C1936.36 16.0988 1919.87 9.9166 1905.39 14.4967L1901.77 3.05506ZM1872.72 37.1868C1877.16 20.6587 1886.92 7.11351 1901.99 2.9886L1905.16 14.5632C1895.77 17.1337 1888.14 26.0265 1884.31 40.2992L1872.72 37.1868ZM1856.8 32.9743C1864.07 30.6545 1872.16 30.8662 1880.04 32.9407L1876.99 44.5453C1870.78 42.9118 1865.08 42.9291 1860.44 44.4074L1856.8 32.9743ZM1831.47 64.7441C1834.68 49.9355 1843.11 37.3376 1856.8 32.9743L1860.44 44.4074C1852.25 47.02 1845.86 55.0061 1843.2 67.2841L1831.47 64.7441ZM1825.98 61.0863C1829.92 60.0039 1833.93 59.6848 1837.87 60.0381L1836.8 71.9902C1834.23 71.7597 1831.66 71.9699 1829.16 72.658L1825.98 61.0863ZM1801.3 117.426C1794.3 93.3909 1803.81 67.1722 1825.98 61.0863L1829.16 72.658C1815.78 76.3302 1806.94 93.8763 1812.82 114.07L1801.3 117.426ZM1852.48 152.741C1830.44 158.793 1808.29 141.449 1801.3 117.426L1812.82 114.07C1818.7 134.275 1835.81 144.875 1849.31 141.169L1852.48 152.741ZM1870.73 140.121C1866.21 146.122 1860.02 150.671 1852.48 152.741L1849.31 141.169C1854.04 139.87 1858.06 136.998 1861.14 132.906L1870.73 140.121ZM1904.76 153.52C1890.4 158.097 1874.95 151.463 1862.18 141.188L1869.7 131.838C1881.4 141.251 1892.57 144.811 1901.11 142.087L1904.76 153.52ZM1919.72 143.552C1915.71 148.137 1910.69 151.629 1904.76 153.52L1901.11 142.087C1904.77 140.922 1907.98 138.748 1910.69 135.652L1919.72 143.552Z" fill="black" mask="url(#path-5-outside-3_0_366)"/>
<mask id="path-7-outside-4_0_366" maskUnits="userSpaceOnUse" x="1076.71" y="158.735" width="336.364" height="173.576" fill="black">
<rect fill="white" x="1076.71" y="158.735" width="336.364" height="173.576"/>
<path fill-rule="evenodd" clip-rule="evenodd" d="M1230.36 307.786C1216.47 317.519 1201.18 322.699 1188.81 320.137C1174.5 317.172 1164.93 312.581 1158.83 306.595C1156.3 306.65 1153.78 306.429 1151.3 305.915C1137.45 303.047 1125.38 289.032 1119.82 272.436C1115.21 274.869 1110.42 276.093 1106.11 275.574C1092.57 273.941 1083.38 258.381 1086.43 239.609C1089.49 220.838 1108 206.85 1121.55 208.484C1125.27 208.933 1128.62 210.509 1131.44 212.949C1143.07 197.693 1159.27 189.182 1174.33 192.3C1176.94 192.841 1179.51 193.746 1182 194.972C1197.7 178.522 1218.12 169.758 1237.7 174.563C1251.38 177.396 1261.47 188.374 1266.69 203.803C1274.4 201.598 1282.03 201.182 1288.7 202.834C1300.95 205.869 1309.59 215.966 1313.4 229.567C1316.99 229.121 1320.64 229.239 1324.24 229.988C1331.08 231.41 1336.88 234.923 1341.29 239.845C1347.55 235.222 1355.41 232.317 1364.04 231.958C1385.49 231.066 1403.53 246.248 1404.35 265.869C1405.17 285.49 1388.44 302.118 1367 303.01C1357.16 303.42 1348.03 300.446 1340.96 295.213C1331.41 308.114 1316.28 315.292 1301.81 312.284C1294.96 310.858 1289.15 307.33 1284.73 302.386C1271.61 312.933 1257.1 318.715 1244.28 315.539C1238.91 314.21 1234.24 311.526 1230.36 307.786Z"/>
</mask>
<path fill-rule="evenodd" clip-rule="evenodd" d="M1230.36 307.786C1216.47 317.519 1201.18 322.699 1188.81 320.137C1174.5 317.172 1164.93 312.581 1158.83 306.595C1156.3 306.65 1153.78 306.429 1151.3 305.915C1137.45 303.047 1125.38 289.032 1119.82 272.436C1115.21 274.869 1110.42 276.093 1106.11 275.574C1092.57 273.941 1083.38 258.381 1086.43 239.609C1089.49 220.838 1108 206.85 1121.55 208.484C1125.27 208.933 1128.62 210.509 1131.44 212.949C1143.07 197.693 1159.27 189.182 1174.33 192.3C1176.94 192.841 1179.51 193.746 1182 194.972C1197.7 178.522 1218.12 169.758 1237.7 174.563C1251.38 177.396 1261.47 188.374 1266.69 203.803C1274.4 201.598 1282.03 201.182 1288.7 202.834C1300.95 205.869 1309.59 215.966 1313.4 229.567C1316.99 229.121 1320.64 229.239 1324.24 229.988C1331.08 231.41 1336.88 234.923 1341.29 239.845C1347.55 235.222 1355.41 232.317 1364.04 231.958C1385.49 231.066 1403.53 246.248 1404.35 265.869C1405.17 285.49 1388.44 302.118 1367 303.01C1357.16 303.42 1348.03 300.446 1340.96 295.213C1331.41 308.114 1316.28 315.292 1301.81 312.284C1294.96 310.858 1289.15 307.33 1284.73 302.386C1271.61 312.933 1257.1 318.715 1244.28 315.539C1238.91 314.21 1234.24 311.526 1230.36 307.786Z" fill="white"/>
<path d="M1188.81 320.137L1187.59 326.012L1187.59 326.012L1188.81 320.137ZM1230.36 307.786L1234.53 303.468L1230.97 300.034L1226.92 302.872L1230.36 307.786ZM1158.83 306.595L1163.03 302.312L1161.23 300.541L1158.7 300.596L1158.83 306.595ZM1151.3 305.915L1150.08 311.79L1150.08 311.79L1151.3 305.915ZM1119.82 272.436L1125.5 270.527L1123.26 263.834L1117.01 267.13L1119.82 272.436ZM1106.11 275.574L1106.83 269.617L1106.11 275.574ZM1086.43 239.609L1092.36 240.573L1086.43 239.609ZM1121.55 208.484L1122.27 202.527L1121.55 208.484ZM1131.44 212.949L1127.52 217.491L1132.35 221.658L1136.22 216.585L1131.44 212.949ZM1174.33 192.3L1175.55 186.425L1174.33 192.3ZM1182 194.972L1179.35 200.354L1183.3 202.301L1186.34 199.114L1182 194.972ZM1237.7 174.563L1236.27 180.391L1236.38 180.417L1236.49 180.439L1237.7 174.563ZM1266.69 203.803L1261.01 205.728L1262.84 211.143L1268.34 209.572L1266.69 203.803ZM1288.7 202.834L1287.26 208.658L1288.7 202.834ZM1313.4 229.567L1307.63 231.188L1309.02 236.158L1314.14 235.522L1313.4 229.567ZM1324.24 229.988L1323.02 235.862L1324.24 229.988ZM1341.29 239.845L1336.82 243.849L1340.46 247.912L1344.85 244.673L1341.29 239.845ZM1340.96 295.213L1344.53 290.39L1339.71 286.821L1336.14 291.643L1340.96 295.213ZM1301.81 312.284L1303.04 306.41L1301.81 312.284ZM1284.73 302.386L1289.21 298.389L1285.41 294.14L1280.97 297.709L1284.73 302.386ZM1244.28 315.539L1242.84 321.363L1242.84 321.363L1244.28 315.539ZM1187.59 326.012C1202.31 329.06 1219.32 322.852 1233.81 312.7L1226.92 302.872C1213.63 312.187 1200.05 316.338 1190.03 314.261L1187.59 326.012ZM1154.63 310.878C1161.87 317.985 1172.69 322.926 1187.59 326.012L1190.03 314.261C1176.3 311.419 1167.99 307.178 1163.03 302.312L1154.63 310.878ZM1150.08 311.79C1153.02 312.399 1156 312.659 1158.96 312.593L1158.7 300.596C1156.61 300.642 1154.54 300.459 1152.51 300.039L1150.08 311.79ZM1114.13 274.345C1120.05 291.983 1133.29 308.314 1150.08 311.79L1152.51 300.039C1141.6 297.779 1130.72 286.082 1125.5 270.527L1114.13 274.345ZM1117.01 267.13C1113.1 269.199 1109.55 269.945 1106.83 269.617L1105.4 281.531C1111.29 282.242 1117.32 280.539 1122.62 277.742L1117.01 267.13ZM1106.83 269.617C1098.11 268.565 1089.58 257.6 1092.36 240.573L1080.51 238.646C1077.17 259.162 1087.03 279.316 1105.4 281.531L1106.83 269.617ZM1092.36 240.573C1093.61 232.832 1098.12 225.862 1103.92 220.986C1109.83 216.011 1116.24 213.888 1120.83 214.441L1122.27 202.527C1113.31 201.447 1103.69 205.5 1096.19 211.803C1088.58 218.206 1082.31 227.615 1080.51 238.646L1092.36 240.573ZM1120.83 214.441C1123.27 214.735 1125.52 215.763 1127.52 217.491L1135.36 208.407C1131.71 205.255 1127.27 203.131 1122.27 202.527L1120.83 214.441ZM1175.55 186.425C1157.37 182.661 1139.07 193.035 1126.67 209.312L1136.22 216.585C1147.06 202.35 1161.17 195.702 1173.12 198.176L1175.55 186.425ZM1184.65 189.59C1181.75 188.158 1178.7 187.077 1175.55 186.425L1173.12 198.176C1175.19 198.605 1177.28 199.334 1179.35 200.354L1184.65 189.59ZM1239.13 168.736C1216.78 163.252 1194.28 173.411 1177.66 190.829L1186.34 199.114C1201.12 183.633 1219.46 176.265 1236.27 180.391L1239.13 168.736ZM1272.38 201.878C1266.71 185.136 1255.32 172.084 1238.92 168.688L1236.49 180.439C1247.44 182.708 1256.23 191.612 1261.01 205.728L1272.38 201.878ZM1290.14 197.01C1282.24 195.052 1273.52 195.611 1265.04 198.034L1268.34 209.572C1275.29 207.586 1281.83 207.313 1287.26 208.658L1290.14 197.01ZM1319.18 227.946C1314.95 212.879 1305.04 200.7 1290.14 197.01L1287.26 208.658C1296.86 211.037 1304.22 219.053 1307.63 231.188L1319.18 227.946ZM1325.46 224.114C1321.19 223.224 1316.88 223.09 1312.66 223.613L1314.14 235.522C1317.11 235.153 1320.09 235.253 1323.02 235.862L1325.46 224.114ZM1345.75 235.841C1340.53 230.008 1333.61 225.808 1325.46 224.114L1323.02 235.862C1328.55 237.012 1333.22 239.837 1336.82 243.849L1345.75 235.841ZM1363.79 225.963C1353.97 226.372 1344.95 229.685 1337.72 235.017L1344.85 244.673C1350.15 240.76 1356.86 238.262 1364.29 237.953L1363.79 225.963ZM1410.34 265.62C1409.37 242.197 1388.03 224.955 1363.79 225.963L1364.29 237.953C1382.94 237.177 1397.7 250.299 1398.35 266.118L1410.34 265.62ZM1367.24 309.005C1391.49 307.997 1411.32 289.042 1410.34 265.62L1398.35 266.118C1399.01 281.937 1385.39 296.24 1366.75 297.016L1367.24 309.005ZM1337.39 300.036C1345.57 306.086 1356.04 309.471 1367.24 309.005L1366.75 297.016C1358.27 297.368 1350.5 294.805 1344.53 290.39L1337.39 300.036ZM1300.59 318.158C1317.85 321.747 1335.17 313.121 1345.78 298.782L1336.14 291.643C1327.65 303.108 1314.71 308.838 1303.04 306.41L1300.59 318.158ZM1280.26 306.382C1285.49 312.24 1292.42 316.459 1300.59 318.158L1303.04 306.41C1297.49 305.257 1292.81 302.419 1289.21 298.389L1280.26 306.382ZM1242.84 321.363C1258.35 325.206 1274.8 318.069 1288.49 307.062L1280.97 297.709C1268.42 307.797 1255.85 312.223 1245.72 309.715L1242.84 321.363ZM1226.2 312.104C1230.8 316.539 1236.39 319.767 1242.84 321.363L1245.72 309.715C1241.43 308.652 1237.69 306.513 1234.53 303.468L1226.2 312.104Z" fill="black" mask="url(#path-7-outside-4_0_366)"/>
<mask id="path-9-outside-5_0_366" maskUnits="userSpaceOnUse" x="1527.97" y="245.897" width="323.331" height="219.912" fill="black">
<rect fill="white" x="1527.97" y="245.897" width="323.331" height="219.912"/>
<path fill-rule="evenodd" clip-rule="evenodd" d="M1668.47 437.179C1683.61 449.959 1700.33 456.684 1713.91 453.166C1729.63 449.096 1740.16 442.913 1746.91 434.913C1749.68 434.962 1752.45 434.645 1755.18 433.938C1769.17 430.316 1781.59 414.199 1788.37 394.464C1794.51 396.518 1800.83 397.301 1806.7 396.393C1828.23 393.067 1844.11 371.461 1840.94 346.586C1837.77 321.711 1809.77 304.543 1788.25 307.869C1784.71 308.416 1781.34 309.491 1778.21 311.018C1765.59 290.505 1747.72 279.101 1731.01 283.426C1728.14 284.169 1725.32 285.394 1722.58 287.045C1705.53 265.371 1683.23 253.939 1661.71 260.502C1646.69 264.391 1635.52 279.054 1629.64 299.574C1621.21 296.723 1612.85 296.244 1605.52 298.5C1592.07 302.643 1582.5 316.122 1578.19 334.203C1574.26 333.646 1570.26 333.837 1566.3 334.866C1544.49 340.537 1532.13 369.527 1538.7 399.618C1545.27 429.708 1568.28 449.504 1590.1 443.833C1597.63 441.875 1604.03 437.138 1608.92 430.537C1623.2 444.404 1639.06 451.936 1653.14 447.599C1659.04 445.784 1664.19 442.178 1668.47 437.179Z"/>
</mask>
<path fill-rule="evenodd" clip-rule="evenodd" d="M1668.47 437.179C1683.61 449.959 1700.33 456.684 1713.91 453.166C1729.63 449.096 1740.16 442.913 1746.91 434.913C1749.68 434.962 1752.45 434.645 1755.18 433.938C1769.17 430.316 1781.59 414.199 1788.37 394.464C1794.51 396.518 1800.83 397.301 1806.7 396.393C1828.23 393.067 1844.11 371.461 1840.94 346.586C1837.77 321.711 1809.77 304.543 1788.25 307.869C1784.71 308.416 1781.34 309.491 1778.21 311.018C1765.59 290.505 1747.72 279.101 1731.01 283.426C1728.14 284.169 1725.32 285.394 1722.58 287.045C1705.53 265.371 1683.23 253.939 1661.71 260.502C1646.69 264.391 1635.52 279.054 1629.64 299.574C1621.21 296.723 1612.85 296.244 1605.52 298.5C1592.07 302.643 1582.5 316.122 1578.19 334.203C1574.26 333.646 1570.26 333.837 1566.3 334.866C1544.49 340.537 1532.13 369.527 1538.7 399.618C1545.27 429.708 1568.28 449.504 1590.1 443.833C1597.63 441.875 1604.03 437.138 1608.92 430.537C1623.2 444.404 1639.06 451.936 1653.14 447.599C1659.04 445.784 1664.19 442.178 1668.47 437.179Z" fill="white"/>
<path d="M1713.91 453.166L1715.42 458.975L1713.91 453.166ZM1668.47 437.179L1663.92 433.273L1667.8 428.753L1672.35 432.595L1668.47 437.179ZM1746.91 434.913L1742.32 431.045L1744.16 428.862L1747.01 428.914L1746.91 434.913ZM1755.18 433.938L1756.68 439.746L1755.18 433.938ZM1788.37 394.464L1782.7 392.515L1784.63 386.884L1790.27 388.774L1788.37 394.464ZM1806.7 396.393L1807.62 402.322L1807.62 402.322L1806.7 396.393ZM1840.94 346.586L1846.89 345.828L1840.94 346.586ZM1788.25 307.869L1787.33 301.939L1787.33 301.939L1788.25 307.869ZM1778.21 311.018L1780.84 316.411L1775.95 318.794L1773.1 314.162L1778.21 311.018ZM1731.01 283.426L1732.52 289.235L1731.01 283.426ZM1722.58 287.045L1725.68 292.184L1721.14 294.917L1717.86 290.755L1722.58 287.045ZM1661.71 260.502L1663.46 266.241L1663.34 266.279L1663.21 266.311L1661.71 260.502ZM1629.64 299.574L1635.41 301.226L1633.68 307.272L1627.72 305.258L1629.64 299.574ZM1605.52 298.5L1603.76 292.765L1603.76 292.765L1605.52 298.5ZM1578.19 334.203L1584.02 335.596L1582.76 340.911L1577.35 340.144L1578.19 334.203ZM1566.3 334.866L1567.81 340.673L1566.3 334.866ZM1590.1 443.833L1591.61 449.64L1590.1 443.833ZM1608.92 430.537L1604.1 426.967L1608.18 421.455L1613.1 426.232L1608.92 430.537ZM1653.14 447.599L1654.91 453.334L1653.14 447.599ZM1715.42 458.975C1698.98 463.23 1680.25 454.977 1664.6 441.763L1672.35 432.595C1686.97 444.941 1701.67 450.138 1712.41 447.358L1715.42 458.975ZM1751.49 438.78C1743.7 448.028 1731.9 454.707 1715.42 458.975L1712.41 447.358C1727.37 443.485 1736.63 437.798 1742.32 431.045L1751.49 438.78ZM1756.68 439.746C1753.42 440.592 1750.11 440.971 1746.8 440.912L1747.01 428.914C1749.26 428.954 1751.48 428.698 1753.68 428.129L1756.68 439.746ZM1794.04 396.413C1790.47 406.833 1785.35 416.456 1779.12 424.049C1772.93 431.593 1765.32 437.511 1756.68 439.746L1753.68 428.129C1759.03 426.743 1764.63 422.791 1769.84 416.438C1775.01 410.134 1779.5 401.83 1782.7 392.515L1794.04 396.413ZM1790.27 388.774C1795.71 390.592 1801.05 391.196 1805.79 390.463L1807.62 402.322C1800.6 403.406 1793.31 402.444 1786.46 400.153L1790.27 388.774ZM1805.79 390.463C1823.74 387.69 1837.79 369.371 1834.99 347.344L1846.89 345.828C1850.42 373.551 1832.72 398.444 1807.62 402.322L1805.79 390.463ZM1834.99 347.344C1833.67 336.982 1827.11 327.849 1818.06 321.585C1808.97 315.289 1798.11 312.415 1789.16 313.798L1787.33 301.939C1799.9 299.996 1813.81 304.044 1824.89 311.72C1836.02 319.427 1845.04 331.315 1846.89 345.828L1834.99 347.344ZM1789.16 313.798C1786.23 314.251 1783.45 315.141 1780.84 316.411L1775.58 305.624C1779.24 303.842 1783.18 302.581 1787.33 301.939L1789.16 313.798ZM1729.51 277.618C1750.11 272.284 1770.22 286.581 1783.32 307.874L1773.1 314.162C1760.96 294.428 1745.33 285.918 1732.52 289.235L1729.51 277.618ZM1719.48 281.905C1722.66 279.993 1726.01 278.522 1729.51 277.618L1732.52 289.235C1730.27 289.816 1727.98 290.796 1725.68 292.184L1719.48 281.905ZM1659.96 254.763C1684.89 247.16 1709.52 260.746 1727.29 283.334L1717.86 290.755C1701.53 269.996 1681.56 260.719 1663.46 266.241L1659.96 254.763ZM1623.88 297.922C1630 276.539 1642.16 259.364 1660.2 254.694L1663.21 266.311C1651.21 269.419 1641.04 281.569 1635.41 301.226L1623.88 297.922ZM1603.76 292.765C1612.55 290.059 1622.22 290.732 1631.57 293.89L1627.72 305.258C1620.2 302.714 1613.16 302.429 1607.29 304.234L1603.76 292.765ZM1572.35 332.811C1576.9 313.737 1587.4 297.801 1603.76 292.765L1607.29 304.234C1596.73 307.485 1588.1 318.507 1584.02 335.596L1572.35 332.811ZM1564.79 329.059C1569.54 327.824 1574.34 327.598 1579.03 328.263L1577.35 340.144C1574.17 339.695 1570.98 339.85 1567.81 340.673L1564.79 329.059ZM1532.84 400.898C1529.31 384.739 1530.81 368.69 1536.34 355.732C1541.85 342.8 1551.62 332.483 1564.79 329.059L1567.81 340.673C1559.17 342.92 1551.85 349.933 1547.37 360.437C1542.91 370.915 1541.52 384.406 1544.56 398.338L1532.84 400.898ZM1591.61 449.64C1578.37 453.081 1565.19 448.652 1554.77 439.684C1544.36 430.731 1536.37 417.052 1532.84 400.898L1544.56 398.338C1547.6 412.274 1554.4 423.538 1562.59 430.587C1570.77 437.622 1580.01 440.255 1588.59 438.026L1591.61 449.64ZM1613.74 434.107C1608.18 441.622 1600.68 447.282 1591.61 449.64L1588.59 438.026C1594.58 436.468 1599.89 432.655 1604.1 426.967L1613.74 434.107ZM1654.91 453.334C1637.55 458.677 1619.45 449.123 1604.74 434.842L1613.1 426.232C1626.96 439.684 1640.56 445.195 1651.38 441.865L1654.91 453.334ZM1673.03 441.085C1668.12 446.813 1662.04 451.137 1654.91 453.334L1651.38 441.865C1656.03 440.431 1660.26 437.544 1663.92 433.273L1673.03 441.085Z" fill="black" mask="url(#path-9-outside-5_0_366)"/>
<mask id="path-11-outside-6_0_366" maskUnits="userSpaceOnUse" x="584.618" y="-0.330667" width="303.152" height="186.37" fill="black">
<rect fill="white" x="584.618" y="-0.330667" width="303.152" height="186.37"/>
<path fill-rule="evenodd" clip-rule="evenodd" d="M728.04 158.875C742.097 169.499 757.675 175.259 770.4 172.678C785.123 169.692 795.005 164.898 801.366 158.56C803.957 158.654 806.545 158.451 809.1 157.932C823.344 155.043 835.959 140.179 841.967 122.458C846.643 125.127 851.524 126.504 855.947 126.005C869.858 124.436 879.558 107.873 876.768 87.7025C873.979 67.5318 855.257 52.2833 841.347 53.8525C837.523 54.2838 834.07 55.9279 831.129 58.5045C819.494 41.9894 803.041 32.6457 787.552 35.7874C784.867 36.3321 782.218 37.2676 779.647 38.548C763.858 20.6974 743.093 11.0249 722.935 15.9141C708.868 18.7674 698.331 30.4048 692.696 46.8803C684.832 44.4122 677.025 43.8634 670.159 45.5452C658.087 48.5024 649.294 58.4465 644.918 72.0423C643.942 72.0856 642.969 72.204 642.004 72.4007C634.534 73.9227 628.845 79.8562 625.598 88.3136C608.007 91.4174 594.28 105.692 593.266 123.576C592.074 144.605 608.91 162.662 630.872 163.907C638.329 164.33 645.418 162.76 651.576 159.679C655.524 161.258 659.568 161.753 663.494 160.953C667.842 160.067 671.587 157.686 674.597 154.183C687.278 164.507 701.158 170.059 713.638 167.002C719.161 165.649 723.998 162.833 728.04 158.875Z"/>
</mask>
<path fill-rule="evenodd" clip-rule="evenodd" d="M728.04 158.875C742.097 169.499 757.675 175.259 770.4 172.678C785.123 169.692 795.005 164.898 801.366 158.56C803.957 158.654 806.545 158.451 809.1 157.932C823.344 155.043 835.959 140.179 841.967 122.458C846.643 125.127 851.524 126.504 855.947 126.005C869.858 124.436 879.558 107.873 876.768 87.7025C873.979 67.5318 855.257 52.2833 841.347 53.8525C837.523 54.2838 834.07 55.9279 831.129 58.5045C819.494 41.9894 803.041 32.6457 787.552 35.7874C784.867 36.3321 782.218 37.2676 779.647 38.548C763.858 20.6974 743.093 11.0249 722.935 15.9141C708.868 18.7674 698.331 30.4048 692.696 46.8803C684.832 44.4122 677.025 43.8634 670.159 45.5452C658.087 48.5024 649.294 58.4465 644.918 72.0423C643.942 72.0856 642.969 72.204 642.004 72.4007C634.534 73.9227 628.845 79.8562 625.598 88.3136C608.007 91.4174 594.28 105.692 593.266 123.576C592.074 144.605 608.91 162.662 630.872 163.907C638.329 164.33 645.418 162.76 651.576 159.679C655.524 161.258 659.568 161.753 663.494 160.953C667.842 160.067 671.587 157.686 674.597 154.183C687.278 164.507 701.158 170.059 713.638 167.002C719.161 165.649 723.998 162.833 728.04 158.875Z" fill="white"/>
<path d="M770.4 172.678L769.207 166.798L769.207 166.798L770.4 172.678ZM728.04 158.875L723.841 154.588L727.534 150.971L731.657 154.088L728.04 158.875ZM801.366 158.56L797.131 154.31L798.977 152.47L801.582 152.564L801.366 158.56ZM809.1 157.932L810.293 163.812L810.293 163.812L809.1 157.932ZM841.967 122.458L836.285 120.531L838.622 113.64L844.941 117.247L841.967 122.458ZM855.947 126.005L855.275 120.042L855.275 120.042L855.947 126.005ZM876.768 87.7025L870.825 88.5245L876.768 87.7025ZM841.347 53.8525L842.019 59.8147L842.019 59.8147L841.347 53.8525ZM831.129 58.5045L835.084 63.0171L830.067 67.4136L826.225 61.9603L831.129 58.5045ZM787.552 35.7874L788.744 41.6677L787.552 35.7874ZM779.647 38.548L782.322 43.9188L778.203 45.9706L775.153 42.5233L779.647 38.548ZM722.935 15.9141L724.35 21.745L724.239 21.7718L724.128 21.7943L722.935 15.9141ZM692.696 46.8803L698.373 48.8219L696.481 54.3566L690.9 52.605L692.696 46.8803ZM670.159 45.5452L668.731 39.7175L670.159 45.5452ZM644.918 72.0423L650.63 73.8806L649.352 77.8518L645.184 78.0364L644.918 72.0423ZM642.004 72.4007L643.202 78.2799L643.202 78.2799L642.004 72.4007ZM625.598 88.3136L631.2 90.4641L629.983 93.6326L626.641 94.2223L625.598 88.3136ZM651.576 159.679L648.891 154.313L651.301 153.107L653.803 154.108L651.576 159.679ZM663.494 160.953L662.296 155.073L663.494 160.953ZM674.597 154.183L670.047 150.272L673.855 145.842L678.386 149.53L674.597 154.183ZM713.638 167.002L715.065 172.83L715.065 172.83L713.638 167.002ZM771.593 178.559C756.405 181.639 739.057 174.723 724.422 163.661L731.657 154.088C745.136 164.276 758.946 168.879 769.207 166.798L771.593 178.559ZM805.6 162.811C798.096 170.287 786.945 175.445 771.593 178.559L769.207 166.798C783.301 163.94 791.913 159.508 797.131 154.31L805.6 162.811ZM810.293 163.812C807.261 164.427 804.2 164.666 801.149 164.556L801.582 152.564C803.715 152.641 805.828 152.474 807.908 152.052L810.293 163.812ZM847.65 124.384C841.326 143.035 827.558 160.311 810.293 163.812L807.908 152.052C819.131 149.775 830.592 137.322 836.285 120.531L847.65 124.384ZM844.941 117.247C848.924 119.52 852.517 120.354 855.275 120.042L856.62 131.967C850.53 132.654 844.363 130.734 838.993 127.669L844.941 117.247ZM855.275 120.042C859.884 119.523 864.278 116.484 867.377 110.912C870.479 105.336 872.065 97.4948 870.825 88.5245L882.712 86.8806C884.261 98.081 882.392 108.606 877.864 116.746C873.333 124.891 865.922 130.918 856.62 131.967L855.275 120.042ZM870.825 88.5245C869.649 80.0198 865.071 72.3956 859.197 67.0697C853.19 61.6224 846.674 59.2897 842.019 59.8147L840.674 47.8903C849.931 46.8462 859.73 51.3531 867.258 58.1804C874.921 65.1292 881.098 75.2146 882.712 86.8806L870.825 88.5245ZM842.019 59.8147C839.539 60.0944 837.205 61.1585 835.084 63.0171L827.175 53.992C830.935 50.6974 835.508 48.4731 840.674 47.8903L842.019 59.8147ZM786.359 29.9072C805.139 26.098 823.696 37.5359 836.034 55.0488L826.225 61.9603C815.292 46.443 800.943 39.1935 788.744 41.6677L786.359 29.9072ZM776.973 33.1773C779.97 31.6843 783.115 30.5652 786.359 29.9072L788.744 41.6677C786.618 42.0989 784.467 42.8509 782.322 43.9188L776.973 33.1773ZM721.521 10.0831C744.601 4.48537 767.481 15.7381 784.142 34.5728L775.153 42.5233C760.234 25.6566 741.586 17.5645 724.35 21.745L721.521 10.0831ZM687.019 44.9387C693.065 27.2591 704.865 13.4572 721.743 10.0338L724.128 21.7943C712.872 24.0775 703.596 33.5505 698.373 48.8219L687.019 44.9387ZM668.731 39.7175C676.891 37.7188 685.835 38.4383 694.493 41.1556L690.9 52.605C683.83 50.3861 677.159 50.0079 671.587 51.3729L668.731 39.7175ZM639.207 70.2041C644.013 55.2705 654.054 43.3128 668.731 39.7175L671.587 51.3729C662.12 53.6919 654.575 61.6225 650.63 73.8806L639.207 70.2041ZM640.806 66.5215C642.083 66.2612 643.368 66.1051 644.653 66.0482L645.184 78.0364C644.516 78.066 643.855 78.1467 643.202 78.2799L640.806 66.5215ZM619.997 86.1631C623.709 76.4949 630.687 68.5832 640.806 66.5215L643.202 78.2799C638.381 79.2622 633.982 83.2174 631.2 90.4641L619.997 86.1631ZM587.275 123.236C588.46 102.345 604.454 85.9516 624.556 82.4049L626.641 94.2223C611.56 96.8831 600.1 109.038 599.256 123.915L587.275 123.236ZM630.532 169.897C605.51 168.479 585.882 147.816 587.275 123.236L599.256 123.915C598.265 141.394 612.311 156.845 631.212 157.917L630.532 169.897ZM654.26 165.045C647.181 168.587 639.051 170.381 630.532 169.897L631.212 157.917C637.606 158.279 643.654 156.933 648.891 154.313L654.26 165.045ZM664.692 166.832C659.455 167.899 654.218 167.197 649.348 165.25L653.803 154.108C656.83 155.318 659.681 155.606 662.296 155.073L664.692 166.832ZM679.148 158.094C675.39 162.466 670.517 165.645 664.692 166.832L662.296 155.073C665.168 154.488 667.783 152.907 670.047 150.272L679.148 158.094ZM715.065 172.83C699.894 176.546 684.081 169.642 670.809 158.836L678.386 149.53C690.474 159.373 702.422 163.572 712.21 161.174L715.065 172.83ZM732.238 163.161C727.485 167.816 721.709 171.202 715.065 172.83L712.21 161.174C716.613 160.096 720.511 157.85 723.841 154.588L732.238 163.161Z" fill="black" mask="url(#path-11-outside-6_0_366)"/>
<mask id="path-13-outside-7_0_366" maskUnits="userSpaceOnUse" x="-86.1521" y="372.424" width="390.676" height="238.107" fill="black">
<rect fill="white" x="-86.1521" y="372.424" width="390.676" height="238.107"/>
<path fill-rule="evenodd" clip-rule="evenodd" d="M98.9283 577.094C117.19 590.897 137.428 598.379 153.959 595.026C173.085 591.147 185.923 584.918 194.186 576.685C197.553 576.807 200.914 576.543 204.234 575.87C222.739 572.116 239.126 552.806 246.932 529.785C253.007 533.252 259.346 535.04 265.093 534.392C283.164 532.354 295.766 510.838 292.142 484.634C288.518 458.43 264.197 438.62 246.126 440.659C241.159 441.219 236.672 443.355 232.852 446.702C217.736 425.248 196.362 413.109 176.24 417.191C172.752 417.898 169.312 419.113 165.972 420.777C145.459 397.587 118.484 385.022 92.2969 391.373C74.0222 395.08 60.3332 410.198 53.0133 431.601C42.7974 428.395 32.6549 427.682 23.7359 429.867C8.05316 433.709 -3.36982 446.627 -9.05453 464.29C-10.3233 464.346 -11.587 464.5 -12.8414 464.755C-22.5459 466.732 -29.9358 474.44 -34.154 485.427C-57.0076 489.459 -74.8408 508.003 -76.1581 531.237C-77.7071 558.556 -55.8343 582.014 -27.3038 583.632C-17.6164 584.181 -8.40709 582.142 -0.407383 578.139C4.72198 580.19 9.97571 580.833 15.0763 579.794C20.7254 578.643 25.5901 575.55 29.5014 570.999C45.9747 584.411 64.0066 591.624 80.2194 587.652C87.3946 585.895 93.678 582.237 98.9283 577.094Z"/>
</mask>
<path fill-rule="evenodd" clip-rule="evenodd" d="M98.9283 577.094C117.19 590.897 137.428 598.379 153.959 595.026C173.085 591.147 185.923 584.918 194.186 576.685C197.553 576.807 200.914 576.543 204.234 575.87C222.739 572.116 239.126 552.806 246.932 529.785C253.007 533.252 259.346 535.04 265.093 534.392C283.164 532.354 295.766 510.838 292.142 484.634C288.518 458.43 264.197 438.62 246.126 440.659C241.159 441.219 236.672 443.355 232.852 446.702C217.736 425.248 196.362 413.109 176.24 417.191C172.752 417.898 169.312 419.113 165.972 420.777C145.459 397.587 118.484 385.022 92.2969 391.373C74.0222 395.08 60.3332 410.198 53.0133 431.601C42.7974 428.395 32.6549 427.682 23.7359 429.867C8.05316 433.709 -3.36982 446.627 -9.05453 464.29C-10.3233 464.346 -11.587 464.5 -12.8414 464.755C-22.5459 466.732 -29.9358 474.44 -34.154 485.427C-57.0076 489.459 -74.8408 508.003 -76.1581 531.237C-77.7071 558.556 -55.8343 582.014 -27.3038 583.632C-17.6164 584.181 -8.40709 582.142 -0.407383 578.139C4.72198 580.19 9.97571 580.833 15.0763 579.794C20.7254 578.643 25.5901 575.55 29.5014 570.999C45.9747 584.411 64.0066 591.624 80.2194 587.652C87.3946 585.895 93.678 582.237 98.9283 577.094Z" fill="white"/>
<path d="M153.959 595.026L152.766 589.146L153.959 595.026ZM98.9283 577.094L94.7298 572.808L98.4224 569.191L102.546 572.308L98.9283 577.094ZM194.186 576.685L189.952 572.435L191.798 570.595L194.403 570.689L194.186 576.685ZM204.234 575.87L203.041 569.989L203.041 569.989L204.234 575.87ZM246.932 529.785L241.25 527.858L243.586 520.967L249.906 524.574L246.932 529.785ZM265.093 534.392L264.421 528.43L265.093 534.392ZM292.142 484.634L286.198 485.456L286.198 485.456L292.142 484.634ZM246.126 440.659L246.798 446.621L246.126 440.659ZM232.852 446.702L236.807 451.215L231.79 455.611L227.947 450.158L232.852 446.702ZM176.24 417.191L175.048 411.31L176.24 417.191ZM165.972 420.777L168.647 426.148L164.527 428.199L161.478 424.752L165.972 420.777ZM92.2969 391.373L93.7112 397.204L93.6009 397.231L93.4896 397.253L92.2969 391.373ZM53.0133 431.601L58.6904 433.543L56.7976 439.077L51.2167 437.326L53.0133 431.601ZM23.7359 429.867L25.1635 435.695L23.7359 429.867ZM-9.05453 464.29L-3.34307 466.128L-4.62126 470.099L-8.78918 470.284L-9.05453 464.29ZM-12.8414 464.755L-14.0392 458.876L-12.8414 464.755ZM-34.154 485.427L-28.5527 487.578L-29.7692 490.747L-33.1116 491.336L-34.154 485.427ZM-0.407383 578.139L-3.09226 572.773L-0.682048 571.567L1.82037 572.568L-0.407383 578.139ZM15.0763 579.794L16.2742 585.673L15.0763 579.794ZM29.5014 570.999L24.9511 567.088L28.7592 562.657L33.2898 566.346L29.5014 570.999ZM80.2194 587.652L81.647 593.48L80.2194 587.652ZM155.151 600.907C136.157 604.759 114.15 596.12 95.3105 581.881L102.546 572.308C120.229 585.673 138.699 591.999 152.766 589.146L155.151 600.907ZM198.421 580.936C189.014 590.308 174.907 596.9 155.151 600.907L152.766 589.146C171.263 585.394 182.831 579.529 189.952 572.435L198.421 580.936ZM205.427 581.75C201.63 582.52 197.796 582.82 193.97 582.682L194.403 570.689C197.31 570.794 200.198 570.566 203.041 569.989L205.427 581.75ZM252.614 531.711C244.493 555.662 226.952 577.384 205.427 581.75L203.041 569.989C218.525 566.849 233.759 549.949 241.25 527.858L252.614 531.711ZM249.906 524.574C255.287 527.645 260.34 528.89 264.421 528.43L265.766 540.354C258.353 541.191 250.726 538.859 243.958 534.996L249.906 524.574ZM264.421 528.43C271.11 527.675 277.269 523.281 281.51 515.658C285.753 508.031 287.856 497.443 286.198 485.456L298.085 483.812C300.051 498.029 297.666 511.301 291.996 521.492C286.324 531.688 277.148 539.07 265.766 540.354L264.421 528.43ZM286.198 485.456C284.605 473.934 278.418 463.662 270.521 456.5C262.49 449.217 253.533 445.861 246.798 446.621L245.453 434.697C256.79 433.418 269.029 438.948 278.582 447.611C288.269 456.395 296.055 469.129 298.085 483.812L286.198 485.456ZM246.798 446.621C243.174 447.03 239.807 448.586 236.807 451.215L228.898 442.19C233.537 438.124 239.143 435.408 245.453 434.697L246.798 446.621ZM175.048 411.31C198.461 406.561 221.938 420.794 237.757 443.246L227.947 450.158C213.534 429.701 194.264 419.657 177.433 423.071L175.048 411.31ZM163.297 415.406C167.064 413.53 171 412.131 175.048 411.31L177.433 423.071C174.504 423.665 171.56 424.697 168.647 426.148L163.297 415.406ZM90.8827 385.542C119.992 378.482 149.083 392.628 170.466 416.802L161.478 424.752C141.836 402.546 116.977 391.561 93.7112 397.204L90.8827 385.542ZM47.3361 429.659C55.0678 407.052 70.0187 389.77 91.1043 385.493L93.4896 397.253C78.0257 400.39 65.5985 413.344 58.6904 433.543L47.3361 429.659ZM22.3084 424.039C32.5207 421.537 43.7999 422.421 54.8099 425.876L51.2167 437.326C41.7949 434.369 32.7891 433.827 25.1635 435.695L22.3084 424.039ZM-14.766 462.451C-8.65074 443.451 4.02033 428.519 22.3084 424.039L25.1635 435.695C12.086 438.898 1.9111 449.803 -3.34307 466.128L-14.766 462.451ZM-14.0392 458.876C-12.4729 458.557 -10.8973 458.365 -9.31989 458.295L-8.78918 470.284C-9.74927 470.326 -10.701 470.442 -11.6435 470.634L-14.0392 458.876ZM-39.7554 483.277C-35.0723 471.079 -26.3926 461.393 -14.0392 458.876L-11.6435 470.634C-18.6991 472.072 -24.7993 477.802 -28.5527 487.578L-39.7554 483.277ZM-82.1485 530.897C-80.6607 504.657 -60.5608 483.994 -35.1965 479.519L-33.1116 491.336C-53.4544 494.925 -69.0209 511.35 -70.1677 531.576L-82.1485 530.897ZM-27.6435 589.622C-59.2347 587.831 -83.8988 561.767 -82.1485 530.897L-70.1677 531.576C-71.5154 555.345 -52.4338 576.197 -26.9642 577.641L-27.6435 589.622ZM2.27749 583.504C-6.64365 587.968 -16.8941 590.231 -27.6435 589.622L-26.9642 577.641C-18.3388 578.13 -10.1705 576.315 -3.09226 572.773L2.27749 583.504ZM16.2742 585.673C9.86292 586.979 3.41587 586.129 -2.63514 583.71L1.82037 572.568C6.02808 574.25 10.0885 574.687 13.8785 573.914L16.2742 585.673ZM34.0518 574.91C29.3938 580.329 23.3998 584.221 16.2742 585.673L13.8785 573.914C18.0509 573.064 21.7863 570.77 24.9511 567.088L34.0518 574.91ZM81.647 593.48C62.7429 598.111 42.7782 589.546 25.7131 575.652L33.2898 566.346C49.1712 579.277 65.2703 585.137 78.7919 581.824L81.647 593.48ZM103.127 581.381C97.1652 587.22 89.9427 591.448 81.647 593.48L78.7919 581.824C84.8465 580.341 90.1909 577.254 94.7298 572.808L103.127 581.381Z" fill="black" mask="url(#path-13-outside-7_0_366)"/>
</svg>
