<svg width="114" height="38" viewBox="0 0 114 38" fill="none" xmlns="http://www.w3.org/2000/svg">
<path d="M12.783 36.6521C12.3958 36.6867 11.639 36.7212 10.5127 36.7558C9.38631 36.7904 8.18955 36.8249 6.9224 36.8595C5.65525 36.8595 4.4585 36.8768 3.33214 36.9113C2.20578 36.9459 1.44901 36.9632 1.06183 36.9632C0.709839 36.9632 0.533846 36.8595 0.533846 36.6521C0.533846 36.1337 0.516247 35.2869 0.481048 34.1119C0.481048 32.9368 0.463449 31.5716 0.42825 30.0164C0.42825 28.4611 0.410651 26.7676 0.375452 24.9359C0.340254 23.0696 0.305055 21.186 0.269856 19.2851C0.269856 17.3843 0.252257 15.518 0.217058 13.6862C0.18186 11.8199 0.146661 10.1091 0.111462 8.55389C0.111462 6.99864 0.0938631 5.63347 0.0586645 4.45839C0.0586645 3.28331 0.0586645 2.43656 0.0586645 1.91814C0.0586645 1.64165 0.0410651 1.36516 0.00586642 1.08868C-0.0293322 0.777624 0.0938632 0.604819 0.375452 0.570258C1.8538 0.466576 3.31454 0.345612 4.75768 0.207367C6.20083 0.0691225 7.66157 0 9.13992 0C10.1607 0 11.1814 0.0518411 12.2022 0.155523C13.2582 0.259207 14.2789 0.449295 15.2645 0.725784C16.2852 1.00227 17.2356 1.38245 18.1156 1.8663C19.0307 2.35016 19.8579 2.97226 20.5971 3.7326C21.653 4.804 22.4274 6.11733 22.9202 7.67258C23.413 9.19327 23.5714 10.6967 23.3954 12.1828C23.0786 14.7058 21.8994 16.7103 19.8579 18.1965C20.6675 18.6457 21.4066 19.1814 22.0754 19.8035C22.7794 20.3911 23.3426 21.0823 23.765 21.8772C24.1873 22.6376 24.4689 23.4497 24.6097 24.3138C24.7857 25.1778 24.8385 26.0246 24.7681 26.854C24.6273 28.4438 24.1873 29.8263 23.4482 31.0014C22.7442 32.1419 21.8466 33.1096 20.7555 33.9045C19.6643 34.6648 18.4324 35.2697 17.0596 35.719C15.6869 36.1683 14.2613 36.4793 12.783 36.6521ZM8.40074 14.8267C9.10472 14.8267 9.79109 14.844 10.4599 14.8786C11.1638 14.8786 11.8678 14.8095 12.5718 14.6712C13.5573 14.4984 14.3845 14.1355 15.0533 13.5825C15.8277 12.8913 16.2324 12.0618 16.2676 11.0941C16.338 10.0919 15.9509 9.29695 15.1061 8.70941C14.1909 8.08731 13.135 7.70714 11.9382 7.56889C10.7767 7.43065 9.6327 7.39609 8.50634 7.46521C8.47114 8.67485 8.45354 9.90177 8.45354 11.146C8.45354 12.3902 8.43594 13.6171 8.40074 14.8267ZM8.29515 29.4461C9.17512 29.4807 10.0551 29.5152 10.935 29.5498C11.8502 29.5844 12.7302 29.498 13.5749 29.2906C14.1733 29.1523 14.7541 28.9277 15.3173 28.6166C15.9157 28.271 16.3732 27.839 16.69 27.3206C16.9716 26.8713 17.13 26.4047 17.1652 25.9209C17.2004 25.4025 17.1124 24.9186 16.9012 24.4693C16.7252 24.02 16.4436 23.6053 16.0564 23.2251C15.7045 22.8449 15.2821 22.5512 14.7893 22.3438C13.8037 21.9291 12.7478 21.6698 11.6214 21.5662C10.5303 21.4625 9.4391 21.4452 8.34795 21.5143C8.34795 22.8276 8.34795 24.1583 8.34795 25.5061C8.34795 26.8195 8.33035 28.1328 8.29515 29.4461Z" fill="#263D1E"/>
<path d="M53.588 33.1269C53.3768 33.2651 52.9368 33.5762 52.268 34.06C51.5993 34.5093 50.8777 35.0105 50.1033 35.5634C49.3641 36.0819 48.6602 36.583 47.9914 37.0668C47.3578 37.5507 46.9354 37.8618 46.7242 38C46.5482 37.7235 46.2139 37.2397 45.7211 36.5484C45.2283 35.8572 44.6651 35.0623 44.0315 34.1637C43.398 33.2651 42.7116 32.3147 41.9724 31.3124C41.2684 30.3101 40.5997 29.3597 39.9661 28.4611C39.3325 27.5625 38.7693 26.7676 38.2766 26.0764C37.819 25.3852 37.4846 24.9013 37.2734 24.6248V36.03C37.2734 36.3065 37.2734 36.583 37.2734 36.8595C37.2734 37.136 37.1502 37.2742 36.9038 37.2742C36.6574 37.2397 36.1646 37.2051 35.4255 37.1705C34.7215 37.136 33.9647 37.1014 33.1552 37.0668C32.3808 36.9977 31.624 36.9459 30.8848 36.9113C30.1809 36.8768 29.7057 36.8595 29.4593 36.8595C29.4593 36.1337 29.4417 34.8377 29.4065 32.9714C29.3713 31.105 29.3361 28.9623 29.3009 26.543C29.2657 24.0891 29.2129 21.497 29.1425 18.7667C29.1073 16.0364 29.0721 13.4616 29.0369 11.0423C29.0017 8.58845 28.9665 6.42838 28.9313 4.56207C28.8961 2.69577 28.8785 1.39973 28.8785 0.673943C29.3009 0.60482 30.0929 0.552978 31.2544 0.518417C32.4512 0.449296 33.7007 0.397453 35.0031 0.362891C36.3406 0.32833 37.5902 0.31105 38.7517 0.31105C39.9485 0.31105 40.7581 0.31105 41.1805 0.31105C42.7292 0.34561 44.2075 0.673941 45.6155 1.29604C47.0586 1.88358 48.3258 2.67849 49.4169 3.68076C50.5433 4.68304 51.4409 5.85812 52.1096 7.206C52.8136 8.55389 53.1832 9.98818 53.2184 11.5089C53.2888 12.7531 53.1128 14.0146 52.6904 15.2933C52.3032 16.5375 51.7576 17.6608 51.0537 18.663C50.3849 19.5962 49.5753 20.4084 48.625 21.0996C47.7098 21.7908 46.7418 22.3784 45.7211 22.8622C45.8971 23.0696 46.1787 23.4497 46.5658 24.0027C46.9882 24.5211 47.4634 25.126 47.9914 25.8172C48.5194 26.4739 49.0825 27.1996 49.6809 27.9945C50.2793 28.7549 50.8425 29.4807 51.3705 30.1719C51.8984 30.8631 52.356 31.4852 52.7432 32.0382C53.1656 32.5566 53.4472 32.9195 53.588 33.1269ZM37.2734 17.3151C38.0126 17.4188 38.7341 17.4707 39.4381 17.4707C40.5997 17.4707 41.6556 17.2979 42.606 16.9523C43.2396 16.7103 43.8027 16.382 44.2955 15.9673C44.7883 15.5525 45.1755 15.0687 45.4571 14.5157C45.7739 13.9627 45.9675 13.3925 46.0379 12.8049C46.1083 12.1828 46.0379 11.5607 45.8267 10.9386C45.6155 10.3165 45.2811 9.78081 44.8235 9.33151C44.4011 8.88222 43.9083 8.53661 43.3452 8.29468C42.782 8.01819 42.166 7.8281 41.4972 7.72442C40.8637 7.58617 40.2477 7.51705 39.6493 7.51705C38.8397 7.51705 38.0654 7.56889 37.3262 7.67258C37.3262 9.29695 37.3086 10.904 37.2734 12.4939C37.2734 14.0837 37.2734 15.6908 37.2734 17.3151Z" fill="#263D1E"/>
<path d="M69.8493 37.7408C67.843 37.7408 66.0831 37.4125 64.5695 36.7558C63.0912 36.0991 61.8416 35.2005 60.8209 34.06C59.8001 32.8849 58.9906 31.5198 58.3922 29.9645C57.829 28.4093 57.4594 26.7331 57.2834 24.9359C57.2482 24.3829 57.2306 23.467 57.2306 22.1883C57.2306 20.9095 57.2482 19.4579 57.2834 17.8336C57.3186 16.1746 57.3538 14.4466 57.389 12.6494C57.4594 10.8176 57.5122 9.08959 57.5474 7.46521C57.6178 5.80628 57.6706 4.33743 57.7058 3.05866C57.7762 1.7799 57.8114 0.864029 57.8114 0.31105C59.2545 0.380173 60.6625 0.432015 62.0352 0.466576C63.4432 0.501137 64.8687 0.552978 66.3119 0.622099C66.2063 3.17963 66.0831 5.73715 65.9423 8.29468C65.8367 10.8176 65.7135 13.3579 65.5727 15.9154C65.5375 16.5375 65.4847 17.4361 65.4143 18.6112C65.3791 19.7863 65.3615 21.0132 65.3615 22.292C65.3967 23.5362 65.4847 24.7285 65.6255 25.869C65.7663 27.0096 65.9951 27.839 66.3119 28.3574C66.6991 29.0141 67.1918 29.5671 67.7902 30.0164C68.4238 30.4657 69.1454 30.6903 69.9549 30.6903C70.7293 30.6903 71.3981 30.5348 71.9613 30.2237C72.5596 29.8781 73.0524 29.4461 73.4396 28.9277C73.862 28.3747 74.1788 27.7699 74.39 27.1132C74.6012 26.422 74.7243 25.7481 74.7595 25.0914C74.7595 24.6075 74.742 23.7435 74.7067 22.4993C74.6715 21.2551 74.6012 19.8381 74.4956 18.2483C74.4252 16.6239 74.3372 14.9131 74.2316 13.116C74.1612 11.3188 74.0908 9.62528 74.0204 8.03547C73.95 6.41109 73.8796 4.97681 73.8092 3.7326C73.774 2.4884 73.7564 1.62438 73.7564 1.14052C75.1643 1.14052 76.5547 1.05412 77.9274 0.881308C79.3002 0.708502 80.6905 0.604819 82.0985 0.570258C82.2745 3.71532 82.4504 6.86039 82.6264 10.0055C82.8376 13.116 82.9256 16.2437 82.8904 19.3888C82.8552 20.6676 82.8024 22.0155 82.732 23.4325C82.6616 24.8149 82.4857 26.1974 82.2041 27.5798C81.9577 28.9623 81.5353 30.2756 80.9369 31.5198C80.3737 32.764 79.5818 33.8527 78.561 34.7858C77.4346 35.7881 76.0795 36.5312 74.4956 37.015C72.9468 37.4989 71.3981 37.7408 69.8493 37.7408Z" fill="#263D1E"/>
<path d="M112.152 37.0668C112.117 37.447 111.923 37.6025 111.571 37.5334C111.325 37.4989 110.85 37.4297 110.146 37.3261C109.477 37.2569 108.755 37.1878 107.981 37.1187C107.207 37.0496 106.467 36.9804 105.764 36.9113C105.06 36.8422 104.584 36.8076 104.338 36.8076C104.373 36.4966 104.391 35.9436 104.391 35.1487C104.426 34.3538 104.461 33.4379 104.496 32.4011C104.532 31.3643 104.567 30.2756 104.602 29.1351C104.637 27.96 104.672 26.8713 104.708 25.869C104.743 24.8322 104.778 23.9163 104.813 23.1214C104.848 22.3265 104.866 21.7735 104.866 21.4625H96.2599V36.8595C96.2599 37.2051 96.0839 37.3606 95.7319 37.3261C95.4855 37.2915 95.0103 37.2569 94.3064 37.2224C93.6024 37.1878 92.8632 37.1533 92.0888 37.1187C91.3145 37.0496 90.5753 36.9977 89.8713 36.9632C89.1673 36.9286 88.6922 36.9113 88.4458 36.9113C88.4458 36.3583 88.4282 35.477 88.393 34.2674C88.393 33.0232 88.3754 31.5716 88.3402 29.9127C88.305 28.2538 88.2698 26.4566 88.2346 24.5211C88.1994 22.5512 88.1642 20.5639 88.129 18.5593C88.0938 16.5202 88.0586 14.533 88.0234 12.5975C87.9882 10.6276 87.953 8.8131 87.9178 7.15416C87.8826 5.49522 87.8474 4.06094 87.8122 2.8513C87.8122 1.60709 87.8122 0.708503 87.8122 0.155523C89.2553 0.120963 90.6633 0.103682 92.036 0.103682C93.444 0.103682 94.8695 0.0864018 96.3127 0.0518411C96.3127 2.54025 96.3127 5.01137 96.3127 7.46521C96.3127 9.91905 96.2951 12.3902 96.2599 14.8786H105.077C105.077 14.5675 105.095 14.0318 105.13 13.2715C105.165 12.5111 105.183 11.6298 105.183 10.6276C105.218 9.62528 105.253 8.57117 105.288 7.46521C105.324 6.32469 105.359 5.2533 105.394 4.25102C105.429 3.24875 105.464 2.36744 105.5 1.60709C105.535 0.846748 105.552 0.311051 105.552 0C106.96 0.0691214 108.368 0.138244 109.776 0.207367C111.184 0.241928 112.592 0.293769 114 0.362891C113.718 6.51478 113.402 12.6321 113.05 18.7149C112.733 24.7976 112.434 30.915 112.152 37.0668Z" fill="#263D1E"/>
</svg>
